<?xml version="1.0" encoding="UTF-8" standalone="yes"?>
<svg width="1000" height="1000" viewBox="0 0 1000 1000" version="1.2" baseProfile="tiny-ps" xmlns="http://www.w3.org/2000/svg">
  <title>bimi-svg-tiny-12-ps</title>
  <rect width="1000" height="1000"/>
  <rect x="523.2" y="621.5" width="49.7" height="219.4" rx="6.1" ry="6.1" fill="#fff"/>
  <rect x="523.2" y="558.1" width="49.7" height="51.1" rx="6.1" ry="6.1" fill="#fff"/>
  <path d="M266.8,792.2v-26.1c0-3.4-2.7-6.1-6.1-6.1h-37.5c-3.4,0-6.1,2.7-6.1,6.1v24s0,13-13.1,13-12.8-13-12.8-13v-49.3c0-1.3,1-2.3,2.3-2.3h67.2c3.4,0,6.1-2.7,6.1-6.1v-71s0-39.9-62.8-39.9-62.8,39.9-62.8,39.9v130.8s0,47.9,62.8,47.9,62.8-47.9,62.8-47.9h0ZM191.2,670.6s0-13,12.8-13,13.1,13,13.1,13v30c0,1.3-1,2.3-2.3,2.3h-21.3c-1.3,0-2.3-1-2.3-2.3v-30h0Z" fill="#fff"/>
  <path d="M718,792.2v-26.1c0-3.4-2.7-6.1-6.1-6.1h-37.5c-3.4,0-6.1,2.7-6.1,6.1v24s0,13-13.1,13-12.8-13-12.8-13v-49.3c0-1.3,1-2.3,2.3-2.3h67.2c3.4,0,6.1-2.7,6.1-6.1v-71s0-39.9-62.8-39.9-62.8,39.9-62.8,39.9v130.8s0,47.9,62.8,47.9,62.8-47.9,62.8-47.9h0ZM642.4,670.6s0-13,12.8-13,13.1,13,13.1,13v30c0,1.3-1,2.3-2.3,2.3h-21.3c-1.3,0-2.3-1-2.3-2.3v-30Z" fill="#fff"/>
  <path d="M360.2,664.8v-37.1c0-3.4-2.7-6.1-6.1-6.1h-8.8c-1.3,0-2.3-1-2.3-2.3v-55c0-3.4-2.7-6.1-6.1-6.1h-37.5c-3.4,0-6.1,2.7-6.1,6.1v55c0,1.3-1,2.3-2.3,2.3h-8.8c-3.4,0-6.1,2.7-6.1,6.1v37.1c0,3.4,2.7,6.1,6.1,6.1h8.8c1.3,0,2.3,1,2.3,2.3v141.8s0,25.1,29.5,25.1h31.4c3.4,0,6.1-2.7,6.1-6.1v-27.6c0-3.4-2.7-6.1-6.1-6.1h-2.8c-8.3,0-8.3-9.1-8.3-9.1v-118c0-1.3,1-2.3,2.3-2.3h8.8c3.4,0,6.1-2.7,6.1-6.1h-.1Z" fill="#fff"/>
  <path d="M504.2,657.7v176.3c0,3.4-2.7,6.1-6.1,6.1h-37.5c-3.4,0-6.1-2.7-6.1-6.1v-163.4s0-13-12.8-13-12.8,13-12.8,13v163.4c0,3.4-2.7,6.1-6.1,6.1h-37.5c-3.4,0-6.1-2.7-6.1-6.1v-206.3c0-3.4,2.7-6.1,6.1-6.1h37.5c3.4,0,6.1,2.7,6.1,6.1v2.2c0,2,2.3,3,3.8,1.8,6.4-5.6,17.4-10.2,31.6-10.2s40,18,40,36.1h0l-.1.1Z" fill="#fff"/>
  <path d="M783.5,698.9c0,31.7,75.3,2.7,75.3,66.2v33.5s0,40.9-62.7,40.9-63-40.9-63-40.9v-32.4c0-3.4,2.8-6.1,6.1-6.1h38.1c3.4,0,6.1,2.8,6.1,6.2v24.2s0,13,12.8,13,12.8-13,12.8-13v-25.3c0-31.7-76-2.7-76-66.2v-38.2s0-39.8,62.8-39.8,62.9,39.8,62.9,39.8v36.3c0,3.4-2.8,6.1-6.1,6.1h-37.5c-3.4,0-6.1-2.8-6.1-6.1v-27s0-13-12.8-13-12.8,13-12.8,13v28.9h0l.1-.1Z" fill="#fff"/>
  <path d="M843.4,417.7l-55.3,85.6c-1.5,2.3-4.1,3.8-6.9,3.8l-133.1.2c-6.5,0-10.5-7.2-6.9-12.7l48.2-75.1c12.2-19.1,6.8-44.5-12.3-57-19.1-12.4-44.8-7-57.2,12.2l-82.3,128.6c-1.5,2.3-4.1,3.8-6.9,3.8h-131.4c-6.5,0-10.4-7.2-6.9-12.7l87.8-137.4c11.6-19,6.7-45-12.1-57.2-19.2-12.4-44.8-7-57.2,12.2l-122.9,191.3c-1.5,2.3-4.1,3.8-6.9,3.8h-131.7c-6.5,0-10.4-7.2-6.9-12.7l192.1-295c18.5-28.5,47.5-42.2,82.2-40.2s143.3,26.5,201.9,46.6c62.1,21.4,158.3,62.5,201.4,92,43.1,29.5,49.2,80,23.3,119.9h0Z" fill="#fff"/>
</svg>