<?xml version="1.0" encoding="UTF-8"?>
<svg id="Calque_1" xmlns="http://www.w3.org/2000/svg" version="1.1" viewBox="0 0 1000 1000">
  <!-- Generator: Adobe Illustrator 29.4.0, SVG Export Plug-In . SVG Version: 2.1.0 Build 152)  -->
  <defs>
    <style>
      .st0 {
        fill: #fff;
      }
    </style>
  </defs>
  <rect x="0" y="0" width="1000.1" height="1000.1"/>
  <path class="st0" d="M209.3,709.1l-7.3-124.8,91.3-171.5,11,85.9,44.7,100.7-73-47.4,33.7,223-71-157.9-29.4,91.9h0ZM568.2,516.1l53.4-70.6,17.8,218.6,27.7-125.7,130.8,84.9-222.9-355.4-36.1,66.7-2.5,91.7,37.2-50.1-5.4,139.8h0ZM402.1,805l28.7-156,54.3-29.5-152.1-158.8,62.8,144,6.4,200.2h0ZM442.6,515.9l-92.6-95.6,87.9-225.2,20.9,102.3,47.5,34.1-24.9,66.5,31.5,72,122.3,306.8-186.5-310-6,49.2h0ZM440.2,434l10.1-66.9-20.5-87.2-5.4,97.4,15.8,56.7h0Z"/>
</svg>