<?xml version="1.0" encoding="UTF-8"?><svg id="Calque_1" xmlns="http://www.w3.org/2000/svg" width="1000.08" height="1000.08" viewBox="0 0 1000.08 1000.08"><rect width="1000.08" height="1000.08"/><path d="M209.38,709.09l-7.32-124.75,91.27-171.55,10.95,85.94,44.73,100.7-72.96-47.38,33.69,223.04-70.98-157.85-29.38,91.86ZM568.24,516.15l53.44-70.61,17.84,218.61,27.69-125.73,130.8,84.89-222.92-355.36-36.14,66.71-2.5,91.74,37.2-50.1-5.41,139.85ZM402.11,805.01l28.66-155.95,54.28-29.47-152.14-158.78,62.78,144.03,6.43,200.17ZM442.61,515.93l-92.58-95.62,87.85-225.24,20.88,102.31,47.53,34.07-24.91,66.55,31.49,71.95,122.26,306.83-186.52-310.04-6,49.21ZM440.24,434.01l10.11-66.89-20.5-87.21-5.37,97.36,15.77,56.73Z" fill="#fff"/></svg>