<?xml version="1.0" encoding="UTF-8" standalone="yes"?>
<svg width="1000" height="1000" viewBox="0 0 1000 1000" version="1.2" baseProfile="tiny-ps" xmlns="http://www.w3.org/2000/svg">
  <title>bimi-svg-tiny-12-ps</title>
  <rect width="1000" height="1000"/>
  <path d="M209.3,709.1l-7.3-124.8,91.3-171.5,11,85.9,44.7,100.7-73-47.4,33.7,223-71-157.9-29.4,91.9h0v.1ZM568.2,516.1l53.4-70.6,17.8,218.6,27.7-125.7,130.8,84.9-222.9-355.4-36.1,66.7-2.5,91.7,37.2-50.1-5.4,139.8h0v.1ZM402.1,805l28.7-156,54.3-29.5-152.1-158.8,62.8,144,6.4,200.2h0l-.1.1ZM442.6,515.9l-92.6-95.6,87.9-225.2,20.9,102.3,47.5,34.1-24.9,66.5,31.5,72,122.3,306.8-186.5-310-6,49.2h0l-.1-.1ZM440.2,434l10.1-66.9-20.5-87.2-5.4,97.4,15.8,56.7h0Z" fill="#fff"/>
</svg>