<?xml version="1.0" encoding="UTF-8"?>
<svg id="Calque_1" xmlns="http://www.w3.org/2000/svg" version="1.1" viewBox="0 0 1000 1000">
  <!-- Generator: Adobe Illustrator 29.4.0, SVG Export Plug-In . SVG Version: 2.1.0 Build 152)  -->
  <defs>
    <style>
      .st0 {
        fill: #fff;
      }
    </style>
  </defs>
  <rect x="-2" y="-2" width="1004" height="1004"/>
  <polygon class="st0" points="585.1 510.8 425.4 376.3 387.8 389.2 624.7 588.9 624.7 385.1 585.1 385.1 585.1 510.8"/>
  <polygon class="st0" points="375.3 614.9 414.9 614.9 414.9 489.2 574.6 623.7 612.2 610.8 375.3 411.1 375.3 614.9"/>
  <path class="st0" d="M753.7,500c0-140-113.8-253.8-253.7-253.8s-253.7,113.9-253.7,253.8,113.8,253.9,253.7,253.9,253.7-113.9,253.7-253.9ZM500,716.2c-119.1,0-216.1-97-216.1-216.2s96.9-216.2,216.1-216.2,216.1,97,216.1,216.2-96.9,216.2-216.1,216.2Z"/>
</svg>