<?xml version="1.0" encoding="UTF-8"?><svg id="Calque_1" xmlns="http://www.w3.org/2000/svg" width="865.12" height="865.12" viewBox="0 0 865.12 865.12"><rect width="865.12" height="865.12"/><polygon points="505.88 441.9 368.3 325.99 335.91 337.13 540.01 509.19 540.01 333.56 505.88 333.56 505.88 441.9" fill="#fff"/><polygon points="325.11 531.55 359.24 531.55 359.24 423.22 496.83 539.12 529.22 527.99 325.11 355.93 325.11 531.55" fill="#fff"/><path d="M651.16,432.55c0-120.6-98.06-218.73-218.6-218.73s-218.61,98.13-218.61,218.73,98.07,218.74,218.61,218.74,218.6-98.13,218.6-218.74ZM432.56,618.85c-102.66,0-186.18-83.58-186.18-186.29s83.52-186.3,186.18-186.3,186.19,83.57,186.19,186.3-83.52,186.29-186.19,186.29Z" fill="#fff"/></svg>