<?xml version="1.0" encoding="UTF-8" standalone="yes"?>
<svg width="1000" height="1000" viewBox="0 0 1000 1000" version="1.2" baseProfile="tiny-ps" xmlns="http://www.w3.org/2000/svg">
  <title>bimi-svg-tiny-12-ps</title>
  <rect width="1000" height="1000"/>
  <polygon points="585.1 510.8 425.4 376.3 387.8 389.2 624.7 588.9 624.7 385.1 585.1 385.1 585.1 510.8" fill="#fff"/>
  <polygon points="375.3 614.9 414.9 614.9 414.9 489.2 574.6 623.7 612.2 610.8 375.3 411.1 375.3 614.9" fill="#fff"/>
  <path d="M753.7,500c0-140-113.8-253.8-253.7-253.8s-253.7,113.9-253.7,253.8,113.8,253.9,253.7,253.9,253.7-113.9,253.7-253.9h0ZM500,716.2c-119.1,0-216.1-97-216.1-216.2s96.9-216.2,216.1-216.2,216.1,97,216.1,216.2-96.9,216.2-216.1,216.2h0Z" fill="#fff"/>
</svg>