<?xml version="1.0" encoding="UTF-8" standalone="yes"?>
<svg width="1000" height="1000" viewBox="0 0 1000 1000" version="1.2" baseProfile="tiny-ps" xmlns="http://www.w3.org/2000/svg">
  <title>bimi-svg-tiny-12-ps</title>
  <rect width="1000" height="1000" fill="#eb6811"/>
  <path d="M893.2,567.61c-7.12-.6-14.9-.6-22.49,0-27.83,2.22-42.81,9.85-50.84,28.45l3.49-25.46h-41.38l-17.03,128.67c-1.85,13.78-6.05,18.28-18.83,19.77-3.05.31-5.74.31-8.38-.29-10.28-1.52-13.67-5.4-13.37-12.01l.31-2.39.67-5.07,17.06-128.83-18.62.29-18.57-.29-17.07,128.83-.73,5.69-.26,1.77c-1.65,8.11-10.25,14.1-25.61,12.3-11.21-1.49-14.46-6.28-12.67-19.77l17.03-128.67h-63.6l5.29-39.87-43.35,15-3.32,24.95h-40.77l-16.5,143.34-7.2.3h-3.01c-9.27-.61-11.7-3-12.59-15.29l-9.27-128.35h-59.48v-39.87l-41.41,14.98v22.51c-3.27-.32-6.82,0-10.09.6-43.77,6-55.76,19.48-55.76,58.14v122.95h41.08v-122.03c0-13.49,7.19-21.9,20.09-23.7,1.48-.29,3.2-.29,4.68-.29v98.66c0,32.99,12.9,47.36,40.79,47.36h24.3v-36.27h-8.71c-10.5.31-14.69-3-15.29-11.09l-.31-4.79v-91.77h21.28l10.01,101.96c3.02,28.79,11.71,38.68,34.2,41.38,2.7.3,5.1.58,7.81.58h13.49l-7.2,43.2h41.07l10.39-77.86c-.03,23.93,11.43,34.6,35.41,34.6h24.29l4.26-32.1c-.31,23.42,12.53,34.59,48.4,35.41,26.94.59,41.37-6.6,46.76-15.61,4.1,9.91,16.15,16.2,42.92,15.61,34.75-.8,51.3-11.67,57.7-33.86,1.53,22.33,14.26,31.17,43.88,33.58,7.48.29,15.24.29,22.8,0,38.15-3.03,52.22-16.21,57.21-53.98l5.13-38.7,5.15-38.68c5-37.77-5.55-50.99-43.24-53.98h0ZM607.07,709.15c-.18,1.56-.29,3.05-.41,4.51h-8.32c-10.53.3-14.29-2.99-13.82-11.09l.34-4.81.49-3.59,11.69-88.18h23.48l-13.46,103.16h.01ZM895.55,617.7c-.19,1.51-.38,2.98-.58,4.48l-5.03,38.09-5.07,38.11c-.19,1.47-.37,2.98-.58,4.46-2.45,11.71-6.57,15.61-18.43,16.82-2.44.27-5.41.27-8.09,0-11.54-1.2-14.35-4.81-13.62-17.09-.17-1.2.05-2.71.25-4.19l5.04-38.11,5.05-38.09c.18-1.5.41-2.97.88-4.48,2.52-11.99,6.28-15.6,18.12-16.82,2.74-.27,5.77-.27,8.11,0,11.54,1.22,14.65,4.83,13.96,16.82h0ZM217.7,568.58c-3.59-.6-7.48-.89-11.09-.89-17.99,0-29.69,5.4-36.58,14.11v-47.67h-41.38v179.6h-9.68c-10.5.31-14.69-3-15.3-11.09l-.31-4.79v-91.77h21.49v-35.38h-20.87v-39.87l-41.38,14.98v156.84c0,32.99,12.89,47.36,40.76,47.36h66.36v-127.73c0-13.81,3.31-18.29,15.9-20.1,3.3-.3,6.59-.3,9.6.31,11.69,1.79,14.69,5.71,14.69,19.48v128.04h41.08v-135.84c-.28-31.17-7.5-41.37-33.28-45.58h0ZM257.77,750h41.4v-179.31h-41.4v179.31ZM257.48,561.7h42.29v-27.57h-42.29v27.57Z" fill="#fff"/>
</svg>