<?xml version="1.0" encoding="UTF-8" standalone="yes"?>
<svg width="1000" height="1000" viewBox="0 0 1000 1000" version="1.2" baseProfile="tiny-ps" xmlns="http://www.w3.org/2000/svg">
  <title>bimi-svg-tiny-12-ps</title>
  <rect width="1000" height="1000" fill="#6cc4cd"/>
  <path d="M445.4,893.1c-2.1,0-3.9-1.1-5-2-10.7-8.3-14-22.2-15.9-34.6-.2-1.2-.3-2.3-.5-3.5-1.5-10.5-3.1-21.3-9-29.4-.7-.9-1.4-1.7-2.1-2.6-1.9-2.3-3.8-4.6-5.1-7.6-2.6-6-1.6-12.1-.6-18,.5-3.2,1-6.2,1-9.1-.1-4.8-2.2-8-4.8-12-1-1.5-2-3.1-3-4.8-3.4-6.2-4.1-13.9-2.1-23.7,1.4-6.9,3.5-13.7,5.5-20.2.5-1.6,1-3.3,1.5-4.9,1.3-4.3,2.5-8.4,2.7-12.5.2-3-.1-7.4-2.4-10.9-1-1.6-2.5-2.7-3.6-2.7h-.2c-.9,0-2,1-3,2.4-1.9,2.5-3,5.6-4.3,8.9-1.1,2.9-2.2,5.8-3.9,8.6-3.9,6.5-10.3,11.2-17.6,13-1,.3-1.9.5-2.9.7-5.1,1.2-9.5,2.2-13.3,5.4-1.1.9-2.1,2-3.1,3.2-1.3,1.4-2.6,2.9-4.2,4.2-1.5,1.2-3.1,2.1-4.6,3-1.3.7-2.5,1.4-3.5,2.2-3.7,2.9-5.7,7.7-7.9,12.7-2.5,5.9-5.1,12-10.6,16-1,.7-2.9,1.8-5.2,1.8s-3-.5-4.1-1.6c-1.1-1-1.6-2.4-1.9-3.1-1.5-4.1-4-11-1.2-17.1.9-2.1,2.3-3.7,3.5-5.1l8.4-9.9c1.1-1.3,2.2-2.6,3-3.9,2.1-3.4,3.5-7.4,5-11.3.5-1.3,1-2.6,1.4-3.9,2-5.1,5.8-10.1,11.8-15.2,1.1-1,2.3-1.9,3.5-2.8,3.6-2.8,7.1-5.5,8.3-9.1.6-1.7.7-3.7.8-5.8,0-1.8.2-3.6.5-5.5,1.4-7.5,6.7-12.9,10.9-16.2,3.4-2.6,7-4.7,10.5-6.7,1.5-.9,3-1.7,4.6-2.6,1.1-.7,2.2-1.3,2.9-2.2,1.5-1.8,1.5-4.7,1.4-6.3-.7-7.6-5.4-14.6-10-21.4-.5-.7-1-1.4-1.5-2.1-7.2-10.6-10-22.4-8.2-33.9.7-4.2,1.7-8.3,2.7-12.3.9-3.6,1.8-7,2.4-10.4.8-4.4.3-9.4-2.5-10.5-.4-.2-.9-.2-1.4-.2-1.1,0-2.4.3-4.1,1-7.2,2.8-13.5,7.9-17.9,14.2-1.1,1.6-2.1,3.3-3.1,5-2.8,4.8-5.7,9.8-10.7,13.1-3.3,2.2-6.9,3.2-10.4,4.2-2.3.7-4.6,1.3-6.5,2.2-2.9,1.4-5.6,3.5-8.3,5.8-2.5,2.1-5.2,4.2-8.2,5.9-2.6,1.5-5.2,2.2-7.5,2.2s-2.7-.3-3.9-.8c-3.7-1.6-6.1-5.2-7.1-10.6-2.4-13.1,3-27.3,13.5-35.4.6-.5,1.2-.9,1.8-1.4,1.9-1.4,3.7-2.7,4.6-4.3.3-.4.5-1,.7-1.5.5-1.1,1-2.4,1.9-3.6,1.4-1.8,3.1-2.8,4.7-3.8,1.3-.8,2.6-1.5,2.7-2.2v-2.2c-.4-8.1,4.2-16.6,11.8-22,7.2-5.1,15.8-7.1,22.4-8.2.8-.1,1.5-.3,2.3-.4,5.6-.9,10.9-1.8,14.9-4.7,4.8-3.4,7.9-10,8.3-17.9.3-5.5-.5-11-1.3-16.9-.3-2-.6-4-.8-6-1.3-10.9-1.2-21.9.1-32.8.4-2.7.9-5.4,1.4-8.1,1.3-6.9,2.5-13.5.7-20-.7-2.5-1.7-4.8-2.9-7.4-1.1-2.5-2.3-5.1-3.1-8-1.9-6.6-1.6-13.4-1.4-19.9.2-5.6.4-10.9-.7-16-1-4.8-3.2-9.2-5.5-13.9-1.7-3.5-3.4-7-4.7-10.8-4.4-12.8-.6-25.5,2.8-36.6,1.4-4.8,2.9-9.7,5-14.5,1.1-2.5,2.4-5,3.6-7.4,1.7-3.4,3.4-6.5,4.6-9.8,1.8-4.9,2.7-10.5,3.6-15.9,1.7-10.1,3.4-20.6,10.8-28.5,2.3-2.5,4.9-3.8,7.5-3.8s1.3,0,1.9.2c4.5,1.2,6.7,6,5.8,12.5-.4,2.9-.9,5.7-1.4,8.5-1,5.8-1.9,11.3-2.1,16.8-.3,7.9,2.3,13.9,5.2,20.9,1.4,3.2,2.7,6.5,3.9,10.1,2.9,8.9,4.1,18.2,3.7,27.4-.2,3.7-.6,7.3-1,10.9-.6,5.2-1.2,10.1-1,15.1.3,8.4,2.9,16.5,7.5,23.5,1.9,2.8,4,5.5,6.3,8.3,2.5,3.1,5.1,6.2,7.3,9.7,7.3,11.5,4.4,24.1,1.5,32.5-1.8,5.5-1.6,10.9-1.3,16.7.2,4.7.4,9.5-.4,14.6-.3,1.6-.7,3.2-1.1,4.7-.7,2.5-1.3,4.8-1.2,6.9.1,2.4,1.8,4.9,3.3,4.9h.2c1.3-.1,2.7-1.8,4.1-3.5,2-2.4,4.4-5.3,8.2-6,.7-.1,1.4-.2,2.3-.2h2.4c2.5-.1,5-1.7,8-3.9.9-.6,2.1-1.4,3.5-2.3,7.6-4.7,11.6-7.8,12-9.4,0-.4-.1-1-.3-1.7-.2-.8-.4-1.7-.5-2.7-.2-2.5.7-4.7,1.4-6.5l.2-.5c2.2-5.9,3-11.2,2.2-15.9l-.3-1.6c-.9-5.5-1.9-11.1-.7-17.3.6-3.3,1.7-6.4,2.7-9.4,1.4-4,2.8-7.8,2.7-11.7,0-3.8-1.5-7.6-3-11.7-.5-1.2-.9-2.4-1.3-3.6-1.8-5.2-3-10.7-3.6-16.2-.3-2.7-.2-5.3-.1-7.8,0-2.4.1-4.7,0-7-.5-4.7-2.1-9.2-3.7-13.9-1.4-4-2.8-8.1-3.6-12.5-1.8-9.8-.3-19.6,1.2-29,.9-5.7,1.8-11.5,2-17.1,0-3,0-5.9-.2-9.1-.2-4.1-.4-8.3,0-12.6,1-13.1,8.7-20.9,16.2-28.5,3.6-3.6,7.3-7.4,10.2-11.7,2.2-3.2,3.8-6.8,4.7-10.6.5-2,.8-4,1.2-6.1.7-4.3,1.5-8.8,3.7-13,1.2-2.2,2.6-4.1,4-5.9.5-.7,1-1.4,1.5-2,2.6-3.6,4.7-7.6,6.9-11.9,4.3-8.1,8.7-16.6,16.8-21.8,3.7-2.4,7.7-3.7,11.5-3.7s1,0,1.6,0c6.5.6,9.6,3.8,10.9,6.4,3.3,6.1,1.5,15.7-5.5,29.3-.7,1.4-1.5,2.8-2.2,4.2-4.1,7.6-8.3,15.5-8.2,23.8,0,1.8.3,3.7.5,5.6.2,1.8.5,3.7.5,5.6.3,8.9-2.7,17.1-5.6,25.1-1,2.8-2.1,5.7-3,8.5-3.6,11.5-4.4,23.9-2.6,35.8.4,2.6,1,5.3,1.5,7.9,1.7,8.1,3.4,16.5,1.6,24.9-.8,4-2.4,7.6-3.9,11.1-1.3,3.1-2.5,6-3.3,9-1.4,5.9-1,12.8,1.3,18.9,4.4,11.7,7.9,24.2,3.8,36.5-.6,1.8-1.3,3.6-2,5.3-2.1,5.3-4.1,10.3-2.3,14.3.2.4.5.9.8,1.4.7,1.2,1.5,2.5,1.8,4.1.3,1.1.3,2.1.3,2.9,0,.6,0,1.3.2,1.6.3.9,1.4,1.6,2.5,1.8h.5c1.6,0,3.2-.8,4.2-1.4.3-.2.7-.5,1-.7,1.2-.8,2.5-1.7,4.2-2.3,1.8-.6,3.4-.6,4.9-.6s.7,0,1.1,0c4.9-.2,9.7-2.4,14.3-4.5,6.4-2.9,13.8-7.1,14.2-13.2,0-1.2,0-2.4-.3-3.8-.2-1.3-.4-2.6-.4-4,0-4.3,1.4-8.1,2.8-11.8.3-.9.7-1.9,1-2.8,2.1-6.2,1.9-14.1,1.8-21.6,0-3-.1-5.8,0-8.5.3-13.9,4.4-26.9,8.2-39.5,3.5-11.3,6.8-22,7.6-33.1.1-2,0-4-.2-6.2-.3-3.1-.5-6.3,0-9.6.9-5.1,3.4-9.4,5.9-13.5,1-1.6,1.9-3.2,2.7-4.7,2.4-4.7,3.6-9.8,4.9-15.3,2.2-9.1,4.4-18.5,12.3-25.6,1.8-1.7,4.7-3.9,8.4-4.2h.8c3.3,0,6.7,1.7,8.9,4.4,2,2.5,3.1,5.8,3,9.4,0,5-2.1,9.1-3.8,12.8-.9,1.9-1.8,3.7-2.4,5.6-1.8,5.7-2,11.9-2,16.7,0,1.9,0,3.7.1,5.6.2,7.3.5,14.9-1.5,22.4-.7,2.8-1.8,5.5-2.7,8.2l-.6,1.6c-1.5,4.1-3,8.5-4.2,12.8-1,3.5-2,7.3-2.5,11.1-.8,7.4.6,15.2,4,21.8.9,1.8,2,3.7,3,5.4,3.1,5.3,6.4,10.9,6.9,18,.6,7.6-.9,15.9-4.5,26.1-.2.5-.3.9-.5,1.4-.8,2.3-1.6,4.5-1.8,6.6-.1,2.1.6,4.1,1.8,4.8.6.4,1.6.6,2.8.6h.4c8.5-.3,15.1-7.1,18.4-11.2,2.1-2.7,3.9-5.7,5.8-8.8,3.9-6.5,8-13.2,15.3-17.5,8.6-5.1,20-8.7,31.2-10,1.3-.2,2.5-.2,3.5-.2,1.6,0,3,.2,4.3.5,3.4.9,6.1,3.1,7.3,6,2,4.8-.2,11.4-1.9,16.3-.2.6-.4,1.1-.5,1.6-2.3,7-5.6,11.8-10.1,14.9-2,1.4-4.1,2.3-6.2,3.1-2,.9-4,1.7-5.5,2.8-2.2,1.6-3.8,4.1-5.5,6.7-1.6,2.4-3.2,4.8-5.4,7s-4.8,3.7-7.2,5.3c-.6.4-1.3.8-1.9,1.2-3,2-5.8,4.2-8.7,6.6-3.4,2.8-6.9,5.7-11,8-1.8,1-3.5,2-5.3,3-5.5,3-10.6,5.9-15,9.8-10.5,9.5-14.1,25.8-8.1,37,.4.8.8,1.5,1.3,2.3,1.2,2,2.4,4.1,3.1,6.6,1.5,5.2.3,10.4-.8,15-.3,1.2-.6,2.4-.8,3.6-1.9,9.5-.1,19.7,4.8,28,.7,1.1,1.5,2.4,2.4,2.8.3.2.7.2,1,.2,1.4,0,3.1-1,4.3-2.4,1.4-1.8,2.2-4.1,3.1-6.5.3-.9.7-1.8,1-2.7,3.7-9.4,10.7-17.4,19.7-22.5,6.2-3.5,12.2-6.1,18.4-7.7,2.6-.7,4.9-.8,6.5-.8h6.1c1.4,0,2.5,0,3.6-.3,1.2-.2,2.5-.8,3.8-1.4,1.5-.7,3.1-1.4,4.9-1.8,1.1-.3,2.3-.4,3.5-.4,4.5,0,8.7,1.7,12.6,3.5,1.2.6,3.1,1.4,4.4,3.3,1.7,2.5,1.5,4.7,1.1,6.1-1.1,3.6-5.1,5.2-8,6.4-.7.3-1.8.7-2.1.9-.8.7-1.4,2.3-2,4-.7,2-1.5,4.3-3.1,6.2-2.7,3.1-5.8,5.5-8.8,7.9-3.6,2.7-6.9,5.3-9.2,8.8-1.4,2.2-2.6,4.5-3.9,7-.6,1.2-1.2,2.4-1.8,3.5-1.6,3-3.6,6.4-6.7,9.4-5.8,5.6-12.3,11-18.5,16.2-2.9,2.4-5.8,4.8-8.6,7.3-6.2,5.3-12.2,14.3-10.3,23.5.4,2.1,1.3,4.2,2.2,6.4.7,1.6,1.3,3.3,1.8,5,8.3,26.8-3.3,61.5-19.2,81.8l-1,1.3c-2.7,3.5-5.3,6.8-6.8,10.5-1.4,3.7-1.8,7.8-2.2,12.1l-.2,1.8c-.9,10.4-4.4,18.6-8,27.2-.5,1.3-1.1,2.6-1.6,3.9-1.8,4.3-2.5,8.4-2.1,12.3.3,3.4,1.5,6.8,2.8,10.3,1,2.8,2,5.7,2.7,8.8,1.5,7.1.8,14.8-2.1,21.5-.7,1.7-1.6,3.4-2.5,5-.7,1.3-1.4,2.6-1.9,3.9-3.5,7.7-4,16.6-4,25v.8c0,3,0,6-.6,9.2-1.1,6.2-4.1,11.4-7,16.4-2.3,4-4.5,7.8-5.7,11.9-1,3.6-1.3,7.4-1.7,11.4-.1,1.5-.3,3.1-.4,4.6-.6,5.3-1.8,12.1-6.2,17.5-2.6,3.2-5.9,5-9.1,5h-.3c-3.3-.1-6.4-2-9.1-5.4-6.4-8.1-9.1-19.4-8.1-34.6.2-3.1.5-6.2.8-9.2.8-8.2,1.6-16,.4-23.6-.4-2.8-1.1-5.5-1.8-8.4-1-4.1-2.1-8.3-2.4-12.8-.7-9.5,2.3-18.5,5.2-26.1,2.6-6.8,4.2-12.5,4-19.5,0-3.1-.2-6.2-.3-9.3-.2-4.3-.3-8.8-.4-13.2-.3-19.4,2.6-34.1,9.4-47.7,1.5-3.1,3.6-6.2,5.8-9.5,5-7.5,10.5-16.1,9.3-23.6-.3-1.8-1.1-3.6-2-5.5-.8-1.8-1.7-3.7-2.2-5.9-1.5-6.1,0-11.9,1.4-17.5,1-3.8,1.9-7.3,1.9-10.8,0-5.5-3.6-14-7.9-14s-.3,0-.4,0c-1.5.2-4,3.8-5.7,6.2-2.4,3.4-4.8,6.9-8.1,8.5-1.3.6-2.6,1.2-3.9,1.7-2.5,1-4.8,2-6.7,3.5-1.1.9-2,2.3-3,3.8-.9,1.3-1.7,2.6-2.9,3.8-1.3,1.4-2.7,2.5-4.1,3.6-1.2,1-2.4,1.9-3.3,2.9-2.8,3.2-3.7,8.3-2.9,15.2.2,1.6.4,3.1.7,4.7.8,4.8,1.5,9.8.8,15-.7,4.9-2.8,9.3-4.7,13.6-1.7,3.5-3.2,6.9-3.9,10.4-2.1,9.8,1.4,19.3,5,29.4,3.6,9.9,7.2,20.2,5.8,31.3-.3,2.1-.7,4.4-1.4,6.9-1.7,6.8-4.2,13.3-7.4,19.5-1,2-2.1,3.8-3.2,5.7-1.8,3.2-3.5,6.1-4.8,9.3-3.8,8.7-4.8,18.1-5.9,28.1-.3,3.1-.7,6.3-1.1,9.4-.3,2.3-.7,4.7-2.1,6.8-1.6,2.7-4.4,4.3-7.2,4.3s-.8,0-1.2,0c-3.2-.5-5.2-2.9-6.4-4.7-6.3-9.1-8-19.9-9.4-32-.5-4.4-1.1-9.4-.8-14.4,0-1.1.2-2.1.3-3.2.1-1.3.2-2.6.3-3.8.2-8.2-2.8-15.5-6-23.2-1.8-4.5-3.8-9.1-5.1-14-3.9-14.8,1-30.5,5.1-41v-.3c1.1-2.5,2-4.8,2-7,0-1-.2-2.1-.5-3.3-.3-1.3-.5-2.7-.6-4.2-.1-2.9.6-5.6,1.3-8.1.3-1.3.6-2.4.8-3.6.4-2.4,0-5.3-1.5-6.2-.4-.3-.9-.4-1.4-.4-2.2,0-5.3,2-7.9,3.7-2.3,1.5-4.6,2.9-6.8,3.6-1.9.6-3.8,1.1-5.7,1.5-4.3,1-8.3,2-11.4,4.5-4.3,3.4-6.6,9.6-7,18.9-.1,2.4-.2,4.9.4,7.3.5,2.3,1.6,4.5,2.7,6.8.5,1.1,1.1,2.3,1.6,3.4,5.9,13.9,2.6,26.1-1,38.9-.3,1.1-.6,2.2-.9,3.4-.7,2.6-1.4,5.1-1.5,7.5-.4,5.5,1.7,10.9,3.8,16.7,1.5,4,3,8.1,3.8,12.4,1.8,10-.5,19.8-2.7,29.3-1.3,5.5-2.6,11.2-3.1,16.7-.4,5.6,0,11.3.6,17.7l.2,2.1c.9,9.1,1.8,18.5,1.2,27.9,0,1.1-.2,3.7-2.4,5.3-1,.7-2.1,1.1-3.4,1.1h0l.5.9ZM475.9,495.9c-.3,0-1.3.7-2.6,2.9-2.7,4.3-6.9,7.7-13.4,10.7-1.8.8-3.6,1.6-5.3,2.3-3,1.2-5.7,2.3-8.3,3.8-12.9,7.2-15.3,20.7-17.8,35-.3,1.8-.6,3.6-1,5.4-.7,3.6-1.4,7.6-.3,10.9.9,2.6,3,4.8,5.2,7.2,2.5,2.7,5.1,5.5,6.6,9.4s1.4,8,1.1,11.6c0,.9-.1,1.8-.2,2.8-.6,7.6-1.2,15.5,2.4,21.4,1.8,3,4.8,5.3,8.1,6.4.9.3,1.6.4,2.1.4h.5c1.1-.2,2.3-1.2,3.4-2.7.6-.9,1.2-1.9,1.7-3,.6-1.1,1.2-2.2,1.9-3.3,2.9-4.4,7-7.5,11-10.4,3.8-2.8,7.4-5.5,9.5-9.1,1.6-2.7,1.8-5.4,1.9-8.7,0-1.6.2-3.3.4-5.2.2-1.3.4-2.5.6-3.8,1-6,1.9-11.6.8-17.4-.4-2.3-1.1-4.6-1.8-6.8-.9-2.9-1.8-5.9-2.2-9-1-6.9.2-13.6,1.4-20.1.5-3,1-5.7,1.4-8.5.7-6.5-4-21.6-6.9-22.2h-.2ZM564.9,446.9c-1.6,0-3.3.4-5,1.1-2.6,1.1-5,2.8-7.5,4.6l-1.4,1c-3.8,2.7-7.9,5.3-12,7.5l-.5.3c-2.2,1.2-4.3,2.4-5.5,4-1.3,1.8-1.8,4.5-2,6.9-.6,5.5,0,10.9.4,16.5.7,7.3,1.3,14.9-.5,23-1.3,6-.4,12.5,2.5,17.8.5.8,1,1.7,1.5,2.5,1.4,2.3,2.9,4.7,3.6,7.7.7,2.8.5,5.6.4,8v1c-.2,3.3-.1,7,1.4,9.9,1.1,2.2,3.4,3.8,5.3,3.8s.4,0,.6,0c1.8-.3,3.5-1.9,5.3-3.5.5-.5,1-1,1.6-1.4,3.6-3.1,7.8-5.3,11.7-7.4,1.9-1,3.7-2,5.4-3,6.1-3.7,9.7-7.7,10.8-12.1,0-.4.2-.9.3-1.4.7-5-1.6-10.2-3.9-15.7-.5-1.3-1.1-2.6-1.6-3.9-1.3-3.2-2.3-6.6-3.1-9.9-.6-2.6-1.1-5.3-1.6-7.8-.5-2.8-1-5.7-1.4-8.6-.9-7.5-.8-15,.4-22.4,0-.7.2-1.4.3-2.1,1.3-7.4,2-13.7-2.4-15.7-.9-.4-2-.7-3.1-.7h0Z" fill="#090908"/>
  <path d="M445.4,895.9c-2.3,0-4.6-.9-6.8-2.6-11.5-9-15-23.5-17-36.5l-.5-3.5c-1.5-10.1-3-20.6-8.5-28-.6-.8-1.3-1.6-2-2.5-1.9-2.3-4.1-4.9-5.5-8.3-2.9-6.8-1.8-13.6-.8-19.6.5-3.2,1-6,.9-8.6-.1-4-1.9-6.7-4.3-10.5-.9-1.4-2-3.1-3.1-5-3.8-6.8-4.5-15.2-2.4-25.7,1.5-7.1,3.6-13.9,5.6-20.5.5-1.6,1-3.3,1.5-4.9,1.3-4.3,2.4-8.1,2.6-11.9.1-2.6,0-6.2-2-9.2-.4-.6-.8-1-1.1-1.2-.2.2-.6.5-.9,1-1.6,2.2-2.7,5.1-3.9,8.1v.3c-1.2,2.9-2.4,6-4.1,8.9-4.2,7.1-11.3,12.3-19.4,14.4-.9.2-1.9.5-2.8.7-5,1.2-8.9,2.1-12.2,4.8-.9.8-1.8,1.7-2.8,2.9-1.3,1.5-2.7,3.1-4.6,4.6-1.7,1.4-3.5,2.4-5,3.2-1.3.7-2.3,1.3-3.2,2-3.1,2.4-5,6.9-7,11.6-2.5,6-5.4,12.8-11.6,17.2-1.3.9-3.8,2.4-6.9,2.4s-4.5-.8-6.1-2.4c-1.7-1.6-2.3-3.5-2.6-4.3-1.5-4.2-4.4-12.1-1.1-19.2,1.1-2.5,2.7-4.3,3.9-5.8l8.4-9.9c1.1-1.3,2.1-2.4,2.7-3.5,1.9-3.1,3.3-6.9,4.7-10.7l.3-.7c.4-1.1.8-2.3,1.3-3.3,2.2-5.6,6.3-10.9,12.6-16.3,1-.8,2-1.6,3-2.4l.6-.5c3.3-2.6,6.4-5,7.3-7.7.5-1.3.5-3.2.6-5,0-1.9.2-3.9.6-5.9,1.6-8.4,7.4-14.4,12-17.9,3.5-2.7,7.2-4.8,10.8-6.9l.6-.3c1.4-.8,2.7-1.5,4-2.3.6-.4,1.7-1,2.2-1.6.6-.7.8-2.3.7-4.2-.6-6.8-5.1-13.5-9.5-20l-1.5-2.2c-7.6-11.3-10.6-23.7-8.6-36,.7-4.5,1.8-8.7,2.8-12.5v-.5c1-3.3,1.8-6.5,2.3-9.7.8-4.3-.1-7-.7-7.3h-.4c-.7,0-1.8.3-3.1.8-6.6,2.6-12.5,7.3-16.5,13.2-1,1.4-1.9,2.9-2.8,4.6l-.2.3c-2.8,4.8-6,10.3-11.6,14-3.7,2.4-7.7,3.6-11.2,4.6-2.4.7-4.4,1.3-6.1,2.1-2.7,1.3-5.1,3.3-7.7,5.4-2.5,2-5.3,4.3-8.6,6.2-5,2.8-9.9,3.3-14,1.6-3.2-1.4-7.3-4.7-8.8-12.8-2.6-14.1,3.2-29.5,14.5-38.3.5-.4,1-.8,1.6-1.2l.3-.3c1.6-1.1,3.2-2.3,3.8-3.4.2-.3.4-.8.5-1.2.5-1.3,1.2-2.8,2.4-4.3,1.7-2.2,3.8-3.5,5.5-4.5.4-.3,1-.6,1.4-.9v-.9c-.4-9.1,4.6-18.5,13.1-24.6,7.6-5.4,16.6-7.5,23.6-8.7l2.3-.4c5.3-.9,10.3-1.7,13.7-4.2,4.1-2.9,6.7-8.7,7.1-15.7.3-5.2-.5-10.5-1.3-16.2-.3-2.2-.6-4.2-.8-6.2-1.3-11.1-1.3-22.3.1-33.5.4-2.9.9-5.7,1.4-8.2,1.2-6.6,2.4-12.8.8-18.7-.6-2.2-1.5-4.3-2.7-7-1.2-2.6-2.4-5.3-3.2-8.3-2-7-1.8-14-1.5-20.7.2-5.6.4-10.7-.6-15.4-1-4.4-3-8.7-5.2-13.2-1.8-3.6-3.5-7.3-4.9-11.2-4.7-13.7-.7-26.8,2.8-38.4,1.4-4.6,3-9.8,5.2-14.8,1.1-2.5,2.3-4.9,3.7-7.5,1.7-3.3,3.3-6.3,4.4-9.5,1.7-4.7,2.6-10.1,3.5-15.4,1.8-10.6,3.6-21.5,11.5-30.1,2.9-3.1,6.2-4.8,9.6-4.8s1.8.1,2.6.3c5.9,1.6,9,7.7,7.9,15.7-.4,2.6-.8,5.2-1.2,7.7v.9c-1.1,5.4-2,11-2.2,16.5-.3,7.3,2.1,12.7,5,19.6,1.3,3.1,2.8,6.5,4,10.4,3,9.3,4.3,18.8,3.8,28.4-.2,3.8-.7,7.7-1.1,11.1-.6,5.1-1.2,9.9-1,14.6.3,7.9,2.7,15.5,7,22.1,1.7,2.6,3.8,5.1,6,7.8l.2.2c2.6,3.2,5.2,6.4,7.5,10,7.9,12.6,4.8,25.9,1.8,34.9-1.7,5-1.4,10.2-1.2,15.6.2,4.6.5,9.8-.5,15.2-.3,1.6-.7,3.1-1,4.6v.3c-.7,2.2-1.2,4.4-1.2,6.1,0,.7.3,1.4.6,1.8.6-.5,1.3-1.4,1.9-2.1,2.2-2.6,5.1-6.1,9.9-7.1,1.2-.3,2.6-.3,4.1-.2h1.2c1.6,0,3.8-1.5,6.3-3.3.9-.6,2.1-1.4,3.5-2.3h.2c7.5-4.7,9.8-6.8,10.5-7.6,0-.1,0-.2-.1-.4-.3-1-.5-2.1-.6-3.3-.2-3.1.8-5.8,1.6-7.7l.2-.5c2.1-5.4,2.7-10.3,2.1-14.4l-.3-1.6c-1-5.8-1.9-11.6-.7-18.3.6-3.5,1.8-6.7,2.8-9.7,1.4-3.9,2.6-7.4,2.6-10.7s-1.4-6.8-2.8-10.6l-.2-.6c-.4-1.1-.8-2.1-1.2-3.2-1.9-5.4-3.1-11.1-3.7-16.9-.3-2.8-.2-5.5-.1-8v-.2c0-2.2.1-4.5,0-6.6-.5-4.3-2-8.7-3.6-13.3-1.3-3.9-2.9-8.3-3.7-12.9-1.9-10.3-.3-20.3,1.2-30v-.2c.9-5.5,1.8-11.1,1.9-16.5,0-2.9,0-5.9-.2-8.9v-.2c-.2-4.1-.4-8.4,0-12.7,1.1-14.2,9.6-22.8,17.1-30.3,3.5-3.5,7.1-7.1,9.8-11.3,2-3,3.4-6.2,4.3-9.7.5-1.8.8-3.6,1.1-5.8.8-4.6,1.5-9.3,4-13.9,1.3-2.4,2.8-4.4,4.2-6.3.5-.7,1-1.3,1.5-2,2.5-3.5,4.5-7.4,6.7-11.5,4.5-8.5,9-17.3,17.8-22.9,4.8-3.1,10-4.6,14.9-4.1,8.2.8,11.8,5.3,13.2,7.9,3.9,7.1,2.1,17.3-5.5,32.1-.7,1.4-1.5,2.8-2.2,4.2-3.9,7.3-7.9,14.8-7.8,22.4,0,1.6.2,3.3.5,5.3v.2c.3,1.8.5,3.6.5,5.6.4,9.5-2.8,18-5.8,26.2-1.1,2.9-2.1,5.7-2.9,8.4-3.4,11.1-4.3,23.1-2.5,34.5.4,2.4.9,4.9,1.4,7.3v.4c1.8,8.4,3.6,17.1,1.7,26.1-.9,4.2-2.5,8-4,11.6-1.3,3-2.5,5.8-3.2,8.6-1.3,5.4-.9,11.7,1.2,17.2,4.6,12.2,8.2,25.3,3.9,38.4-.6,1.9-1.4,3.8-2.1,5.5-1.9,4.7-3.7,9.1-2.3,12,.1.3.3.6.5.9l.2.3c.7,1.2,1.6,2.8,2.1,4.9.3,1.3.4,2.5.4,3.4v.7h.3c.7,0,1.7-.3,2.7-1,.3-.2.6-.4.9-.6,1.3-.9,2.9-2,5-2.7,2.3-.7,4.3-.7,5.9-.7h.9c4.3-.1,8.8-2.2,13.2-4.2,5.2-2.4,12.2-6.1,12.5-10.8,0-.9,0-2-.3-3.2-.2-1.4-.4-2.8-.4-4.4,0-4.9,1.5-9.1,3-12.9l.2-.6c.3-.7.5-1.4.8-2.1,2-5.7,1.8-13.3,1.6-20.6,0-3-.1-5.9,0-8.7.3-14.3,4.4-27.4,8.4-40.2l2.8.7-2.8-.9c3.4-11.1,6.7-21.6,7.4-32.3.1-1.7,0-3.6-.2-5.8-.3-3.1-.5-6.6,0-10.3,1-5.7,3.6-10.1,6.3-14.5,1-1.7,1.9-3.1,2.6-4.6,2.2-4.3,3.4-9.3,4.7-14.6,2.2-9.2,4.6-19.4,13.2-27.1,2.1-1.9,5.5-4.5,10.1-4.9h1c4.2,0,8.4,2.1,11.1,5.5,2.4,3,3.7,7,3.7,11.2,0,5.7-2.3,10.3-4.1,14-.9,1.9-1.7,3.6-2.3,5.2-1.7,5.3-1.9,11.2-1.8,15.7,0,1.8,0,3.7.1,5.6.2,7.6.5,15.4-1.6,23.2-.8,3-1.8,5.7-2.8,8.4l-.6,1.7c-1.5,4.1-2.9,8.3-4.2,12.6-1,3.4-1.9,7-2.4,10.6-.8,6.9.5,14,3.7,20.2.9,1.8,1.9,3.5,2.9,5.2,3.2,5.4,6.7,11.5,7.3,19.3.6,8-.9,16.7-4.6,27.3-.2.4-.3.9-.5,1.4-.8,2.2-1.5,4.1-1.6,5.8,0,1.1.3,2,.5,2.2h0s.4.1,1.3.1h.4c7.2-.2,13.2-6.4,16.1-10.1,2-2.5,3.7-5.3,5.5-8.2l.2-.3c3.9-6.5,8.4-13.8,16.3-18.5,9-5.3,20.7-9.1,32.3-10.4,1.5-.2,2.7-.3,3.8-.3,1.8,0,3.5.2,5.1.6,4.3,1.2,7.6,3.9,9.2,7.6,2.5,5.8,0,13.1-1.8,18.4v.3c-.2.4-.4.8-.5,1.2-2.5,7.7-6.2,13.1-11.3,16.5-2.3,1.6-4.7,2.6-6.7,3.4-1.9.8-3.6,1.5-4.9,2.5-1.8,1.3-3.3,3.6-4.8,6-1.7,2.6-3.4,5.2-5.8,7.5-2.5,2.4-5.3,4.1-7.7,5.7l-1.9,1.2c-2.9,1.8-5.6,4.1-8.4,6.4-3.5,2.9-7.1,5.8-11.3,8.3-1.6,1-3.2,1.9-4.9,2.8l-.5.3c-5.4,3-10.3,5.7-14.4,9.4-9.6,8.7-12.9,23.4-7.5,33.5.4.7.8,1.4,1.2,2.1,1.2,2.1,2.6,4.4,3.5,7.3,1.7,5.9.3,11.7-.8,16.4-.3,1.2-.6,2.4-.8,3.6-1.7,8.8,0,18.2,4.5,26,.6,1,.9,1.4,1.1,1.6.4-.1,1.2-.5,1.8-1.3,1-1.4,1.8-3.4,2.6-5.6l.2-.5c.3-.8.6-1.7.9-2.5,4-10,11.4-18.5,20.9-23.9,6.4-3.7,12.6-6.3,19.1-8,2.9-.8,5.5-.9,7.3-.9h6.1c1,0,2.2,0,3-.2.8-.1,1.9-.7,3.1-1.2,1.5-.7,3.4-1.5,5.5-2,1.4-.3,2.8-.5,4.2-.5,5.1,0,9.8,2,13.8,3.8,1.5.7,3.9,1.8,5.6,4.4,1.8,2.7,2.3,5.7,1.4,8.5-1.6,4.9-6.5,6.9-9.7,8.2h-.2c-.4.3-.8.4-1.2.6-.3.4-.7,1.8-1,2.6-.8,2.2-1.7,4.9-3.6,7.2-2.9,3.4-6.1,5.9-9.2,8.3-3.4,2.6-6.5,5-8.6,8.2-1.3,2-2.5,4.3-3.7,6.7v.2c-.7,1.1-1.3,2.3-1.8,3.4-1.7,3.2-3.9,6.8-7.2,10.1-6.1,5.9-12.8,11.5-18.7,16.4-2.8,2.4-5.8,4.8-8.6,7.2-5.6,4.8-11,12.8-9.3,20.7.4,1.9,1.2,3.8,2,5.9.7,1.8,1.4,3.4,1.9,5.2,8.6,27.8-3.4,63.5-19.7,84.5l-1.1,1.3c-2.6,3.3-5,6.4-6.3,9.7s-1.6,7.2-2,11.3l-.2,1.8c-1,10.9-4.5,19.2-8.2,28.1l-.3.8c-.4,1-.8,2-1.3,3.1-1.6,3.9-2.2,7.5-1.9,10.9.3,3.1,1.4,6.2,2.6,9.6,1.1,3,2.1,6,2.8,9.2,1.6,7.7.8,16-2.3,23.2-.8,1.8-1.7,3.5-2.6,5.2l-.2.4c-.6,1.1-1.2,2.2-1.7,3.3-3.3,7.2-3.7,15.7-3.7,23.8v.8c0,3.1,0,6.3-.6,9.7-1.2,6.7-4.4,12.1-7.4,17.3-2.2,3.8-4.3,7.5-5.4,11.2-1,3.3-1.3,6.9-1.6,10.7-.1,1.7-.3,3.2-.4,4.8-.6,5.7-2,13-6.8,19-3.2,3.9-7.2,6.1-11.4,6.1h-.3c-4.3-.2-8.1-2.3-11.4-6.5-6.9-8.7-9.8-20.6-8.7-36.6.2-3.1.5-6.3.8-9.3.8-8.1,1.6-15.6.4-22.9-.4-2.6-1.1-5.2-1.8-8-1.1-4.3-2.2-8.7-2.5-13.4-.7-10,2.3-19.4,5.4-27.3,2.5-6.5,4-11.8,3.8-18.4,0-3.1-.2-6.2-.3-9.3v-.7c-.2-4.1-.4-8.4-.4-12.6-.3-19.9,2.7-35,9.7-49,1.6-3.2,3.7-6.3,5.9-9.7,4.7-7.2,10-15.2,8.9-21.6-.2-1.4-1-3-1.7-4.8-.9-2-1.8-4-2.4-6.3-1.7-6.9,0-13.3,1.4-19,.9-3.6,1.8-6.9,1.8-10,0-4.9-3.1-10.7-4.8-11.1-1,.8-3.1,3.8-3.9,4.9-2.6,3.7-5.3,7.5-9.2,9.5-1.4.7-2.8,1.3-4.1,1.8-2.3,1-4.4,1.8-5.9,3.1-.8.6-1.6,1.8-2.4,3.1l-2.6-1.4,2.4,1.6c-.8,1.3-1.8,2.7-3.1,4.1-1.5,1.6-3.1,2.9-4.4,4-1.1.8-2.2,1.7-2.9,2.6-2.2,2.5-2.9,6.9-2.2,12.9.2,1.5.4,2.9.6,4.4v.2c.8,5.1,1.6,10.3.8,15.9-.8,5.3-2.9,9.9-4.9,14.3-1.6,3.5-3.1,6.7-3.8,9.9-1.9,9,1.4,18.1,4.9,27.8,3.7,10.3,7.5,20.9,5.9,32.7-.3,2.2-.8,4.6-1.4,7.3-1.7,6.9-4.3,13.7-7.6,20.1-1,1.9-2,3.7-3,5.4l-.3.6c-1.7,3-3.3,5.8-4.6,8.7-3.6,8.3-4.6,17.5-5.7,27.3-.4,3.4-.7,6.4-1.1,9.5-.3,2.5-.8,5.3-2.5,7.9-2.2,3.5-5.9,5.7-9.7,5.7s-1.1,0-1.7-.1c-4.7-.8-7.4-4.6-8.3-5.9-6.7-9.7-8.4-20.8-9.9-33.4-.5-4.5-1.1-9.6-.8-14.8,0-.9.1-1.8.2-2.6v-.9c.2-1.2.3-2.3.3-3.4.2-7.7-2.7-14.6-5.7-22v-.2c-2-4.5-3.9-9.1-5.2-14.1-4.1-15.6,1-31.9,5.2-42.8v-.4c1-2.2,1.8-4.2,1.8-5.9,0-.7-.2-1.5-.3-2.5v-.3c-.3-1.3-.6-2.9-.7-4.6-.1-3.4.7-6.4,1.4-9,.3-1.3.6-2.4.8-3.4.2-1.4,0-2.7-.2-3.1-1.4,0-4.6,2.1-6.3,3.2-2.4,1.5-4.9,3.1-7.5,4-2,.6-4,1.1-5.9,1.6-3.9,1-7.7,1.8-10.3,3.9-3.6,2.8-5.5,8.3-5.9,16.8-.1,2.2-.1,4.5.3,6.5.4,1.9,1.4,4,2.5,6.2.6,1.2,1.1,2.4,1.6,3.6,6.3,14.8,2.9,27.4-.8,40.8l-.9,3.4c-.7,2.5-1.3,4.8-1.5,7-.3,4.9,1.6,10,3.6,15.5,1.5,4.1,3.1,8.3,4,12.9,2,10.6-.4,20.7-2.7,30.5v.2c-1.3,5.3-2.6,10.8-3,16.1-.4,5.5,0,11.3.6,17.2l.2,2.1c.9,9.4,1.8,18.8,1.2,28.4,0,1.2-.3,5-3.5,7.4-1.5,1.2-3.3,1.8-5.2,1.8h0l-.1.1ZM401.9,691.9h.1c2.7,0,4.9,2,6.2,4,2.8,4.2,3.1,9.2,2.9,12.7-.3,4.4-1.5,8.7-2.8,13.2-.5,1.6-1,3.3-1.5,4.9-2,6.5-4.1,13.1-5.5,19.9-1.9,9.1-1.3,16.2,1.8,21.7,1,1.7,2,3.3,2.9,4.7,2.6,4,5.1,7.8,5.2,13.5,0,3.1-.5,6.3-1,9.6-1,5.9-1.9,11.3.4,16.5,1.1,2.6,2.8,4.7,4.6,6.9.8.9,1.5,1.8,2.2,2.7,6.4,8.7,8,19.9,9.6,30.7l.5,3.5c1.8,11.9,4.9,25,14.8,32.7,1.2.9,3.4,1.9,4.8.8,1-.7,1.2-2,1.2-3.2.6-9.1-.3-18.4-1.2-27.3l-.2-2.3c-.6-6.2-1.1-12.2-.6-18.2.4-5.7,1.8-11.4,3.1-16.9v-.2c2.2-9.2,4.5-18.6,2.7-28.1-.8-4.1-2.3-8.1-3.7-11.9-2.3-6.1-4.4-11.8-4-17.9.2-2.7.9-5.5,1.6-8.1l.9-3.4c3.6-12.9,6.6-24,1.1-37-.5-1.1-1-2.2-1.5-3.3-1.1-2.4-2.3-4.9-2.9-7.4-.6-2.7-.5-5.4-.4-8,.5-10.2,3.1-17.1,8.1-21,3.6-2.9,8.1-4,12.5-5,1.9-.4,3.7-.9,5.5-1.5,1.9-.6,4-1.9,6.2-3.3,3.6-2.3,6.7-4.1,9.5-4.1s2,.3,2.9.8c3,1.7,3.5,6,2.9,9.2-.2,1.2-.5,2.4-.9,3.7-.7,2.6-1.3,4.9-1.2,7.4,0,1.3.3,2.6.5,3.8v.4c.3,1.2.5,2.3.5,3.5,0,2.7-1,5.4-2,8v.4c-4,10.1-8.8,25.2-5.1,39.2,1.2,4.7,3.1,9.1,4.8,13.4v.2c3.4,8,6.5,15.5,6.3,24.3,0,1.2-.1,2.5-.3,3.8v.9c-.1.8-.2,1.6-.3,2.4-.3,4.8.3,9.6.8,13.9,1.4,11.8,3,22.2,8.9,30.7,1,1.4,2.4,3.2,4.5,3.5h.7c1.8,0,3.6-1.1,4.7-2.9,1-1.7,1.4-3.7,1.7-5.7.4-3,.8-6,1.1-9.3,1.1-10.2,2.2-19.9,6.1-29,1.4-3.2,3.1-6.2,4.8-9.3l.3-.6c1-1.7,2-3.4,2.9-5.2,3.1-6,5.5-12.4,7.2-18.9.6-2.5,1-4.6,1.3-6.6,1.4-10.4-2.2-20.3-5.6-29.9-3.8-10.5-7.3-20.4-5.1-31,.8-3.8,2.5-7.5,4.1-11,1.9-4.1,3.8-8.3,4.5-12.8.7-4.7,0-9.5-.8-14v-.3c-.3-1.6-.5-3.1-.7-4.7-.9-7.8.3-13.6,3.6-17.4,1.1-1.3,2.5-2.4,3.7-3.3,1.3-1,2.6-2,3.7-3.3,1-1.1,1.7-2.2,2.5-3.4l.2-.2c1-1.5,2.1-3.1,3.5-4.3,2.1-1.8,4.8-2.9,7.3-4,1.3-.5,2.5-1,3.8-1.7,2.6-1.3,4.9-4.5,7-7.6,3.4-4.9,5.3-7.1,7.6-7.4h.8c7,0,10.7,11,10.7,16.9,0,3.8-.9,7.5-1.9,11.4-1.4,5.3-2.8,10.8-1.4,16.2.5,1.8,1.2,3.5,2.1,5.4.9,2,1.8,4,2.2,6.2,1.5,8.6-4.5,17.7-9.7,25.6-2.2,3.3-4.1,6.3-5.6,9.2-6.6,13.1-9.4,27.4-9.1,46.3,0,4.2.2,8.4.4,12.5v.7c.2,3.1.3,6.2.4,9.4.2,7.5-1.5,13.5-4.2,20.6-2.8,7.3-5.6,16-5,24.9.3,4.2,1.3,8.3,2.3,12.2.8,3,1.5,5.8,1.9,8.6,1.3,8,.5,15.9-.3,24.3-.3,3-.6,6.1-.8,9.2-1,14.5,1.5,25.1,7.5,32.6,2.2,2.8,4.6,4.3,7,4.3h.2c2.4,0,4.8-1.4,6.9-3.9,3.9-4.8,5-11.1,5.5-16,.2-1.5.3-3,.4-4.5.4-4.3.7-8.2,1.8-12,1.3-4.4,3.5-8.4,5.9-12.5,2.8-4.8,5.6-9.8,6.7-15.5.5-2.9.5-5.8.5-8.6v-.8c0-8.7.5-17.9,4.2-26.1.5-1.2,1.2-2.4,1.8-3.6l.2-.4c.8-1.6,1.7-3.2,2.4-4.8,2.6-6.2,3.3-13.2,2-19.7-.6-2.9-1.6-5.6-2.6-8.3-1.4-3.9-2.6-7.4-3-11.1-.4-4.3.3-8.9,2.3-13.7.4-1,.9-2.1,1.3-3.1l.3-.8c3.5-8.5,6.9-16.4,7.8-26.4l.2-1.8c.4-4.4.7-8.9,2.3-12.9,1.6-4.1,4.3-7.5,7.2-11.2l1.1-1.3c15.4-19.8,26.7-53.3,18.7-79.2-.5-1.6-1.1-3.1-1.8-4.7-.9-2.2-1.8-4.5-2.3-6.9-2.1-10.4,4.4-20.4,11.2-26.3,2.8-2.4,5.8-4.9,8.6-7.3,5.9-4.9,12.5-10.4,18.4-16.1,2.8-2.7,4.7-5.9,6.1-8.6.6-1.1,1.1-2.2,1.7-3.3v-.2c1.4-2.6,2.6-5,4.1-7.3,2.6-4,6.3-6.8,9.9-9.6,2.9-2.3,5.9-4.6,8.4-7.5,1.3-1.5,1.9-3.4,2.6-5.3.7-2.2,1.4-4.2,2.9-5.4l.2-.2c.5-.3,1.1-.6,2.3-1.1h.2c2.5-1.1,5.7-2.4,6.4-4.7.3-1.1,0-2.3-.7-3.6-.8-1.2-2.1-1.8-3.1-2.3-3.6-1.7-7.5-3.3-11.4-3.3s-2,.1-2.9.3c-1.5.4-3,1-4.4,1.6-1.5.7-2.9,1.3-4.5,1.6-1.2.2-2.5.3-4.1.3h-6c-1,0-3.5,0-5.8.7-6,1.6-11.7,4.1-17.7,7.5-8.4,4.8-14.9,12.3-18.4,21-.3.8-.6,1.5-.9,2.3v.3c-1.1,2.7-2,5.3-3.6,7.3-2.3,2.9-6.1,4.4-8.9,3-1.6-.8-2.7-2.4-3.6-4-5.3-8.9-7.1-19.9-5.1-30.1.3-1.2.5-2.5.8-3.7,1.1-4.5,2.2-9.1.9-13.5-.6-2.2-1.8-4.1-2.8-5.9-.5-.8-.9-1.6-1.4-2.4-6.6-12.4-2.7-30.2,8.8-40.5,4.6-4.2,9.8-7.1,15.4-10.2l.6-.3c1.6-.9,3.2-1.8,4.8-2.7,3.8-2.3,7.3-5.1,10.6-7.8,3-2.5,5.8-4.8,9-6.8l1.9-1.2c2.3-1.4,4.7-2.9,6.7-4.9,1.9-1.9,3.4-4.2,4.9-6.4,1.8-2.8,3.7-5.6,6.2-7.6,1.8-1.4,3.9-2.3,6-3.1,1.9-.8,3.9-1.6,5.8-2.9,4-2.7,6.9-7,9-13.4.1-.4.3-.9.5-1.4v-.3c1.5-4.2,3.7-10.5,2-14.2-.9-2.1-2.9-3.6-5.4-4.3-1.1-.3-2.3-.4-3.6-.4s-1.9,0-3.2.2c-10.8,1.3-21.8,4.8-30.1,9.6-6.7,3.9-10.6,10.3-14.3,16.5l-.2.3c-1.9,3.1-3.7,6.1-5.9,8.8-3.5,4.5-10.9,12-20.6,12.3h-.5c-1.8,0-3.2-.3-4.3-1-2.2-1.3-3.4-4.2-3.2-7.5.2-2.5,1-4.9,1.9-7.3.2-.6.4-1,.5-1.5,3.5-9.8,4.9-17.8,4.3-25-.5-6.5-3.5-11.7-6.5-16.7-1.1-1.8-2.2-3.7-3.1-5.6-3.6-7.1-5.1-15.4-4.2-23.4.5-4.1,1.5-8,2.6-11.6,1.3-4.4,2.7-8.8,4.3-13l.6-1.6c1-2.6,2-5.2,2.6-7.9,1.8-7,1.6-14.4,1.4-21.5,0-1.9-.1-3.8-.1-5.7,0-5,.1-11.5,2.1-17.6.6-2,1.5-3.8,2.5-5.8,1.8-3.7,3.6-7.4,3.6-11.7,0-2.9-.8-5.6-2.4-7.5-1.7-2.1-4.3-3.3-6.8-3.3h-.4c-2.9.2-5.2,2.1-6.7,3.4-7.2,6.5-9.2,15-11.4,24.1-1.4,5.7-2.6,11-5.2,16-.8,1.6-1.8,3.2-2.7,4.8-2.5,4.2-4.8,8-5.6,12.6-.5,3-.3,6,0,8.9.2,2.5.3,4.5.2,6.7-.8,11.4-4.1,22.2-7.6,33.6v.2c-3.9,12.4-7.9,25.1-8.2,38.6v8.4c.2,7.9.4,16-1.9,22.7-.3.8-.5,1.5-.8,2.3l-.2.6c-1.4,3.6-2.7,7-2.6,10.8,0,1.2.2,2.4.4,3.7.2,1.5.4,2.9.3,4.4-.5,7.7-8.7,12.4-15.9,15.7-4.7,2.1-9.9,4.6-15.4,4.7-1.6,0-3.4-.1-5.2.5-1.3.4-2.4,1.2-3.4,1.9-.4.3-.8.5-1.1.8-1.5,1-4.1,2.2-6.7,1.8-2.3-.3-4.4-1.9-4.9-3.8-.2-.7-.3-1.6-.3-2.3,0-.8,0-1.6-.3-2.4-.3-1.3-.9-2.3-1.5-3.4l-.2-.4c-.3-.5-.5-.9-.7-1.3-2.4-5.2,0-11,2.2-16.6.6-1.6,1.4-3.4,2-5.1,3.8-11.4.4-23.4-3.8-34.6-2.5-6.6-3-14.2-1.4-20.6.8-3.3,2.1-6.4,3.4-9.4,1.5-3.4,2.9-6.9,3.7-10.6,1.7-7.9,0-15.9-1.6-23.7v-.5c-.6-2.5-1.1-5.1-1.5-7.6-1.9-12.3-1-25.2,2.7-37.1.9-2.9,1.9-5.7,3-8.7,2.8-7.7,5.8-15.6,5.4-24,0-1.7-.3-3.5-.5-5.1v-.2c-.3-2.1-.5-4-.5-5.9,0-9.1,4.3-17.3,8.5-25.2.7-1.4,1.5-2.8,2.2-4.1,6.5-12.5,8.4-21.5,5.6-26.6-1-1.9-3.4-4.4-8.7-4.9h-1.3c-3.2,0-6.7,1.1-9.9,3.2-7.5,4.9-11.7,12.9-15.8,20.7-2.2,4.2-4.4,8.5-7.1,12.2-.5.7-1,1.4-1.6,2.1-1.3,1.7-2.7,3.5-3.7,5.5-2,3.8-2.7,8-3.4,12.2-.4,2.4-.7,4.3-1.2,6.3-1,4.1-2.8,8-5.1,11.5-3.1,4.6-7,8.6-10.5,12.1-7.4,7.5-14.5,14.6-15.4,26.7-.3,4-.1,8.1,0,12v.2c.1,3,.3,6.1.2,9.3-.1,5.7-1.1,11.6-2,17.3v.2c-1.5,9.2-3,18.7-1.3,28.1.8,4.2,2.2,8.4,3.5,12.1,1.7,4.9,3.3,9.6,3.8,14.6.3,2.5.2,5,.1,7.3v.2c0,2.4-.1,4.8,0,7.3.5,5.4,1.7,10.6,3.4,15.6.4,1,.7,2,1.1,3l.2.5c1.6,4.3,3.2,8.3,3.2,12.7s-1.4,8.3-2.9,12.6c-1,2.9-2.1,5.9-2.6,8.9-1,5.7-.1,11.1.7,16.2l.3,1.7c.9,5.2,0,11-2.4,17.4l-.2.5c-.6,1.6-1.3,3.4-1.2,5.3,0,.7.2,1.4.4,2.1.2.9.4,1.7.4,2.6v.6c-.5,1.8-1.9,4.2-13.3,11.2h-.2c-1.3.9-2.5,1.6-3.2,2.1-3.2,2.3-6.2,4.2-9.5,4.4h-2.5c-.7,0-1.2,0-1.7.1-2.8.6-4.8,3-6.6,5.1-1.9,2.2-3.6,4.3-6,4.5h-.3c-3.7,0-6.3-4-6.4-7.6-.1-2.6.6-5.3,1.3-7.8v-.3c.4-1.3.8-2.7,1-4.1.8-4.8.6-9.5.4-14-.3-5.8-.6-11.7,1.5-17.7,2.6-7.9,5.4-19.5-1.2-30-2.1-3.3-4.6-6.4-7-9.3l-.2-.3c-2.3-2.8-4.4-5.4-6.3-8.3-4.9-7.5-7.6-16.1-8-25-.2-5.2.4-10.2,1.1-15.5.4-3.5.9-7.1,1-10.7.4-8.9-.8-17.8-3.5-26.4-1.2-3.6-2.6-6.9-3.8-9.9-3-7-5.7-13.6-5.4-22.1.2-5.8,1.2-11.6,2.1-17.2v-.9c.6-2.5,1-5,1.3-7.5.5-3.9-.1-8.4-3.7-9.4-.3,0-.7-.1-1.1-.1-1.7,0-3.6,1-5.4,2.9-6.8,7.3-8.4,17.3-10,27-.9,5.6-1.9,11.3-3.7,16.5-1.3,3.5-3,6.8-4.7,10.2-1.3,2.5-2.5,4.8-3.5,7.2-2.1,4.7-3.6,9.7-4.9,14.1-3.3,10.8-6.9,22.9-2.8,34.9,1.2,3.6,2.9,7.1,4.6,10.5,2.4,4.9,4.6,9.5,5.7,14.6,1.2,5.5,1,11.2.8,16.7-.2,6.4-.5,12.9,1.3,19,.8,2.6,1.9,5.2,3,7.6,1,2.4,2.2,5,3,7.8,2,7.2.7,14-.7,21.2-.5,2.5-1,5.2-1.3,7.9-1.4,10.7-1.4,21.5-.1,32.1.2,2,.5,4,.8,6,.9,6.1,1.7,11.7,1.3,17.5-.5,8.8-4,16.2-9.5,20.1-4.6,3.3-10.1,4.2-16,5.2l-2.4.4c-6.4,1.1-14.6,3-21.2,7.7-6.9,4.9-11,12.4-10.7,19.6v.7c.1,1,.1,1.7,0,2.4-.5,1.8-2.2,2.8-4,3.9-1.5.9-3,1.8-4,3.1-.7.9-1.1,1.9-1.6,2.9-.3.7-.5,1.3-.9,1.9-1.2,2.1-3.3,3.7-5.4,5.2l-.4.3c-.5.3-1,.7-1.4,1-9.7,7.5-14.6,20.6-12.4,32.6.6,3.1,2,7,5.4,8.5,2.4,1,5.5.6,8.9-1.3,2.8-1.6,5.4-3.6,7.8-5.6,2.8-2.3,5.6-4.6,8.9-6.2,2.1-1,4.3-1.7,7-2.4,3.3-.9,6.7-1.9,9.6-3.8,4.4-2.9,7.1-7.6,9.8-12.1l.2-.3c1-1.7,1.9-3.3,3-4.9,4.7-6.9,11.5-12.3,19.2-15.3,3.3-1.3,5.7-1.5,7.6-.8,4.6,1.8,5.3,8.2,4.3,13.7-.6,3.4-1.4,6.7-2.3,10.1v.5c-1.1,3.7-2.1,7.8-2.8,12-1.7,10.8,1,21.8,7.7,31.9l1.4,2.1c4.8,7.1,9.8,14.4,10.5,22.8.2,2.5,0,6-2,8.4-1,1.2-2.3,2-3.6,2.8-1.4.8-2.8,1.6-4.2,2.4l-.5.3c-3.5,2-7,4-10.2,6.4-3.8,3-8.6,7.8-9.9,14.4-.3,1.7-.4,3.4-.5,5-.1,2.3-.2,4.5-.9,6.6-1.5,4.4-5.4,7.5-9.2,10.4l-.6.5c-.9.7-1.9,1.5-2.8,2.3-5.6,4.8-9.2,9.4-11,14-.4,1.1-.8,2.1-1.2,3.2l-.2.6c-1.5,4.1-3,8.2-5.2,11.8-.9,1.5-2,2.7-3.1,4.1v.2c-.1,0-8.5,9.9-8.5,9.9-1.1,1.3-2.3,2.7-3.1,4.4-2.3,5-.1,10.9,1.3,14.9.2.6.5,1.4,1.2,2,.6.5,1.3.8,2.1.8,1.5,0,3-.9,3.5-1.3,4.9-3.5,7.2-9,9.6-14.8,2.2-5.2,4.4-10.5,8.8-13.9,1.1-.9,2.4-1.7,3.9-2.5,1.3-.8,2.8-1.6,4.2-2.7,1.5-1.2,2.7-2.5,3.8-3.9,1.1-1.3,2.2-2.5,3.4-3.5,4.3-3.6,9.3-4.8,14.5-6,1-.2,1.9-.4,2.8-.7,6.6-1.7,12.4-5.9,15.8-11.7,1.5-2.5,2.6-5.3,3.6-8v-.2c1.4-3.5,2.7-6.8,4.7-9.6,1.1-1.5,2.9-3.3,5.1-3.5h.1v.1-.6ZM427,457.7h0ZM452.5,629c-.9,0-1.9-.2-3-.6-4-1.3-7.5-4.1-9.6-7.6-4.1-6.7-3.5-15-2.8-23.1,0-.9.1-1.7.2-2.5v-.3c.2-3.2.4-7-.9-10.4-1.2-3.3-3.5-5.8-6-8.4-2.4-2.6-4.8-5.1-5.8-8.3-1.4-4-.5-8.6.2-12.4.2-1.2.4-2.5.7-3.7l.3-1.7c2.5-14.4,5.1-29.2,19.2-37.1,2.7-1.5,5.5-2.7,8.4-3.9h.2c1.7-.8,3.5-1.5,5.2-2.3,5.9-2.7,9.7-5.7,12.1-9.6,1.1-1.7,2.7-3.9,4.5-4.2h.6c0-.1.6,0,.6,0,5.8,1.2,9.9,19.4,9.2,25.4-.3,2.8-.8,5.6-1.3,8.6l-2.9-.3,2.9.5c-1.1,6.3-2.3,12.7-1.3,19.1.4,3,1.3,5.8,2.2,8.6.7,2.3,1.4,4.7,1.9,7.1,1.2,6.2.2,12.1-.7,18.2l-.2,1.2c-.1.9-.3,1.8-.4,2.7-.3,1.7-.3,3.3-.4,4.8-.2,3.5-.3,6.8-2.3,10.1-2.4,4.1-6.2,6.9-10.2,9.8-3.9,2.9-7.8,5.8-10.4,9.8-.7,1-1.2,2-1.8,3.1v.2c-.7,1.1-1.2,2.1-1.9,3-1.5,2.2-3.3,3.6-5.2,3.9h-1l-.3.3ZM475.8,500.2s0,.1-.1.2c-3,4.8-7.7,8.6-14.6,11.8-1.8.8-3.7,1.6-5.4,2.3h-.2c-2.8,1.2-5.4,2.3-7.8,3.6-11.8,6.6-13.9,18.8-16.4,33l-.3,1.7c-.2,1.3-.4,2.5-.7,3.8-.6,3.2-1.3,6.9-.4,9.4.7,2,2.5,4,4.5,6.1,2.7,2.9,5.6,6.1,7.2,10.4,1.7,4.5,1.5,9,1.3,12.8v.3c0,.8-.1,1.7-.2,2.5-.5,7.2-1.1,14.6,2,19.7,1.5,2.4,3.8,4.3,6.5,5.2.8.3,1.1.3,1.2.3h0c.1,0,.7-.4,1.4-1.5.5-.7,1-1.6,1.5-2.5v-.2c.7-1.1,1.3-2.3,2.1-3.5,3.2-4.9,7.5-8.1,11.7-11.2,3.6-2.7,6.9-5.2,8.8-8.2,1.3-2.1,1.4-4.2,1.5-7.3,0-1.8.2-3.5.5-5.5.1-.9.3-1.8.4-2.8l.2-1c.9-5.8,1.8-11.2.8-16.4-.4-2.1-1-4.3-1.7-6.5-.9-2.9-1.9-6.1-2.3-9.5-1.1-7.3.2-14.3,1.4-21v-.3c.6-2.8,1-5.5,1.3-8.2.5-4.5-2.1-13.7-4.1-17.6h0l-.1.1ZM545.7,565.5c-3.1,0-6.2-2.2-7.9-5.3-1.8-3.6-1.9-7.8-1.8-11.4v-1c.2-2.4.3-4.8-.3-7.2-.6-2.6-2-4.8-3.3-6.9l-.2-.3c-.5-.8-.9-1.6-1.4-2.3-3.2-6-4.2-13.2-2.8-19.8,1.7-7.6,1-15,.4-22.1-.5-5.8-1-11.2-.4-17,.3-2.8.8-6,2.6-8.3,1.6-2.1,4-3.4,6.4-4.7l.6-.3c4-2.2,7.9-4.7,11.7-7.4l1.4-1c2.7-1.9,5.2-3.7,8-4.9,3.6-1.6,7.4-1.8,10.4-.4,6.8,3.1,5.2,12.2,4.1,18.9-.1.7-.2,1.4-.3,2-1.2,7.2-1.3,14.4-.4,21.6.4,2.8.9,5.6,1.4,8.5.5,2.6.9,5.2,1.6,7.7.8,3.2,1.8,6.4,3,9.6.4,1,.8,1.9,1.2,2.8l.4,1c2.5,5.9,4.9,11.5,4.1,17.2,0,.6-.2,1.1-.3,1.7-1.3,5.2-5.4,9.8-12.1,13.9-1.7,1-3.5,2-5.5,3.1-3.8,2-7.8,4.2-11.2,7.1-.4.3-.8.7-1.1,1l-.4.4c-2,1.8-4.2,3.8-6.7,4.2h-1.1l-.1-.4ZM564.9,449.8c-1.2,0-2.5.3-3.8.9-2.3,1-4.5,2.6-6.8,4.3l-1.5,1.1c-4,2.8-8.1,5.4-12.3,7.7l-.5.3c-2,1.1-3.8,2.1-4.6,3.2-.9,1.3-1.3,3.6-1.5,5.4-.5,5.3,0,10.4.4,15.9.7,7.6,1.4,15.4-.5,23.9-1.2,5.3-.4,11.1,2.2,15.8.4.7.8,1.4,1.2,2.1l.2.3c1.5,2.4,3.1,5.1,4,8.5.8,3.2.6,6.4.5,8.9v1c-.2,2.9-.1,6.1,1.1,8.5.7,1.4,2.1,2.2,2.7,2.2,1-.2,2.7-1.6,4-2.8l.4-.3c.4-.4.8-.8,1.3-1.1,3.9-3.3,8.1-5.6,12.2-7.8,2-1.1,3.7-2,5.3-2.9,5.4-3.2,8.6-6.7,9.5-10.3,0-.3.2-.7.2-1.1.5-4.2-1.5-9-3.7-14.2l-.4-1c-.4-1-.8-2-1.2-3-1.3-3.4-2.4-6.9-3.3-10.3-.6-2.7-1.1-5.3-1.6-7.8-.6-3.1-1.1-5.9-1.5-8.9-1-7.8-.8-15.6.4-23.3.1-.7.2-1.4.4-2.1,1.2-7,1.5-11.6-.8-12.6-.5-.3-1.2-.4-1.9-.4h0l-.1-.1Z" fill="#090908"/>
  <path d="M445.4,895.9c-2.3,0-4.6-.9-6.8-2.6-11.5-9-15-23.5-17-36.5l-.5-3.5c-1.5-10.1-3-20.6-8.5-28-.6-.8-1.3-1.6-2-2.5-1.9-2.3-4.1-4.9-5.5-8.3-2.9-6.8-1.8-13.6-.8-19.6.5-3.2,1-6,.9-8.6-.1-4-1.9-6.7-4.3-10.5-.9-1.4-2-3.1-3.1-5-3.8-6.8-4.5-15.2-2.4-25.7,1.5-7.1,3.6-13.9,5.6-20.5.5-1.6,1-3.3,1.5-4.9,1.3-4.3,2.4-8.1,2.6-11.9.1-2.6,0-6.2-2-9.2-.4-.6-.8-1-1.1-1.2-.2.2-.6.5-.9,1-1.6,2.2-2.7,5.1-3.9,8.1v.3c-1.2,2.9-2.4,6-4.1,8.9-4.2,7.1-11.3,12.3-19.4,14.4-.9.2-1.9.5-2.8.7-5,1.2-8.9,2.1-12.2,4.8-.9.8-1.8,1.7-2.8,2.9-1.3,1.5-2.7,3.1-4.6,4.6-1.7,1.4-3.5,2.4-5,3.2-1.3.7-2.3,1.3-3.2,2-3.1,2.4-5,6.9-7,11.6-2.5,6-5.4,12.8-11.6,17.2-1.3.9-3.8,2.4-6.9,2.4s-4.5-.8-6.1-2.4c-1.7-1.6-2.3-3.5-2.6-4.3-1.5-4.2-4.4-12.1-1.1-19.2,1.1-2.5,2.7-4.3,3.9-5.8l8.4-9.9c1.1-1.3,2.1-2.4,2.7-3.5,1.9-3.1,3.3-6.9,4.7-10.7l.3-.7c.4-1.1.8-2.3,1.3-3.3,2.2-5.6,6.3-10.9,12.6-16.3,1-.8,2-1.6,3-2.4l.6-.5c3.3-2.6,6.4-5,7.3-7.7.5-1.3.5-3.2.6-5,0-1.9.2-3.9.6-5.9,1.6-8.4,7.4-14.4,12-17.9,3.5-2.7,7.2-4.8,10.8-6.9l.6-.3c1.4-.8,2.7-1.5,4-2.3.6-.4,1.7-1,2.2-1.6.6-.7.8-2.3.7-4.2-.6-6.8-5.1-13.5-9.5-20l-1.5-2.2c-7.6-11.3-10.6-23.7-8.6-36,.7-4.5,1.8-8.7,2.8-12.5v-.5c1-3.3,1.8-6.5,2.3-9.7.8-4.3-.1-7-.7-7.3h-.4c-.7,0-1.8.3-3.1.8-6.6,2.6-12.5,7.3-16.5,13.2-1,1.4-1.9,2.9-2.8,4.6l-.2.3c-2.8,4.8-6,10.3-11.6,14-3.7,2.4-7.7,3.6-11.2,4.6-2.4.7-4.4,1.3-6.1,2.1-2.7,1.3-5.1,3.3-7.7,5.4-2.5,2-5.3,4.3-8.6,6.2-5,2.8-9.9,3.3-14,1.6-3.2-1.4-7.3-4.7-8.8-12.8-2.6-14.1,3.2-29.5,14.5-38.3.5-.4,1-.8,1.6-1.2l.3-.3c1.6-1.1,3.2-2.3,3.8-3.4.2-.3.4-.8.5-1.2.5-1.3,1.2-2.8,2.4-4.3,1.7-2.2,3.8-3.5,5.5-4.5.4-.3,1-.6,1.4-.9v-.9c-.4-9.1,4.6-18.5,13.1-24.6,7.6-5.4,16.6-7.5,23.6-8.7l2.3-.4c5.3-.9,10.3-1.7,13.7-4.2,4.1-2.9,6.7-8.7,7.1-15.7.3-5.2-.5-10.5-1.3-16.2-.3-2.2-.6-4.2-.8-6.2-1.3-11.1-1.3-22.3.1-33.5.4-2.9.9-5.7,1.4-8.2,1.2-6.6,2.4-12.8.8-18.7-.6-2.2-1.5-4.3-2.7-7-1.2-2.6-2.4-5.3-3.2-8.3-2-7-1.8-14-1.5-20.7.2-5.6.4-10.7-.6-15.4-1-4.4-3-8.7-5.2-13.2-1.8-3.6-3.5-7.3-4.9-11.2-4.7-13.7-.7-26.8,2.8-38.4,1.4-4.6,3-9.8,5.2-14.8,1.1-2.5,2.3-4.9,3.7-7.5,1.7-3.3,3.3-6.3,4.4-9.5,1.7-4.7,2.6-10.1,3.5-15.4,1.8-10.6,3.6-21.5,11.5-30.1,2.9-3.1,6.2-4.8,9.6-4.8s1.8.1,2.6.3c5.9,1.6,9,7.7,7.9,15.7-.4,2.6-.8,5.2-1.2,7.7v.9c-1.1,5.4-2,11-2.2,16.5-.3,7.3,2.1,12.7,5,19.6,1.3,3.1,2.8,6.5,4,10.4,3,9.3,4.3,18.8,3.8,28.4-.2,3.8-.7,7.7-1.1,11.1-.6,5.1-1.2,9.9-1,14.6.3,7.9,2.7,15.5,7,22.1,1.7,2.6,3.8,5.1,6,7.8l.2.2c2.6,3.2,5.2,6.4,7.5,10,7.9,12.6,4.8,25.9,1.8,34.9-1.7,5-1.4,10.2-1.2,15.6.2,4.6.5,9.8-.5,15.2-.3,1.6-.7,3.1-1,4.6v.3c-.7,2.2-1.2,4.4-1.2,6.1,0,.7.3,1.4.6,1.8.6-.5,1.3-1.4,1.9-2.1,2.2-2.6,5.1-6.1,9.9-7.1,1.2-.3,2.6-.3,4.1-.2h1.2c1.6,0,3.8-1.5,6.3-3.3.9-.6,2.1-1.4,3.5-2.3h.2c7.5-4.7,9.8-6.8,10.5-7.6,0-.1,0-.2-.1-.4-.3-1-.5-2.1-.6-3.3-.2-3.1.8-5.8,1.6-7.7l.2-.5c2.1-5.4,2.7-10.3,2.1-14.4l-.3-1.6c-1-5.8-1.9-11.6-.7-18.3.6-3.5,1.8-6.7,2.8-9.7,1.4-3.9,2.6-7.4,2.6-10.7s-1.4-6.8-2.8-10.6l-.2-.6c-.4-1.1-.8-2.1-1.2-3.2-1.9-5.4-3.1-11.1-3.7-16.9-.3-2.8-.2-5.5-.1-8v-.2c0-2.2.1-4.5,0-6.6-.5-4.3-2-8.7-3.6-13.3-1.3-3.9-2.9-8.3-3.7-12.9-1.9-10.3-.3-20.3,1.2-30v-.2c.9-5.5,1.8-11.1,1.9-16.5,0-2.9,0-5.9-.2-8.9v-.2c-.2-4.1-.4-8.4,0-12.7,1.1-14.2,9.6-22.8,17.1-30.3,3.5-3.5,7.1-7.1,9.8-11.3,2-3,3.4-6.2,4.3-9.7.5-1.8.8-3.6,1.1-5.8.8-4.6,1.5-9.3,4-13.9,1.3-2.4,2.8-4.4,4.2-6.3.5-.7,1-1.3,1.5-2,2.5-3.5,4.5-7.4,6.7-11.5,4.5-8.5,9-17.3,17.8-22.9,4.8-3.1,10-4.6,14.9-4.1,8.2.8,11.8,5.3,13.2,7.9,3.9,7.1,2.1,17.3-5.5,32.1-.7,1.4-1.5,2.8-2.2,4.2-3.9,7.3-7.9,14.8-7.8,22.4,0,1.6.2,3.3.5,5.3v.2c.3,1.8.5,3.6.5,5.6.4,9.5-2.8,18-5.8,26.2-1.1,2.9-2.1,5.7-2.9,8.4-3.4,11.1-4.3,23.1-2.5,34.5.4,2.4.9,4.9,1.4,7.3v.4c1.8,8.4,3.6,17.1,1.7,26.1-.9,4.2-2.5,8-4,11.6-1.3,3-2.5,5.8-3.2,8.6-1.3,5.4-.9,11.7,1.2,17.2,4.6,12.2,8.2,25.3,3.9,38.4-.6,1.9-1.4,3.8-2.1,5.5-1.9,4.7-3.7,9.1-2.3,12,.1.3.3.6.5.9l.2.3c.7,1.2,1.6,2.8,2.1,4.9.3,1.3.4,2.5.4,3.4v.7h.3c.7,0,1.7-.3,2.7-1,.3-.2.6-.4.9-.6,1.3-.9,2.9-2,5-2.7,2.3-.7,4.3-.7,5.9-.7h.9c4.3-.1,8.8-2.2,13.2-4.2,5.2-2.4,12.2-6.1,12.5-10.8,0-.9,0-2-.3-3.2-.2-1.4-.4-2.8-.4-4.4,0-4.9,1.5-9.1,3-12.9l.2-.6c.3-.7.5-1.4.8-2.1,2-5.7,1.8-13.3,1.6-20.6,0-3-.1-5.9,0-8.7.3-14.3,4.4-27.4,8.4-40.2l2.8.7-2.8-.9c3.4-11.1,6.7-21.6,7.4-32.3.1-1.7,0-3.6-.2-5.8-.3-3.1-.5-6.6,0-10.3,1-5.7,3.6-10.1,6.3-14.5,1-1.7,1.9-3.1,2.6-4.6,2.2-4.3,3.4-9.3,4.7-14.6,2.2-9.2,4.6-19.4,13.2-27.1,2.1-1.9,5.5-4.5,10.1-4.9h1c4.2,0,8.4,2.1,11.1,5.5,2.4,3,3.7,7,3.7,11.2,0,5.7-2.3,10.3-4.1,14-.9,1.9-1.7,3.6-2.3,5.2-1.7,5.3-1.9,11.2-1.8,15.7,0,1.8,0,3.7.1,5.6.2,7.6.5,15.4-1.6,23.2-.8,3-1.8,5.7-2.8,8.4l-.6,1.7c-1.5,4.1-2.9,8.3-4.2,12.6-1,3.4-1.9,7-2.4,10.6-.8,6.9.5,14,3.7,20.2.9,1.8,1.9,3.5,2.9,5.2,3.2,5.4,6.7,11.5,7.3,19.3.6,8-.9,16.7-4.6,27.3-.2.4-.3.9-.5,1.4-.8,2.2-1.5,4.1-1.6,5.8,0,1.1.3,2,.5,2.2h0s.4.1,1.3.1h.4c7.2-.2,13.2-6.4,16.1-10.1,2-2.5,3.7-5.3,5.5-8.2l.2-.3c3.9-6.5,8.4-13.8,16.3-18.5,9-5.3,20.7-9.1,32.3-10.4,1.5-.2,2.7-.3,3.8-.3,1.8,0,3.5.2,5.1.6,4.3,1.2,7.6,3.9,9.2,7.6,2.5,5.8,0,13.1-1.8,18.4v.3c-.2.4-.4.8-.5,1.2-2.5,7.7-6.2,13.1-11.3,16.5-2.3,1.6-4.7,2.6-6.7,3.4-1.9.8-3.6,1.5-4.9,2.5-1.8,1.3-3.3,3.6-4.8,6-1.7,2.6-3.4,5.2-5.8,7.5-2.5,2.4-5.3,4.1-7.7,5.7l-1.9,1.2c-2.9,1.8-5.6,4.1-8.4,6.4-3.5,2.9-7.1,5.8-11.3,8.3-1.6,1-3.2,1.9-4.9,2.8l-.5.3c-5.4,3-10.3,5.7-14.4,9.4-9.6,8.7-12.9,23.4-7.5,33.5.4.7.8,1.4,1.2,2.1,1.2,2.1,2.6,4.4,3.5,7.3,1.7,5.9.3,11.7-.8,16.4-.3,1.2-.6,2.4-.8,3.6-1.7,8.8,0,18.2,4.5,26,.6,1,.9,1.4,1.1,1.6.4-.1,1.2-.5,1.8-1.3,1-1.4,1.8-3.4,2.6-5.6l.2-.5c.3-.8.6-1.7.9-2.5,4-10,11.4-18.5,20.9-23.9,6.4-3.7,12.6-6.3,19.1-8,2.9-.8,5.5-.9,7.3-.9h6.1c1,0,2.2,0,3-.2.8-.1,1.9-.7,3.1-1.2,1.5-.7,3.4-1.5,5.5-2,1.4-.3,2.8-.5,4.2-.5,5.1,0,9.8,2,13.8,3.8,1.5.7,3.9,1.8,5.6,4.4,1.8,2.7,2.3,5.7,1.4,8.5-1.6,4.9-6.5,6.9-9.7,8.2h-.2c-.4.3-.8.4-1.2.6-.3.4-.7,1.8-1,2.6-.8,2.2-1.7,4.9-3.6,7.2-2.9,3.4-6.1,5.9-9.2,8.3-3.4,2.6-6.5,5-8.6,8.2-1.3,2-2.5,4.3-3.7,6.7v.2c-.7,1.1-1.3,2.3-1.8,3.4-1.7,3.2-3.9,6.8-7.2,10.1-6.1,5.9-12.8,11.5-18.7,16.4-2.8,2.4-5.8,4.8-8.6,7.2-5.6,4.8-11,12.8-9.3,20.7.4,1.9,1.2,3.8,2,5.9.7,1.8,1.4,3.4,1.9,5.2,8.6,27.8-3.4,63.5-19.7,84.5l-1.1,1.3c-2.6,3.3-5,6.4-6.3,9.7s-1.6,7.2-2,11.3l-.2,1.8c-1,10.9-4.5,19.2-8.2,28.1l-.3.8c-.4,1-.8,2-1.3,3.1-1.6,3.9-2.2,7.5-1.9,10.9.3,3.1,1.4,6.2,2.6,9.6,1.1,3,2.1,6,2.8,9.2,1.6,7.7.8,16-2.3,23.2-.8,1.8-1.7,3.5-2.6,5.2l-.2.4c-.6,1.1-1.2,2.2-1.7,3.3-3.3,7.2-3.7,15.7-3.7,23.8v.8c0,3.1,0,6.3-.6,9.7-1.2,6.7-4.4,12.1-7.4,17.3-2.2,3.8-4.3,7.5-5.4,11.2-1,3.3-1.3,6.9-1.6,10.7-.1,1.7-.3,3.2-.4,4.8-.6,5.7-2,13-6.8,19-3.2,3.9-7.2,6.1-11.4,6.1h-.3c-4.3-.2-8.1-2.3-11.4-6.5-6.9-8.7-9.8-20.6-8.7-36.6.2-3.1.5-6.3.8-9.3.8-8.1,1.6-15.6.4-22.9-.4-2.6-1.1-5.2-1.8-8-1.1-4.3-2.2-8.7-2.5-13.4-.7-10,2.3-19.4,5.4-27.3,2.5-6.5,4-11.8,3.8-18.4,0-3.1-.2-6.2-.3-9.3v-.7c-.2-4.1-.4-8.4-.4-12.6-.3-19.9,2.7-35,9.7-49,1.6-3.2,3.7-6.3,5.9-9.7,4.7-7.2,10-15.2,8.9-21.6-.2-1.4-1-3-1.7-4.8-.9-2-1.8-4-2.4-6.3-1.7-6.9,0-13.3,1.4-19,.9-3.6,1.8-6.9,1.8-10,0-4.9-3.1-10.7-4.8-11.1-1,.8-3.1,3.8-3.9,4.9-2.6,3.7-5.3,7.5-9.2,9.5-1.4.7-2.8,1.3-4.1,1.8-2.3,1-4.4,1.8-5.9,3.1-.8.6-1.6,1.8-2.4,3.1l-2.6-1.4,2.4,1.6c-.8,1.3-1.8,2.7-3.1,4.1-1.5,1.6-3.1,2.9-4.4,4-1.1.8-2.2,1.7-2.9,2.6-2.2,2.5-2.9,6.9-2.2,12.9.2,1.5.4,2.9.6,4.4v.2c.8,5.1,1.6,10.3.8,15.9-.8,5.3-2.9,9.9-4.9,14.3-1.6,3.5-3.1,6.7-3.8,9.9-1.9,9,1.4,18.1,4.9,27.8,3.7,10.3,7.5,20.9,5.9,32.7-.3,2.2-.8,4.6-1.4,7.3-1.7,6.9-4.3,13.7-7.6,20.1-1,1.9-2,3.7-3,5.4l-.3.6c-1.7,3-3.3,5.8-4.6,8.7-3.6,8.3-4.6,17.5-5.7,27.3-.4,3.4-.7,6.4-1.1,9.5-.3,2.5-.8,5.3-2.5,7.9-2.2,3.5-5.9,5.7-9.7,5.7s-1.1,0-1.7-.1c-4.7-.8-7.4-4.6-8.3-5.9-6.7-9.7-8.4-20.8-9.9-33.4-.5-4.5-1.1-9.6-.8-14.8,0-.9.1-1.8.2-2.6v-.9c.2-1.2.3-2.3.3-3.4.2-7.7-2.7-14.6-5.7-22v-.2c-2-4.5-3.9-9.1-5.2-14.1-4.1-15.6,1-31.9,5.2-42.8v-.4c1-2.2,1.8-4.2,1.8-5.9,0-.7-.2-1.5-.3-2.5v-.3c-.3-1.3-.6-2.9-.7-4.6-.1-3.4.7-6.4,1.4-9,.3-1.3.6-2.4.8-3.4.2-1.4,0-2.7-.2-3.1-1.4,0-4.6,2.1-6.3,3.2-2.4,1.5-4.9,3.1-7.5,4-2,.6-4,1.1-5.9,1.6-3.9,1-7.7,1.8-10.3,3.9-3.6,2.8-5.5,8.3-5.9,16.8-.1,2.2-.1,4.5.3,6.5.4,1.9,1.4,4,2.5,6.2.6,1.2,1.1,2.4,1.6,3.6,6.3,14.8,2.9,27.4-.8,40.8l-.9,3.4c-.7,2.5-1.3,4.8-1.5,7-.3,4.9,1.6,10,3.6,15.5,1.5,4.1,3.1,8.3,4,12.9,2,10.6-.4,20.7-2.7,30.5v.2c-1.3,5.3-2.6,10.8-3,16.1-.4,5.5,0,11.3.6,17.2l.2,2.1c.9,9.4,1.8,18.8,1.2,28.4,0,1.2-.3,5-3.5,7.4-1.5,1.2-3.3,1.8-5.2,1.8h0l-.1.1ZM401.9,691.9h.1c2.7,0,4.9,2,6.2,4,2.8,4.2,3.1,9.2,2.9,12.7-.3,4.4-1.5,8.7-2.8,13.2-.5,1.6-1,3.3-1.5,4.9-2,6.5-4.1,13.1-5.5,19.9-1.9,9.1-1.3,16.2,1.8,21.7,1,1.7,2,3.3,2.9,4.7,2.6,4,5.1,7.8,5.2,13.5,0,3.1-.5,6.3-1,9.6-1,5.9-1.9,11.3.4,16.5,1.1,2.6,2.8,4.7,4.6,6.9.8.9,1.5,1.8,2.2,2.7,6.4,8.7,8,19.9,9.6,30.7l.5,3.5c1.8,11.9,4.9,25,14.8,32.7,1.2.9,3.4,1.9,4.8.8,1-.7,1.2-2,1.2-3.2.6-9.1-.3-18.4-1.2-27.3l-.2-2.3c-.6-6.2-1.1-12.2-.6-18.2.4-5.7,1.8-11.4,3.1-16.9v-.2c2.2-9.2,4.5-18.6,2.7-28.1-.8-4.1-2.3-8.1-3.7-11.9-2.3-6.1-4.4-11.8-4-17.9.2-2.7.9-5.5,1.6-8.1l.9-3.4c3.6-12.9,6.6-24,1.1-37-.5-1.1-1-2.2-1.5-3.3-1.1-2.4-2.3-4.9-2.9-7.4-.6-2.7-.5-5.4-.4-8,.5-10.2,3.1-17.1,8.1-21,3.6-2.9,8.1-4,12.5-5,1.9-.4,3.7-.9,5.5-1.5,1.9-.6,4-1.9,6.2-3.3,3.6-2.3,6.7-4.1,9.5-4.1s2,.3,2.9.8c3,1.7,3.5,6,2.9,9.2-.2,1.2-.5,2.4-.9,3.7-.7,2.6-1.3,4.9-1.2,7.4,0,1.3.3,2.6.5,3.8v.4c.3,1.2.5,2.3.5,3.5,0,2.7-1,5.4-2,8v.4c-4,10.1-8.8,25.2-5.1,39.2,1.2,4.7,3.1,9.1,4.8,13.4v.2c3.4,8,6.5,15.5,6.3,24.3,0,1.2-.1,2.5-.3,3.8v.9c-.1.8-.2,1.6-.3,2.4-.3,4.8.3,9.6.8,13.9,1.4,11.8,3,22.2,8.9,30.7,1,1.4,2.4,3.2,4.5,3.5h.7c1.8,0,3.6-1.1,4.7-2.9,1-1.7,1.4-3.7,1.7-5.7.4-3,.8-6,1.1-9.3,1.1-10.2,2.2-19.9,6.1-29,1.4-3.2,3.1-6.2,4.8-9.3l.3-.6c1-1.7,2-3.4,2.9-5.2,3.1-6,5.5-12.4,7.2-18.9.6-2.5,1-4.6,1.3-6.6,1.4-10.4-2.2-20.3-5.6-29.9-3.8-10.5-7.3-20.4-5.1-31,.8-3.8,2.5-7.5,4.1-11,1.9-4.1,3.8-8.3,4.5-12.8.7-4.7,0-9.5-.8-14v-.3c-.3-1.6-.5-3.1-.7-4.7-.9-7.8.3-13.6,3.6-17.4,1.1-1.3,2.5-2.4,3.7-3.3,1.3-1,2.6-2,3.7-3.3,1-1.1,1.7-2.2,2.5-3.4l.2-.2c1-1.5,2.1-3.1,3.5-4.3,2.1-1.8,4.8-2.9,7.3-4,1.3-.5,2.5-1,3.8-1.7,2.6-1.3,4.9-4.5,7-7.6,3.4-4.9,5.3-7.1,7.6-7.4h.8c7,0,10.7,11,10.7,16.9,0,3.8-.9,7.5-1.9,11.4-1.4,5.3-2.8,10.8-1.4,16.2.5,1.8,1.2,3.5,2.1,5.4.9,2,1.8,4,2.2,6.2,1.5,8.6-4.5,17.7-9.7,25.6-2.2,3.3-4.1,6.3-5.6,9.2-6.6,13.1-9.4,27.4-9.1,46.3,0,4.2.2,8.4.4,12.5v.7c.2,3.1.3,6.2.4,9.4.2,7.5-1.5,13.5-4.2,20.6-2.8,7.3-5.6,16-5,24.9.3,4.2,1.3,8.3,2.3,12.2.8,3,1.5,5.8,1.9,8.6,1.3,8,.5,15.9-.3,24.3-.3,3-.6,6.1-.8,9.2-1,14.5,1.5,25.1,7.5,32.6,2.2,2.8,4.6,4.3,7,4.3h.2c2.4,0,4.8-1.4,6.9-3.9,3.9-4.8,5-11.1,5.5-16,.2-1.5.3-3,.4-4.5.4-4.3.7-8.2,1.8-12,1.3-4.4,3.5-8.4,5.9-12.5,2.8-4.8,5.6-9.8,6.7-15.5.5-2.9.5-5.8.5-8.6v-.8c0-8.7.5-17.9,4.2-26.1.5-1.2,1.2-2.4,1.8-3.6l.2-.4c.8-1.6,1.7-3.2,2.4-4.8,2.6-6.2,3.3-13.2,2-19.7-.6-2.9-1.6-5.6-2.6-8.3-1.4-3.9-2.6-7.4-3-11.1-.4-4.3.3-8.9,2.3-13.7.4-1,.9-2.1,1.3-3.1l.3-.8c3.5-8.5,6.9-16.4,7.8-26.4l.2-1.8c.4-4.4.7-8.9,2.3-12.9,1.6-4.1,4.3-7.5,7.2-11.2l1.1-1.3c15.4-19.8,26.7-53.3,18.7-79.2-.5-1.6-1.1-3.1-1.8-4.7-.9-2.2-1.8-4.5-2.3-6.9-2.1-10.4,4.4-20.4,11.2-26.3,2.8-2.4,5.8-4.9,8.6-7.3,5.9-4.9,12.5-10.4,18.4-16.1,2.8-2.7,4.7-5.9,6.1-8.6.6-1.1,1.1-2.2,1.7-3.3v-.2c1.4-2.6,2.6-5,4.1-7.3,2.6-4,6.3-6.8,9.9-9.6,2.9-2.3,5.9-4.6,8.4-7.5,1.3-1.5,1.9-3.4,2.6-5.3.7-2.2,1.4-4.2,2.9-5.4l.2-.2c.5-.3,1.1-.6,2.3-1.1h.2c2.5-1.1,5.7-2.4,6.4-4.7.3-1.1,0-2.3-.7-3.6-.8-1.2-2.1-1.8-3.1-2.3-3.6-1.7-7.5-3.3-11.4-3.3s-2,.1-2.9.3c-1.5.4-3,1-4.4,1.6-1.5.7-2.9,1.3-4.5,1.6-1.2.2-2.5.3-4.1.3h-6c-1,0-3.5,0-5.8.7-6,1.6-11.7,4.1-17.7,7.5-8.4,4.8-14.9,12.3-18.4,21-.3.8-.6,1.5-.9,2.3v.3c-1.1,2.7-2,5.3-3.6,7.3-2.3,2.9-6.1,4.4-8.9,3-1.6-.8-2.7-2.4-3.6-4-5.3-8.9-7.1-19.9-5.1-30.1.3-1.2.5-2.5.8-3.7,1.1-4.5,2.2-9.1.9-13.5-.6-2.2-1.8-4.1-2.8-5.9-.5-.8-.9-1.6-1.4-2.4-6.6-12.4-2.7-30.2,8.8-40.5,4.6-4.2,9.8-7.1,15.4-10.2l.6-.3c1.6-.9,3.2-1.8,4.8-2.7,3.8-2.3,7.3-5.1,10.6-7.8,3-2.5,5.8-4.8,9-6.8l1.9-1.2c2.3-1.4,4.7-2.9,6.7-4.9,1.9-1.9,3.4-4.2,4.9-6.4,1.8-2.8,3.7-5.6,6.2-7.6,1.8-1.4,3.9-2.3,6-3.1,1.9-.8,3.9-1.6,5.8-2.9,4-2.7,6.9-7,9-13.4.1-.4.3-.9.5-1.4v-.3c1.5-4.2,3.7-10.5,2-14.2-.9-2.1-2.9-3.6-5.4-4.3-1.1-.3-2.3-.4-3.6-.4s-1.9,0-3.2.2c-10.8,1.3-21.8,4.8-30.1,9.6-6.7,3.9-10.6,10.3-14.3,16.5l-.2.3c-1.9,3.1-3.7,6.1-5.9,8.8-3.5,4.5-10.9,12-20.6,12.3h-.5c-1.8,0-3.2-.3-4.3-1-2.2-1.3-3.4-4.2-3.2-7.5.2-2.5,1-4.9,1.9-7.3.2-.6.4-1,.5-1.5,3.5-9.8,4.9-17.8,4.3-25-.5-6.5-3.5-11.7-6.5-16.7-1.1-1.8-2.2-3.7-3.1-5.6-3.6-7.1-5.1-15.4-4.2-23.4.5-4.1,1.5-8,2.6-11.6,1.3-4.4,2.7-8.8,4.3-13l.6-1.6c1-2.6,2-5.2,2.6-7.9,1.8-7,1.6-14.4,1.4-21.5,0-1.9-.1-3.8-.1-5.7,0-5,.1-11.5,2.1-17.6.6-2,1.5-3.8,2.5-5.8,1.8-3.7,3.6-7.4,3.6-11.7,0-2.9-.8-5.6-2.4-7.5-1.7-2.1-4.3-3.3-6.8-3.3h-.4c-2.9.2-5.2,2.1-6.7,3.4-7.2,6.5-9.2,15-11.4,24.1-1.4,5.7-2.6,11-5.2,16-.8,1.6-1.8,3.2-2.7,4.8-2.5,4.2-4.8,8-5.6,12.6-.5,3-.3,6,0,8.9.2,2.5.3,4.5.2,6.7-.8,11.4-4.1,22.2-7.6,33.6v.2c-3.9,12.4-7.9,25.1-8.2,38.6v8.4c.2,7.9.4,16-1.9,22.7-.3.8-.5,1.5-.8,2.3l-.2.6c-1.4,3.6-2.7,7-2.6,10.8,0,1.2.2,2.4.4,3.7.2,1.5.4,2.9.3,4.4-.5,7.7-8.7,12.4-15.9,15.7-4.7,2.1-9.9,4.6-15.4,4.7-1.6,0-3.4-.1-5.2.5-1.3.4-2.4,1.2-3.4,1.9-.4.3-.8.5-1.1.8-1.5,1-4.1,2.2-6.7,1.8-2.3-.3-4.4-1.9-4.9-3.8-.2-.7-.3-1.6-.3-2.3,0-.8,0-1.6-.3-2.4-.3-1.3-.9-2.3-1.5-3.4l-.2-.4c-.3-.5-.5-.9-.7-1.3-2.4-5.2,0-11,2.2-16.6.6-1.6,1.4-3.4,2-5.1,3.8-11.4.4-23.4-3.8-34.6-2.5-6.6-3-14.2-1.4-20.6.8-3.3,2.1-6.4,3.4-9.4,1.5-3.4,2.9-6.9,3.7-10.6,1.7-7.9,0-15.9-1.6-23.7v-.5c-.6-2.5-1.1-5.1-1.5-7.6-1.9-12.3-1-25.2,2.7-37.1.9-2.9,1.9-5.7,3-8.7,2.8-7.7,5.8-15.6,5.4-24,0-1.7-.3-3.5-.5-5.1v-.2c-.3-2.1-.5-4-.5-5.9,0-9.1,4.3-17.3,8.5-25.2.7-1.4,1.5-2.8,2.2-4.1,6.5-12.5,8.4-21.5,5.6-26.6-1-1.9-3.4-4.4-8.7-4.9h-1.3c-3.2,0-6.7,1.1-9.9,3.2-7.5,4.9-11.7,12.9-15.8,20.7-2.2,4.2-4.4,8.5-7.1,12.2-.5.7-1,1.4-1.6,2.1-1.3,1.7-2.7,3.5-3.7,5.5-2,3.8-2.7,8-3.4,12.2-.4,2.4-.7,4.3-1.2,6.3-1,4.1-2.8,8-5.1,11.5-3.1,4.6-7,8.6-10.5,12.1-7.4,7.5-14.5,14.6-15.4,26.7-.3,4-.1,8.1,0,12v.2c.1,3,.3,6.1.2,9.3-.1,5.7-1.1,11.6-2,17.3v.2c-1.5,9.2-3,18.7-1.3,28.1.8,4.2,2.2,8.4,3.5,12.1,1.7,4.9,3.3,9.6,3.8,14.6.3,2.5.2,5,.1,7.3v.2c0,2.4-.1,4.8,0,7.3.5,5.4,1.7,10.6,3.4,15.6.4,1,.7,2,1.1,3l.2.5c1.6,4.3,3.2,8.3,3.2,12.7s-1.4,8.3-2.9,12.6c-1,2.9-2.1,5.9-2.6,8.9-1,5.7-.1,11.1.7,16.2l.3,1.7c.9,5.2,0,11-2.4,17.4l-.2.5c-.6,1.6-1.3,3.4-1.2,5.3,0,.7.2,1.4.4,2.1.2.9.4,1.7.4,2.6v.6c-.5,1.8-1.9,4.2-13.3,11.2h-.2c-1.3.9-2.5,1.6-3.2,2.1-3.2,2.3-6.2,4.2-9.5,4.4h-2.5c-.7,0-1.2,0-1.7.1-2.8.6-4.8,3-6.6,5.1-1.9,2.2-3.6,4.3-6,4.5h-.3c-3.7,0-6.3-4-6.4-7.6-.1-2.6.6-5.3,1.3-7.8v-.3c.4-1.3.8-2.7,1-4.1.8-4.8.6-9.5.4-14-.3-5.8-.6-11.7,1.5-17.7,2.6-7.9,5.4-19.5-1.2-30-2.1-3.3-4.6-6.4-7-9.3l-.2-.3c-2.3-2.8-4.4-5.4-6.3-8.3-4.9-7.5-7.6-16.1-8-25-.2-5.2.4-10.2,1.1-15.5.4-3.5.9-7.1,1-10.7.4-8.9-.8-17.8-3.5-26.4-1.2-3.6-2.6-6.9-3.8-9.9-3-7-5.7-13.6-5.4-22.1.2-5.8,1.2-11.6,2.1-17.2v-.9c.6-2.5,1-5,1.3-7.5.5-3.9-.1-8.4-3.7-9.4-.3,0-.7-.1-1.1-.1-1.7,0-3.6,1-5.4,2.9-6.8,7.3-8.4,17.3-10,27-.9,5.6-1.9,11.3-3.7,16.5-1.3,3.5-3,6.8-4.7,10.2-1.3,2.5-2.5,4.8-3.5,7.2-2.1,4.7-3.6,9.7-4.9,14.1-3.3,10.8-6.9,22.9-2.8,34.9,1.2,3.6,2.9,7.1,4.6,10.5,2.4,4.9,4.6,9.5,5.7,14.6,1.2,5.5,1,11.2.8,16.7-.2,6.4-.5,12.9,1.3,19,.8,2.6,1.9,5.2,3,7.6,1,2.4,2.2,5,3,7.8,2,7.2.7,14-.7,21.2-.5,2.5-1,5.2-1.3,7.9-1.4,10.7-1.4,21.5-.1,32.1.2,2,.5,4,.8,6,.9,6.1,1.7,11.7,1.3,17.5-.5,8.8-4,16.2-9.5,20.1-4.6,3.3-10.1,4.2-16,5.2l-2.4.4c-6.4,1.1-14.6,3-21.2,7.7-6.9,4.9-11,12.4-10.7,19.6v.7c.1,1,.1,1.7,0,2.4-.5,1.8-2.2,2.8-4,3.9-1.5.9-3,1.8-4,3.1-.7.9-1.1,1.9-1.6,2.9-.3.7-.5,1.3-.9,1.9-1.2,2.1-3.3,3.7-5.4,5.2l-.4.3c-.5.3-1,.7-1.4,1-9.7,7.5-14.6,20.6-12.4,32.6.6,3.1,2,7,5.4,8.5,2.4,1,5.5.6,8.9-1.3,2.8-1.6,5.4-3.6,7.8-5.6,2.8-2.3,5.6-4.6,8.9-6.2,2.1-1,4.3-1.7,7-2.4,3.3-.9,6.7-1.9,9.6-3.8,4.4-2.9,7.1-7.6,9.8-12.1l.2-.3c1-1.7,1.9-3.3,3-4.9,4.7-6.9,11.5-12.3,19.2-15.3,3.3-1.3,5.7-1.5,7.6-.8,4.6,1.8,5.3,8.2,4.3,13.7-.6,3.4-1.4,6.7-2.3,10.1v.5c-1.1,3.7-2.1,7.8-2.8,12-1.7,10.8,1,21.8,7.7,31.9l1.4,2.1c4.8,7.1,9.8,14.4,10.5,22.8.2,2.5,0,6-2,8.4-1,1.2-2.3,2-3.6,2.8-1.4.8-2.8,1.6-4.2,2.4l-.5.3c-3.5,2-7,4-10.2,6.4-3.8,3-8.6,7.8-9.9,14.4-.3,1.7-.4,3.4-.5,5-.1,2.3-.2,4.5-.9,6.6-1.5,4.4-5.4,7.5-9.2,10.4l-.6.5c-.9.7-1.9,1.5-2.8,2.3-5.6,4.8-9.2,9.4-11,14-.4,1.1-.8,2.1-1.2,3.2l-.2.6c-1.5,4.1-3,8.2-5.2,11.8-.9,1.5-2,2.7-3.1,4.1v.2c-.1,0-8.5,9.9-8.5,9.9-1.1,1.3-2.3,2.7-3.1,4.4-2.3,5-.1,10.9,1.3,14.9.2.6.5,1.4,1.2,2,.6.5,1.3.8,2.1.8,1.5,0,3-.9,3.5-1.3,4.9-3.5,7.2-9,9.6-14.8,2.2-5.2,4.4-10.5,8.8-13.9,1.1-.9,2.4-1.7,3.9-2.5,1.3-.8,2.8-1.6,4.2-2.7,1.5-1.2,2.7-2.5,3.8-3.9,1.1-1.3,2.2-2.5,3.4-3.5,4.3-3.6,9.3-4.8,14.5-6,1-.2,1.9-.4,2.8-.7,6.6-1.7,12.4-5.9,15.8-11.7,1.5-2.5,2.6-5.3,3.6-8v-.2c1.4-3.5,2.7-6.8,4.7-9.6,1.1-1.5,2.9-3.3,5.1-3.5h.1v.1-.6ZM427,457.7h0ZM452.5,629c-.9,0-1.9-.2-3-.6-4-1.3-7.5-4.1-9.6-7.6-4.1-6.7-3.5-15-2.8-23.1,0-.9.1-1.7.2-2.5v-.3c.2-3.2.4-7-.9-10.4-1.2-3.3-3.5-5.8-6-8.4-2.4-2.6-4.8-5.1-5.8-8.3-1.4-4-.5-8.6.2-12.4.2-1.2.4-2.5.7-3.7l.3-1.7c2.5-14.4,5.1-29.2,19.2-37.1,2.7-1.5,5.5-2.7,8.4-3.9h.2c1.7-.8,3.5-1.5,5.2-2.3,5.9-2.7,9.7-5.7,12.1-9.6,1.1-1.7,2.7-3.9,4.5-4.2h.6c0-.1.6,0,.6,0,5.8,1.2,9.9,19.4,9.2,25.4-.3,2.8-.8,5.6-1.3,8.6l-2.9-.3,2.9.5c-1.1,6.3-2.3,12.7-1.3,19.1.4,3,1.3,5.8,2.2,8.6.7,2.3,1.4,4.7,1.9,7.1,1.2,6.2.2,12.1-.7,18.2l-.2,1.2c-.1.9-.3,1.8-.4,2.7-.3,1.7-.3,3.3-.4,4.8-.2,3.5-.3,6.8-2.3,10.1-2.4,4.1-6.2,6.9-10.2,9.8-3.9,2.9-7.8,5.8-10.4,9.8-.7,1-1.2,2-1.8,3.1v.2c-.7,1.1-1.2,2.1-1.9,3-1.5,2.2-3.3,3.6-5.2,3.9h-1l-.3.3ZM475.8,500.2s0,.1-.1.2c-3,4.8-7.7,8.6-14.6,11.8-1.8.8-3.7,1.6-5.4,2.3h-.2c-2.8,1.2-5.4,2.3-7.8,3.6-11.8,6.6-13.9,18.8-16.4,33l-.3,1.7c-.2,1.3-.4,2.5-.7,3.8-.6,3.2-1.3,6.9-.4,9.4.7,2,2.5,4,4.5,6.1,2.7,2.9,5.6,6.1,7.2,10.4,1.7,4.5,1.5,9,1.3,12.8v.3c0,.8-.1,1.7-.2,2.5-.5,7.2-1.1,14.6,2,19.7,1.5,2.4,3.8,4.3,6.5,5.2.8.3,1.1.3,1.2.3h0c.1,0,.7-.4,1.4-1.5.5-.7,1-1.6,1.5-2.5v-.2c.7-1.1,1.3-2.3,2.1-3.5,3.2-4.9,7.5-8.1,11.7-11.2,3.6-2.7,6.9-5.2,8.8-8.2,1.3-2.1,1.4-4.2,1.5-7.3,0-1.8.2-3.5.5-5.5.1-.9.3-1.8.4-2.8l.2-1c.9-5.8,1.8-11.2.8-16.4-.4-2.1-1-4.3-1.7-6.5-.9-2.9-1.9-6.1-2.3-9.5-1.1-7.3.2-14.3,1.4-21v-.3c.6-2.8,1-5.5,1.3-8.2.5-4.5-2.1-13.7-4.1-17.6h0l-.1.1ZM545.7,565.5c-3.1,0-6.2-2.2-7.9-5.3-1.8-3.6-1.9-7.8-1.8-11.4v-1c.2-2.4.3-4.8-.3-7.2-.6-2.6-2-4.8-3.3-6.9l-.2-.3c-.5-.8-.9-1.6-1.4-2.3-3.2-6-4.2-13.2-2.8-19.8,1.7-7.6,1-15,.4-22.1-.5-5.8-1-11.2-.4-17,.3-2.8.8-6,2.6-8.3,1.6-2.1,4-3.4,6.4-4.7l.6-.3c4-2.2,7.9-4.7,11.7-7.4l1.4-1c2.7-1.9,5.2-3.7,8-4.9,3.6-1.6,7.4-1.8,10.4-.4,6.8,3.1,5.2,12.2,4.1,18.9-.1.7-.2,1.4-.3,2-1.2,7.2-1.3,14.4-.4,21.6.4,2.8.9,5.6,1.4,8.5.5,2.6.9,5.2,1.6,7.7.8,3.2,1.8,6.4,3,9.6.4,1,.8,1.9,1.2,2.8l.4,1c2.5,5.9,4.9,11.5,4.1,17.2,0,.6-.2,1.1-.3,1.7-1.3,5.2-5.4,9.8-12.1,13.9-1.7,1-3.5,2-5.5,3.1-3.8,2-7.8,4.2-11.2,7.1-.4.3-.8.7-1.1,1l-.4.4c-2,1.8-4.2,3.8-6.7,4.2h-1.1l-.1-.4ZM564.9,449.8c-1.2,0-2.5.3-3.8.9-2.3,1-4.5,2.6-6.8,4.3l-1.5,1.1c-4,2.8-8.1,5.4-12.3,7.7l-.5.3c-2,1.1-3.8,2.1-4.6,3.2-.9,1.3-1.3,3.6-1.5,5.4-.5,5.3,0,10.4.4,15.9.7,7.6,1.4,15.4-.5,23.9-1.2,5.3-.4,11.1,2.2,15.8.4.7.8,1.4,1.2,2.1l.2.3c1.5,2.4,3.1,5.1,4,8.5.8,3.2.6,6.4.5,8.9v1c-.2,2.9-.1,6.1,1.1,8.5.7,1.4,2.1,2.2,2.7,2.2,1-.2,2.7-1.6,4-2.8l.4-.3c.4-.4.8-.8,1.3-1.1,3.9-3.3,8.1-5.6,12.2-7.8,2-1.1,3.7-2,5.3-2.9,5.4-3.2,8.6-6.7,9.5-10.3,0-.3.2-.7.2-1.1.5-4.2-1.5-9-3.7-14.2l-.4-1c-.4-1-.8-2-1.2-3-1.3-3.4-2.4-6.9-3.3-10.3-.6-2.7-1.1-5.3-1.6-7.8-.6-3.1-1.1-5.9-1.5-8.9-1-7.8-.8-15.6.4-23.3.1-.7.2-1.4.4-2.1,1.2-7,1.5-11.6-.8-12.6-.5-.3-1.2-.4-1.9-.4h0l-.1-.1Z" fill="#090908"/>
  <path d="M434.4,887.6c-2.1,0-3.9-1.1-5-2-10.7-8.3-14-22.2-15.9-34.6-.2-1.2-.3-2.3-.5-3.5-1.5-10.5-3.1-21.3-9-29.4-.7-.9-1.4-1.7-2.1-2.6-1.9-2.3-3.8-4.6-5.1-7.6-2.6-6-1.6-12.1-.6-18,.5-3.2,1-6.2,1-9.1-.1-4.8-2.2-8-4.8-12-1-1.5-2-3.1-3-4.8-3.4-6.2-4.1-13.9-2.1-23.7,1.4-6.9,3.5-13.7,5.5-20.2.5-1.6,1-3.3,1.5-4.9,1.3-4.3,2.5-8.4,2.7-12.5.2-3-.1-7.4-2.4-10.9-1-1.6-2.5-2.7-3.6-2.7h-.2c-.9,0-2,1-3,2.4-1.9,2.5-3,5.6-4.3,8.9-1.1,2.9-2.2,5.8-3.9,8.6-3.9,6.5-10.3,11.2-17.6,13-1,.3-1.9.5-2.9.7-5.1,1.2-9.5,2.2-13.3,5.4-1.1.9-2.1,2-3.1,3.2-1.3,1.4-2.6,2.9-4.2,4.2-1.5,1.2-3.1,2.1-4.6,3-1.3.7-2.5,1.4-3.5,2.2-3.7,2.9-5.7,7.7-7.9,12.7-2.5,5.9-5.1,12-10.6,16-1,.7-2.9,1.8-5.2,1.8s-3-.5-4.1-1.6c-1.1-1-1.6-2.4-1.9-3.1-1.5-4.1-4-11-1.2-17.1.9-2.1,2.3-3.7,3.5-5.1l8.4-9.9c1.1-1.3,2.2-2.6,3-3.9,2.1-3.4,3.5-7.4,5-11.3.5-1.3,1-2.6,1.4-3.9,2-5.1,5.8-10.1,11.8-15.2,1.1-1,2.3-1.9,3.5-2.8,3.6-2.8,7.1-5.5,8.3-9.1.6-1.7.7-3.7.8-5.8,0-1.8.2-3.6.5-5.5,1.4-7.5,6.7-12.9,10.9-16.2,3.4-2.6,7-4.7,10.5-6.7,1.5-.9,3-1.7,4.6-2.6,1.1-.7,2.2-1.3,2.9-2.2,1.5-1.8,1.5-4.7,1.4-6.3-.7-7.6-5.4-14.6-10-21.4-.5-.7-1-1.4-1.5-2.1-7.2-10.6-10-22.4-8.2-33.9.7-4.2,1.7-8.3,2.7-12.3.9-3.6,1.8-7,2.4-10.4.8-4.4.3-9.4-2.5-10.5-.4-.2-.9-.2-1.4-.2-1.1,0-2.4.3-4.1,1-7.2,2.8-13.5,7.9-17.9,14.2-1.1,1.6-2.1,3.3-3.1,5-2.8,4.8-5.7,9.8-10.7,13.1-3.3,2.2-6.9,3.2-10.4,4.2-2.3.7-4.6,1.3-6.5,2.2-2.9,1.4-5.6,3.5-8.3,5.8-2.5,2.1-5.2,4.2-8.2,5.9-2.6,1.5-5.2,2.2-7.5,2.2s-2.7-.3-3.9-.8c-3.7-1.6-6.1-5.2-7.1-10.6-2.4-13.1,3-27.3,13.5-35.4.6-.5,1.2-.9,1.8-1.4,1.9-1.4,3.7-2.7,4.6-4.3.3-.4.5-1,.7-1.5.5-1.1,1-2.4,1.9-3.6,1.4-1.8,3.1-2.8,4.7-3.8,1.3-.8,2.6-1.5,2.7-2.2v-2.2c-.4-8.1,4.2-16.6,11.8-22,7.2-5.1,15.8-7.1,22.4-8.2.8-.1,1.5-.3,2.3-.4,5.6-.9,10.9-1.8,14.9-4.7,4.8-3.4,7.9-10,8.3-17.9.3-5.5-.5-11-1.3-16.9-.3-2-.6-4-.8-6-1.3-10.9-1.2-21.9.1-32.8.4-2.7.9-5.4,1.4-8.1,1.3-6.9,2.5-13.5.7-20-.7-2.5-1.7-4.8-2.9-7.4-1.1-2.5-2.3-5.1-3.1-8-1.9-6.6-1.6-13.4-1.4-19.9.2-5.6.4-10.9-.7-16-1-4.8-3.2-9.2-5.5-13.9-1.7-3.5-3.4-7-4.7-10.8-4.4-12.8-.6-25.5,2.8-36.6,1.4-4.8,2.9-9.7,5-14.5,1.1-2.5,2.4-5,3.6-7.4,1.7-3.4,3.4-6.5,4.6-9.8,1.8-4.9,2.7-10.5,3.6-15.9,1.7-10.1,3.4-20.6,10.8-28.5,2.3-2.5,4.9-3.8,7.5-3.8s1.3,0,1.9.2c4.5,1.2,6.7,6,5.8,12.5-.4,2.9-.9,5.7-1.4,8.5-1,5.8-1.9,11.3-2.1,16.8-.3,7.9,2.3,13.9,5.2,20.9,1.4,3.2,2.7,6.5,3.9,10.1,2.9,8.9,4.1,18.2,3.7,27.4-.2,3.7-.6,7.3-1,10.9-.6,5.2-1.2,10.1-1,15.1.3,8.4,2.9,16.5,7.5,23.5,1.9,2.8,4,5.5,6.3,8.3,2.5,3.1,5.1,6.2,7.3,9.7,7.3,11.5,4.4,24.1,1.5,32.5-1.8,5.5-1.6,10.9-1.3,16.7.2,4.7.4,9.5-.4,14.6-.3,1.6-.7,3.2-1.1,4.7-.7,2.5-1.3,4.8-1.2,6.9.1,2.4,1.8,4.9,3.3,4.9h.2c1.3-.1,2.7-1.8,4.1-3.5,2-2.4,4.4-5.3,8.2-6,.7-.1,1.4-.2,2.3-.2h2.4c2.5-.1,5-1.7,8-3.9.9-.6,2.1-1.4,3.5-2.3,7.6-4.7,11.6-7.8,12-9.4,0-.4-.1-1-.3-1.7-.2-.8-.4-1.7-.5-2.7-.2-2.5.7-4.7,1.4-6.5l.2-.5c2.2-5.9,3-11.2,2.2-15.9l-.3-1.6c-.9-5.5-1.9-11.1-.7-17.3.6-3.3,1.7-6.4,2.7-9.4,1.4-4,2.8-7.8,2.7-11.7,0-3.8-1.5-7.6-3-11.7-.5-1.2-.9-2.4-1.3-3.6-1.8-5.2-3-10.7-3.6-16.2-.3-2.7-.2-5.3-.1-7.8,0-2.4.1-4.7,0-7-.5-4.7-2.1-9.2-3.7-13.9-1.4-4-2.8-8.1-3.6-12.5-1.8-9.8-.3-19.6,1.2-29,.9-5.7,1.8-11.5,2-17.1,0-3,0-5.9-.2-9.1-.2-4.1-.4-8.3,0-12.6,1-13.1,8.7-20.9,16.2-28.5,3.6-3.6,7.3-7.4,10.2-11.7,2.2-3.2,3.8-6.8,4.7-10.6.5-2,.8-4,1.2-6.1.7-4.3,1.5-8.8,3.7-13,1.2-2.2,2.6-4.1,4-5.9.5-.7,1-1.4,1.5-2,2.6-3.6,4.7-7.6,6.9-11.9,4.3-8.1,8.7-16.6,16.8-21.8,3.7-2.4,7.7-3.7,11.5-3.7s1,0,1.6,0c6.5.6,9.6,3.8,10.9,6.4,3.3,6.1,1.5,15.7-5.5,29.3-.7,1.4-1.5,2.8-2.2,4.2-4.1,7.6-8.3,15.5-8.2,23.8,0,1.8.3,3.7.5,5.6.2,1.8.5,3.7.5,5.6.3,8.9-2.7,17.1-5.6,25.1-1,2.8-2.1,5.7-3,8.5-3.6,11.5-4.4,23.9-2.6,35.8.4,2.6,1,5.3,1.5,7.9,1.7,8.1,3.4,16.5,1.6,24.9-.8,4-2.4,7.6-3.9,11.1-1.3,3.1-2.5,6-3.3,9-1.4,5.9-1,12.8,1.3,18.9,4.4,11.7,7.9,24.2,3.8,36.5-.6,1.8-1.3,3.6-2,5.3-2.1,5.3-4.1,10.3-2.3,14.3.2.4.5.9.8,1.4.7,1.2,1.5,2.5,1.8,4.1.3,1.1.3,2.1.3,2.9,0,.6,0,1.3.2,1.6.3.9,1.4,1.6,2.5,1.8h.5c1.6,0,3.2-.8,4.2-1.4.3-.2.7-.5,1-.7,1.2-.8,2.5-1.7,4.2-2.3,1.8-.6,3.4-.6,4.9-.6s.7,0,1.1,0c4.9-.2,9.7-2.4,14.3-4.5,6.4-2.9,13.8-7.1,14.2-13.2,0-1.2,0-2.4-.3-3.8-.2-1.3-.4-2.6-.4-4,0-4.3,1.4-8.1,2.8-11.8.3-.9.7-1.9,1-2.8,2.1-6.2,1.9-14.1,1.8-21.6,0-3-.1-5.8,0-8.5.3-13.9,4.4-26.9,8.2-39.5,3.5-11.3,6.8-22,7.6-33.1.1-2,0-4-.2-6.2-.3-3.1-.5-6.3,0-9.6.9-5.1,3.4-9.4,5.9-13.5,1-1.6,1.9-3.2,2.7-4.7,2.4-4.7,3.6-9.8,4.9-15.3,2.2-9.1,4.4-18.5,12.3-25.6,1.8-1.7,4.7-3.9,8.4-4.2h.8c3.3,0,6.7,1.7,8.9,4.4,2,2.5,3.1,5.8,3,9.4,0,5-2.1,9.1-3.8,12.8-.9,1.9-1.8,3.7-2.4,5.6-1.8,5.7-2,11.9-2,16.7,0,1.9,0,3.7.1,5.6.2,7.3.5,14.9-1.5,22.4-.7,2.8-1.8,5.5-2.7,8.2l-.6,1.6c-1.5,4.1-3,8.5-4.2,12.8-1,3.5-2,7.3-2.5,11.1-.8,7.4.6,15.2,4,21.8.9,1.8,2,3.7,3,5.4,3.1,5.3,6.4,10.9,6.9,18,.6,7.6-.9,15.9-4.5,26.1-.2.5-.3.9-.5,1.4-.8,2.3-1.6,4.5-1.8,6.6-.1,2.1.6,4.1,1.8,4.8.6.4,1.6.6,2.8.6h.4c8.5-.3,15.1-7.1,18.4-11.2,2.1-2.7,3.9-5.7,5.8-8.8,3.9-6.5,8-13.2,15.3-17.5,8.6-5.1,20-8.7,31.2-10,1.3-.2,2.5-.2,3.5-.2,1.6,0,3,.2,4.3.5,3.4.9,6.1,3.1,7.3,6,2,4.8-.2,11.4-1.9,16.3-.2.6-.4,1.1-.5,1.6-2.3,7-5.6,11.8-10.1,14.9-2,1.4-4.1,2.3-6.2,3.1-2,.9-4,1.7-5.5,2.8-2.2,1.6-3.8,4.1-5.5,6.7-1.6,2.4-3.2,4.8-5.4,7s-4.8,3.7-7.2,5.3c-.6.4-1.3.8-1.9,1.2-3,2-5.8,4.2-8.7,6.6-3.4,2.8-6.9,5.7-11,8-1.8,1-3.5,2-5.3,3-5.5,3-10.6,5.9-15,9.8-10.5,9.5-14.1,25.8-8.1,37,.4.8.8,1.5,1.3,2.3,1.2,2,2.4,4.1,3.1,6.6,1.5,5.2.3,10.4-.8,15-.3,1.2-.6,2.4-.8,3.6-1.9,9.5-.1,19.7,4.8,28,.7,1.1,1.5,2.4,2.4,2.8.3.2.7.2,1,.2,1.4,0,3.1-1,4.3-2.4,1.4-1.8,2.2-4.1,3.1-6.5.3-.9.7-1.8,1-2.7,3.7-9.4,10.7-17.4,19.7-22.5,6.2-3.5,12.2-6.1,18.4-7.7,2.6-.7,4.9-.8,6.5-.8h6.1c1.4,0,2.5,0,3.6-.3,1.2-.2,2.5-.8,3.8-1.4,1.5-.7,3.1-1.4,4.9-1.8,1.1-.3,2.3-.4,3.5-.4,4.5,0,8.7,1.7,12.6,3.5,1.2.6,3.1,1.4,4.4,3.3,1.7,2.5,1.5,4.7,1.1,6.1-1.1,3.6-5.1,5.2-8,6.4-.7.3-1.8.7-2.1.9-.8.7-1.4,2.3-2,4-.7,2-1.5,4.3-3.1,6.2-2.7,3.1-5.8,5.5-8.8,7.9-3.6,2.7-6.9,5.3-9.2,8.8-1.4,2.2-2.6,4.5-3.9,7-.6,1.2-1.2,2.4-1.8,3.5-1.6,3-3.6,6.4-6.7,9.4-5.8,5.6-12.3,11-18.5,16.2-2.9,2.4-5.8,4.8-8.6,7.3-6.2,5.3-12.2,14.3-10.3,23.5.4,2.1,1.3,4.2,2.2,6.4.7,1.6,1.3,3.3,1.8,5,8.3,26.8-3.3,61.5-19.2,81.8l-1,1.3c-2.7,3.5-5.3,6.8-6.8,10.5-1.4,3.7-1.8,7.8-2.2,12.1l-.2,1.8c-.9,10.4-4.4,18.6-8,27.2-.5,1.3-1.1,2.6-1.6,3.9-1.8,4.3-2.5,8.4-2.1,12.3.3,3.4,1.5,6.8,2.8,10.3,1,2.8,2,5.7,2.7,8.8,1.5,7.1.8,14.8-2.1,21.5-.7,1.7-1.6,3.4-2.5,5-.7,1.3-1.4,2.6-1.9,3.9-3.5,7.7-4,16.6-4,25v.8c0,3,0,6-.6,9.2-1.1,6.2-4.1,11.4-7,16.4-2.3,4-4.5,7.8-5.7,11.9-1,3.6-1.3,7.4-1.7,11.4-.1,1.5-.3,3.1-.4,4.6-.6,5.3-1.8,12.1-6.2,17.5-2.6,3.2-5.9,5-9.1,5h-.3c-3.3-.1-6.4-2-9.1-5.4-6.4-8.1-9.1-19.4-8.1-34.6.2-3.1.5-6.2.8-9.2.8-8.2,1.6-16,.4-23.6-.4-2.8-1.1-5.5-1.8-8.4-1-4.1-2.1-8.3-2.4-12.8-.7-9.5,2.3-18.5,5.2-26.1,2.6-6.8,4.2-12.5,4-19.5,0-3.1-.2-6.2-.3-9.3-.2-4.3-.3-8.8-.4-13.2-.3-19.4,2.6-34.1,9.4-47.7,1.5-3.1,3.6-6.2,5.8-9.5,5-7.5,10.5-16.1,9.3-23.6-.3-1.8-1.1-3.6-2-5.5-.8-1.8-1.7-3.7-2.2-5.9-1.5-6.1,0-11.9,1.4-17.5,1-3.8,1.9-7.3,1.9-10.8,0-5.5-3.6-14-7.9-14s-.3,0-.4,0c-1.5.2-4,3.8-5.7,6.2-2.4,3.4-4.8,6.9-8.1,8.5-1.3.6-2.6,1.2-3.9,1.7-2.5,1-4.8,2-6.7,3.5-1.1.9-2,2.3-3,3.8-.9,1.3-1.7,2.6-2.9,3.8-1.3,1.4-2.7,2.5-4.1,3.6-1.2,1-2.4,1.9-3.3,2.9-2.8,3.2-3.7,8.3-2.9,15.2.2,1.6.4,3.1.7,4.7.8,4.8,1.5,9.8.8,15-.7,4.9-2.8,9.3-4.7,13.6-1.7,3.5-3.2,6.9-3.9,10.4-2.1,9.8,1.4,19.3,5,29.4,3.6,9.9,7.2,20.2,5.8,31.3-.3,2.1-.7,4.4-1.4,6.9-1.7,6.8-4.2,13.3-7.4,19.5-1,2-2.1,3.8-3.2,5.7-1.8,3.2-3.5,6.1-4.8,9.3-3.8,8.7-4.8,18.1-5.9,28.1-.3,3.1-.7,6.3-1.1,9.4-.3,2.3-.7,4.7-2.1,6.8-1.6,2.7-4.4,4.3-7.2,4.3s-.8,0-1.2,0c-3.2-.5-5.2-2.9-6.4-4.7-6.3-9.1-8-19.9-9.4-32-.5-4.4-1.1-9.4-.8-14.4,0-1.1.2-2.1.3-3.2.1-1.3.2-2.6.3-3.8.2-8.2-2.8-15.5-6-23.2-1.8-4.5-3.8-9.1-5.1-14-3.9-14.8,1-30.5,5.1-41v-.3c1.1-2.5,2-4.8,2-7,0-1-.2-2.1-.5-3.3-.3-1.3-.5-2.7-.6-4.2-.1-2.9.6-5.6,1.3-8.1.3-1.3.6-2.4.8-3.6.4-2.4,0-5.3-1.5-6.2-.4-.3-.9-.4-1.4-.4-2.2,0-5.3,2-7.9,3.7-2.3,1.5-4.6,2.9-6.8,3.6-1.9.6-3.8,1.1-5.7,1.5-4.3,1-8.3,2-11.4,4.5-4.3,3.4-6.6,9.6-7,18.9-.1,2.4-.2,4.9.4,7.3.5,2.3,1.6,4.5,2.7,6.8.5,1.1,1.1,2.3,1.6,3.4,5.9,13.9,2.6,26.1-1,38.9-.3,1.1-.6,2.2-.9,3.4-.7,2.6-1.4,5.1-1.5,7.5-.4,5.5,1.7,10.9,3.8,16.7,1.5,4,3,8.1,3.8,12.4,1.8,10-.5,19.8-2.7,29.3-1.3,5.5-2.6,11.2-3.1,16.7-.4,5.6,0,11.3.6,17.7l.2,2.1c.9,9.1,1.8,18.5,1.2,27.9,0,1.1-.2,3.7-2.4,5.3-1,.7-2.1,1.1-3.4,1.1h0l.5.9ZM465,490.5c-.3,0-1.3.7-2.6,2.9-2.7,4.3-6.9,7.7-13.4,10.7-1.8.8-3.6,1.6-5.3,2.3-3,1.2-5.7,2.3-8.3,3.8-12.9,7.2-15.3,20.7-17.8,35-.3,1.8-.6,3.6-1,5.4-.7,3.6-1.4,7.6-.3,10.9.9,2.6,3,4.8,5.2,7.2,2.5,2.7,5.1,5.5,6.6,9.4s1.4,8,1.1,11.6c0,.9-.1,1.8-.2,2.8-.6,7.6-1.2,15.5,2.4,21.4,1.8,3,4.8,5.3,8.1,6.4.9.3,1.6.4,2.1.4h.5c1.1-.2,2.3-1.2,3.4-2.7.6-.9,1.2-1.9,1.7-3,.6-1.1,1.2-2.2,1.9-3.3,2.9-4.4,7-7.5,11-10.4,3.8-2.8,7.4-5.5,9.5-9.1,1.6-2.7,1.8-5.4,1.9-8.7,0-1.6.2-3.3.4-5.2.2-1.3.4-2.5.6-3.8,1-6,1.9-11.6.8-17.4-.4-2.3-1.1-4.6-1.8-6.8-.9-2.9-1.8-5.9-2.2-9-1-6.9.2-13.6,1.4-20.1.5-3,1-5.7,1.4-8.5.7-6.5-4-21.6-6.9-22.2h-.2ZM554,441.5c-1.6,0-3.3.4-5,1.1-2.6,1.1-5,2.8-7.5,4.6l-1.4,1c-3.8,2.7-7.9,5.3-12,7.5l-.5.3c-2.2,1.2-4.3,2.4-5.5,4-1.3,1.8-1.8,4.5-2,6.9-.6,5.5,0,10.9.4,16.5.7,7.3,1.3,14.9-.5,23-1.3,6-.4,12.5,2.5,17.8.5.8,1,1.7,1.5,2.5,1.4,2.3,2.9,4.7,3.6,7.7.7,2.8.5,5.6.4,8v1c-.2,3.3-.1,7,1.4,9.9,1.1,2.2,3.4,3.8,5.3,3.8s.4,0,.6,0c1.8-.3,3.5-1.9,5.3-3.5.5-.5,1-1,1.6-1.4,3.6-3.1,7.8-5.3,11.7-7.4,1.9-1,3.7-2,5.4-3,6.1-3.7,9.7-7.7,10.8-12.1,0-.4.2-.9.3-1.4.7-5-1.6-10.2-3.9-15.7-.5-1.3-1.1-2.6-1.6-3.9-1.3-3.2-2.3-6.6-3.1-9.9-.6-2.6-1.1-5.3-1.6-7.8-.5-2.8-1-5.7-1.4-8.6-.9-7.5-.8-15,.4-22.4,0-.7.2-1.4.3-2.1,1.3-7.4,2-13.7-2.4-15.7-.9-.4-2-.7-3.1-.7h0Z" fill="#fff"/>
  <path d="M434.5,890.5c-2.3,0-4.6-.9-6.8-2.6-11.5-9-15-23.5-17-36.5l-.5-3.5c-1.5-10.1-3-20.6-8.5-28-.6-.8-1.3-1.6-2-2.5-1.9-2.3-4.1-4.9-5.5-8.3-2.9-6.8-1.8-13.6-.8-19.6.5-3.1,1-6,.9-8.6-.1-4-1.9-6.7-4.3-10.5-.9-1.4-2-3.1-3.1-5-3.8-6.8-4.5-15.2-2.4-25.7,1.5-7.1,3.6-13.9,5.6-20.5.5-1.6,1-3.3,1.5-4.9,1.3-4.3,2.4-8.1,2.6-11.9.1-2.6,0-6.2-2-9.2-.4-.6-.8-1-1.1-1.2-.2.2-.5.5-.9,1-1.6,2.2-2.7,5.1-3.9,8.2v.3c-1.2,2.9-2.4,6-4.1,8.9-4.2,7.1-11.3,12.3-19.4,14.4-1,.3-2,.5-2.9.7-4.9,1.1-8.8,2-12.1,4.8-.9.8-1.8,1.7-2.8,2.9-1.3,1.5-2.7,3.1-4.6,4.6-1.7,1.4-3.5,2.4-4.9,3.2-1.3.7-2.3,1.3-3.2,2-3.1,2.4-5,6.9-7,11.6-2.5,6-5.4,12.8-11.6,17.2-1.3.9-3.8,2.4-6.9,2.4s-4.5-.8-6.1-2.4c-1.7-1.6-2.3-3.5-2.6-4.3-1.5-4.2-4.4-12.1-1.1-19.3,1.1-2.4,2.7-4.3,3.9-5.8l8.4-9.9c1.1-1.3,2.1-2.4,2.7-3.5,1.9-3.1,3.3-6.9,4.7-10.7l.3-.9c.4-1.1.8-2.1,1.2-3.2,2.2-5.6,6.3-10.9,12.6-16.3,1-.8,2-1.7,3-2.5l.5-.4c3.3-2.6,6.4-5,7.3-7.7.4-1.3.5-3.1.6-5,0-2,.2-3.9.6-5.9,1.6-8.4,7.4-14.4,12-17.9,3.5-2.7,7.2-4.8,10.7-6.8l.4-.2c1.4-.8,2.8-1.6,4.2-2.4.6-.4,1.7-1,2.2-1.6.6-.7.8-2.3.7-4.2-.6-6.8-5.1-13.5-9.5-20l-1.5-2.1c-7.6-11.3-10.6-23.7-8.6-36,.7-4.5,1.8-8.9,2.8-12.5v-.5c1-3.4,1.8-6.5,2.3-9.7.8-4.3-.1-7.1-.7-7.3h-.4c-.7,0-1.7.3-3.1.8-6.6,2.6-12.5,7.3-16.5,13.2-.9,1.4-1.8,2.9-2.8,4.5l-.2.4c-2.8,4.8-6,10.3-11.6,14-3.7,2.5-7.7,3.6-11.2,4.6-2,.6-4.2,1.2-6.1,2.1-2.7,1.3-5.1,3.3-7.7,5.4-2.5,2-5.3,4.3-8.6,6.2-5,2.8-9.9,3.3-14,1.6-3.2-1.4-7.3-4.7-8.8-12.8-2.6-14.1,3.2-29.5,14.5-38.3.5-.4,1-.8,1.5-1.1l.4-.3c1.6-1.1,3.2-2.3,3.8-3.4.2-.3.4-.8.5-1.2.5-1.3,1.2-2.8,2.3-4.3,1.7-2.2,3.8-3.5,5.5-4.5.4-.3,1-.6,1.4-.9v-.9c-.4-9.2,4.6-18.6,13.1-24.6,7.6-5.4,16.6-7.5,23.6-8.7l2.3-.4c5.3-.9,10.3-1.7,13.7-4.2,4.1-2.9,6.7-8.7,7.1-15.7.3-5.2-.5-10.5-1.3-16.1-.3-2.2-.6-4.2-.8-6.2-1.3-11.1-1.3-22.3.1-33.5.4-2.9.9-5.7,1.4-8.2,1.2-6.6,2.4-12.8.8-18.7-.6-2.3-1.7-4.7-2.7-7-1.2-2.6-2.4-5.3-3.2-8.3-2-7-1.8-13.9-1.5-20.6.2-5.6.4-10.7-.6-15.4-1-4.4-3-8.7-5.2-13.2-1.8-3.6-3.6-7.3-4.9-11.2-4.7-13.7-.7-26.8,2.8-38.4,1.4-4.6,3-9.8,5.2-14.8,1.2-2.7,2.6-5.4,3.7-7.5,1.7-3.2,3.3-6.3,4.4-9.5,1.7-4.7,2.6-10.1,3.5-15.4,1.8-10.6,3.6-21.5,11.5-30.1,2.9-3.1,6.2-4.8,9.6-4.8s1.8.1,2.6.3c5.9,1.6,9,7.7,7.9,15.7-.4,2.7-.8,5.3-1.2,7.9v.7c-1.1,5.7-2,11-2.2,16.5-.3,7.3,2.1,12.7,5,19.6,1.3,3.1,2.8,6.5,4,10.4,3,9.3,4.3,18.8,3.8,28.4-.2,3.8-.7,7.7-1.1,11.1-.6,5.1-1.2,9.9-1,14.6.3,7.9,2.7,15.5,7,22.1,1.8,2.7,3.8,5.2,6,7.9h.1c2.6,3.3,5.2,6.5,7.5,10.1,7.9,12.6,4.8,25.9,1.8,34.9-1.7,5-1.4,10.2-1.2,15.6.2,4.6.5,9.8-.5,15.2-.3,1.6-.7,3.2-1,4.6v.3c-.7,2.3-1.2,4.4-1.2,6.1,0,.7.3,1.4.6,1.8.6-.5,1.3-1.4,1.9-2.1,2.2-2.6,5.1-6.1,9.9-7.1,1.2-.3,2.6-.3,4.1-.2h1.2c1.6,0,3.8-1.5,6.3-3.3.9-.6,2.1-1.4,3.5-2.2h.2c7.5-4.7,9.8-6.8,10.5-7.6,0-.1,0-.2-.1-.4v-.2c-.3-.8-.5-1.9-.6-3.1-.2-3.1.8-5.8,1.6-7.7l.2-.5c2.1-5.4,2.7-10.3,2.1-14.4l-.3-1.6c-1-5.8-1.9-11.6-.7-18.3.6-3.5,1.8-6.7,2.8-9.7,1.4-3.9,2.6-7.4,2.6-10.7s-1.4-6.9-2.8-10.6l-.3-.7c-.4-1-.8-2.1-1.1-3.1-1.9-5.4-3.1-11.1-3.7-16.9-.3-2.8-.2-5.4-.1-8v-.3c0-2.2.1-4.5,0-6.6-.5-4.3-2-8.7-3.6-13.3-1.3-3.9-2.9-8.3-3.7-12.9-1.9-10.3-.3-20.3,1.2-30v-.2c.9-5.5,1.8-11.2,1.9-16.5,0-2.9,0-5.9-.2-8.9-.2-4.3-.4-8.5,0-12.9,1.1-14.2,9.6-22.8,17.1-30.3,3.5-3.5,7.1-7.1,9.8-11.3,2-3,3.4-6.2,4.3-9.7.5-1.9.8-4,1.1-5.9.8-4.6,1.5-9.3,4-13.9,1.3-2.4,2.8-4.4,4.2-6.3.5-.7,1-1.3,1.5-2,2.5-3.5,4.5-7.4,6.7-11.5,4.5-8.5,9-17.3,17.8-22.9,4.8-3.1,10-4.6,14.9-4.1,7.8.7,11.5,4.7,13.2,7.9,3.8,7,2,17.5-5.5,32.1-.7,1.4-1.5,2.8-2.2,4.2-3.9,7.3-7.9,14.8-7.8,22.4,0,1.6.2,3.3.5,5.3.2,2,.5,3.8.5,5.8.4,9.5-2.8,18-5.8,26.2-1.1,2.9-2.1,5.7-2.9,8.4-3.4,11.1-4.3,23.1-2.5,34.5.4,2.4.9,4.9,1.4,7.3v.4c1.8,8.4,3.6,17.1,1.7,26.1-.9,4.2-2.5,8-4,11.6-1.3,3-2.5,5.8-3.2,8.6-1.3,5.4-.9,11.7,1.2,17.2,4.6,12.2,8.2,25.3,3.9,38.4-.6,1.9-1.4,3.7-2.1,5.5-1.9,4.7-3.7,9.1-2.3,12,.1.3.3.6.5.9l.2.3c.7,1.2,1.7,2.8,2.1,4.9.3,1.3.4,2.4.4,3.4v.7h.3c.7,0,1.7-.3,2.7-1,.3-.2.6-.4.9-.6,1.3-.9,2.9-2,5-2.7,2.3-.7,4.4-.7,5.9-.7s.6,0,.9,0c4.3-.1,8.8-2.2,13.2-4.2,5.2-2.4,12.2-6.1,12.5-10.8,0-.9-.1-2.1-.3-3.2-.2-1.5-.4-2.8-.4-4.4,0-4.9,1.5-9.1,3-12.9l.3-.7c.3-.7.5-1.4.7-2,2-5.7,1.8-13.3,1.6-20.6,0-3.1-.1-5.9,0-8.7.3-14.3,4.4-27.4,8.4-40.2,3.5-11.3,6.7-21.8,7.5-32.5.1-1.7,0-3.6-.2-5.8-.3-3.1-.5-6.6,0-10.3,1-5.7,3.8-10.4,6.3-14.5,1-1.6,1.8-3.1,2.6-4.6,2.2-4.3,3.4-9.3,4.7-14.6,2.2-9.1,4.6-19.4,13.2-27.1,2.1-1.9,5.5-4.5,10.1-4.9h1c4.2,0,8.4,2.1,11.1,5.5,2.4,3,3.7,7,3.7,11.2,0,5.7-2.3,10.3-4.1,14v.2c-1,1.7-1.7,3.4-2.3,5-1.7,5.3-1.9,11.2-1.8,15.7,0,1.7,0,3.5.1,5.2v.4c.2,7.6.5,15.4-1.5,23.2-.8,3-1.8,5.7-2.8,8.4l-.6,1.6c-1.5,4.1-2.9,8.3-4.2,12.6-.9,3.2-1.9,6.9-2.4,10.6-.8,6.9.5,14,3.7,20.2.9,1.8,2,3.7,3,5.3,3.1,5.4,6.7,11.4,7.3,19.2.6,8.1-.9,16.7-4.6,27.3-.2.5-.3.9-.5,1.4-.8,2.2-1.5,4.1-1.6,5.8,0,1.1.3,2,.5,2.2h0s.4.1,1.3.1h.4c7.2-.2,13.2-6.4,16.1-10.1,2-2.5,3.7-5.3,5.5-8.3l.2-.3c3.9-6.5,8.4-13.8,16.3-18.5,9-5.3,20.7-9.1,32.3-10.4,1.5-.2,2.7-.3,3.8-.3,1.8,0,3.5.2,5.1.6,4.3,1.2,7.6,3.9,9.2,7.6,2.5,5.8,0,13.1-1.8,18.4v.3c-.3.4-.4.8-.5,1.1-2.5,7.7-6.2,13.1-11.3,16.5-2.3,1.6-4.7,2.6-6.7,3.4-1.9.8-3.6,1.5-4.9,2.5-1.8,1.3-3.3,3.6-4.8,6-1.7,2.6-3.4,5.1-5.8,7.5-2.5,2.5-5.3,4.2-7.7,5.7l-1.9,1.2c-2.9,1.8-5.6,4.1-8.4,6.4-3.5,2.9-7.1,5.8-11.3,8.3-1.6.9-3.2,1.8-4.8,2.7l-.5.3c-5.4,3-10.3,5.7-14.4,9.4-9.6,8.7-12.9,23.4-7.5,33.5.4.7.8,1.4,1.2,2.1,1.2,2.1,2.6,4.4,3.5,7.3,1.7,5.9.3,11.7-.8,16.4-.3,1.2-.6,2.4-.8,3.6-1.7,8.8-.1,18.3,4.5,26,.6,1,.9,1.4,1.1,1.6.4-.1,1.2-.5,1.8-1.3,1-1.4,1.8-3.4,2.6-5.6l.2-.5c.3-.8.6-1.6.9-2.4,4-10,11.4-18.5,20.9-23.9,6.4-3.7,12.7-6.3,19.1-8,2.9-.8,5.5-.9,7.3-.9h3.3c2.2,0,4.3.1,5.8-.2.8-.1,1.9-.7,3.1-1.2,1.5-.7,3.4-1.5,5.5-2,1.4-.3,2.8-.5,4.2-.5,5.1,0,9.8,2,13.8,3.8,1.5.7,3.9,1.8,5.6,4.4,1.8,2.7,2.3,5.7,1.4,8.5-1.6,4.9-6.5,6.9-9.7,8.2h-.2c-.4.3-.8.4-1.2.6-.3.5-.7,1.8-1,2.6-.8,2.2-1.7,4.9-3.6,7.2-2.9,3.4-6.1,5.8-9.2,8.3-3.4,2.6-6.6,5.1-8.6,8.2-1.3,2-2.5,4.3-3.7,6.7-.6,1.2-1.2,2.4-1.8,3.6-1.7,3.2-3.9,6.8-7.2,10.1-6.1,5.9-12.8,11.5-18.7,16.4-2.8,2.4-5.8,4.8-8.6,7.2-5.6,4.8-11,12.8-9.3,20.7.4,1.9,1.2,3.8,2,5.9.7,1.8,1.4,3.4,1.9,5.2,8.6,27.8-3.4,63.5-19.7,84.5l-1.1,1.3c-2.6,3.3-5,6.4-6.3,9.7s-1.6,7.2-2,11.3l-.2,1.8c-1,10.9-4.5,19.3-8.2,28.1v.3c-.6,1.2-1.1,2.3-1.6,3.5-1.6,3.9-2.2,7.5-1.9,10.9.3,3.1,1.5,6.3,2.7,9.7,1,2.9,2.1,5.9,2.8,9.2,1.6,7.7.8,16-2.3,23.2-.8,1.8-1.7,3.5-2.6,5.2l-.2.5c-.6,1.1-1.1,2.2-1.6,3.2-3.3,7.3-3.7,15.7-3.7,23.8v.8c0,3.1,0,6.3-.6,9.7-1.2,6.7-4.4,12.1-7.4,17.3-2.2,3.8-4.3,7.5-5.4,11.2-1,3.3-1.3,6.9-1.6,10.7v.2c-.2,1.5-.3,3.1-.5,4.6-.6,5.7-2,13-6.8,19-3.2,3.9-7.2,6.1-11.4,6.1h-.3c-4.3-.2-8.1-2.3-11.4-6.5-6.9-8.7-9.8-20.6-8.7-36.6.2-3.1.5-6.3.8-9.3.8-8,1.6-15.6.4-22.9-.4-2.6-1.1-5.2-1.8-8-1.1-4.4-2.2-8.7-2.5-13.4-.7-10,2.3-19.4,5.4-27.3,2.5-6.5,4-11.8,3.8-18.4,0-3.1-.2-6.2-.3-9.3v-.9c-.2-4-.4-8.2-.4-12.3-.3-19.9,2.7-35,9.7-49,1.6-3.2,3.7-6.4,5.9-9.8,4.7-7.1,9.9-15.1,8.8-21.5-.2-1.4-1-3-1.7-4.8-.9-2-1.8-4-2.4-6.3-1.7-6.9,0-13.3,1.4-19,.9-3.6,1.8-6.9,1.8-10,0-4.9-3.1-10.7-4.8-11.1-1,.8-3.1,3.8-3.9,4.9-2.6,3.7-5.3,7.5-9.2,9.5-1.4.7-2.8,1.3-4.1,1.8-2.3,1-4.4,1.8-5.9,3.1-.8.7-1.6,1.8-2.4,3.1v.2c-1,1.3-1.9,2.7-3.2,4.1-1.5,1.6-3,2.9-4.4,3.9-1.1.8-2.2,1.7-2.9,2.6-2.2,2.5-2.9,6.9-2.2,12.9.2,1.5.4,3,.7,4.6.8,5.2,1.6,10.3.8,15.9-.8,5.3-2.9,9.9-4.9,14.3-1.6,3.5-3.1,6.7-3.8,9.9-1.9,9,1.4,18.1,4.9,27.8,3.7,10.3,7.5,20.9,5.9,32.7-.3,2.2-.7,4.6-1.4,7.3-1.7,6.9-4.3,13.7-7.6,20.1-.9,1.8-2,3.6-2.9,5.3l-.4.7c-1.7,3-3.3,5.8-4.6,8.8-3.6,8.3-4.6,17.5-5.7,27.3-.3,3.1-.7,6.3-1.1,9.5-.3,2.4-.8,5.3-2.5,7.9-2.2,3.5-5.9,5.7-9.7,5.7s-1.1,0-1.7-.1c-4.7-.8-7.4-4.6-8.3-5.9-6.7-9.7-8.4-20.8-9.9-33.4-.5-4.5-1.1-9.6-.8-14.8,0-.9.1-1.8.2-2.7v-.9c.2-1.2.3-2.3.3-3.3.2-7.7-2.7-14.6-5.7-22v-.3c-2-4.5-3.9-9.1-5.2-14.1-4.1-15.7,1-31.9,5.2-42.8v-.4c1-2.2,1.8-4.2,1.8-5.9,0-.7-.2-1.6-.3-2.5v-.3c-.4-1.5-.6-3-.7-4.6-.1-3.4.7-6.3,1.3-9,.3-1.3.6-2.4.8-3.4.2-1.4,0-2.7-.2-3.1-1.4,0-4.4,2.1-6.3,3.2-2.4,1.5-4.8,3.1-7.5,4-2,.6-4,1.1-5.9,1.6-3.9,1-7.7,1.8-10.3,3.9-3.6,2.8-5.5,8.3-5.9,16.8-.1,2.2-.1,4.5.3,6.5.4,1.9,1.4,4,2.5,6.2.6,1.2,1.1,2.4,1.6,3.6,6.3,14.8,2.9,27.4-.8,40.8l-.9,3.4c-.7,2.5-1.3,4.8-1.4,7-.3,4.9,1.6,10,3.6,15.5,1.5,3.9,3.1,8.3,4,12.9,2,10.6-.4,20.7-2.7,30.5-1.3,5.5-2.6,11-3,16.3-.4,5.5,0,11.3.6,17.2l.2,2.3c.9,9.2,1.8,18.6,1.2,28.2,0,1.2-.3,4.9-3.5,7.4-1.5,1.2-3.3,1.8-5.2,1.8h0l-.3.1ZM391,686.4h.1c2.7,0,4.9,2,6.2,4,2.8,4.2,3.1,9.2,2.9,12.7-.3,4.4-1.5,8.8-2.8,13.2-.5,1.6-1,3.3-1.5,4.9-2,6.5-4.1,13.1-5.5,19.9-1.9,9.1-1.3,16.2,1.8,21.7,1,1.7,2,3.3,2.9,4.7,2.6,4,5.1,7.8,5.2,13.5,0,3.1-.5,6.3-1,9.6-1,5.8-1.9,11.2.4,16.4,1.1,2.6,2.8,4.7,4.6,6.9.8.9,1.5,1.8,2.2,2.7,6.4,8.7,8,19.9,9.6,30.7l.5,3.5c1.8,11.9,4.9,25,14.8,32.7,1.2.9,3.4,1.9,4.8.8,1-.8,1.2-2,1.2-3.2.6-9.1-.3-18.4-1.2-27.3l-.2-2.3c-.6-6.2-1.1-12.2-.6-18.2.4-5.7,1.8-11.4,3.1-17,2.2-9.3,4.5-18.8,2.7-28.2-.8-4.1-2.3-8.1-3.7-11.9-2.2-5.8-4.4-11.8-4-17.9.2-2.7.9-5.3,1.6-8.1l.9-3.4c3.6-12.9,6.6-24,1.1-37-.5-1.1-1-2.2-1.5-3.3-1.2-2.4-2.3-4.9-2.9-7.5-.6-2.7-.6-5.4-.4-8,.5-10.2,3.2-17.1,8.1-21,3.6-2.9,8.1-4,12.5-5,1.9-.4,3.7-.9,5.5-1.5,2-.6,4.1-2,6.2-3.3,3-1.9,6.5-4.1,9.5-4.1s2,.3,2.9.8c3,1.7,3.5,6,2.9,9.2-.2,1.2-.5,2.4-.9,3.7v.2c-.7,2.4-1.3,4.7-1.2,7.2,0,1.2.3,2.4.5,3.8v.3c.3,1.2.5,2.4.5,3.5,0,2.7-1,5.4-2,8v.4c-4,10.1-8.8,25.2-5.1,39.2,1.2,4.6,3.1,9.1,4.8,13.4v.3c3.4,8,6.5,15.5,6.3,24.3,0,1.2-.1,2.4-.3,3.7v.9c-.1.8-.2,1.6-.3,2.4-.3,4.8.3,9.6.8,13.9,1.4,11.8,3,22.2,8.9,30.7,1,1.4,2.4,3.2,4.5,3.5h.7c1.8,0,3.6-1.1,4.7-2.9,1-1.7,1.4-3.7,1.7-5.7.4-3.1.8-6.3,1.1-9.3,1.1-10.2,2.2-19.9,6.1-29,1.4-3.2,3.1-6.2,4.9-9.3l.4-.7c1-1.7,1.9-3.4,2.8-5.1,3.1-6,5.5-12.4,7.2-18.9.6-2.5,1-4.7,1.3-6.6,1.4-10.4-2.2-20.3-5.6-29.9-3.8-10.5-7.3-20.4-5.1-31,.8-3.8,2.5-7.5,4.1-11,1.9-4.1,3.8-8.3,4.5-12.8.7-4.7,0-9.5-.8-14-.3-1.8-.5-3.4-.7-5-.9-7.8.3-13.6,3.6-17.4,1.1-1.3,2.5-2.4,3.7-3.3,1.3-1,2.6-2,3.7-3.3,1-1,1.7-2.2,2.5-3.4l2.5,1.4-2.4-1.6c1-1.5,2.1-3.1,3.5-4.3,2.1-1.8,4.8-2.9,7.3-4,1.5-.6,2.6-1.1,3.8-1.7,2.6-1.3,4.9-4.5,7-7.6,3-4.2,5.1-7.1,7.6-7.4h.8c7,0,10.7,11,10.7,16.9,0,3.8-.9,7.5-2,11.5-1.4,5.3-2.8,10.7-1.4,16.1.5,1.8,1.2,3.5,2.1,5.4.9,2,1.8,4,2.2,6.2,1.5,8.6-4.5,17.7-9.7,25.6-2.1,3.2-4.1,6.3-5.6,9.2-6.6,13.1-9.4,27.4-9.1,46.3,0,4.1.2,8.2.4,12.2v.9c.2,3.1.3,6.2.4,9.4.2,7.5-1.5,13.5-4.2,20.6-2.8,7.3-5.6,16-5,24.9.3,4.2,1.3,8.3,2.3,12.2.8,3.1,1.5,5.8,1.9,8.6,1.3,8,.5,16-.3,24.4-.3,3-.6,6.1-.8,9.1-1,14.5,1.5,25.1,7.5,32.6,2.2,2.8,4.6,4.3,7,4.4h.2c2.4,0,4.8-1.4,6.9-3.9,3.9-4.8,5-11.1,5.5-16,.2-1.5.3-3,.4-4.4.4-4.3.7-8.2,1.8-12,1.3-4.4,3.5-8.4,5.9-12.5,2.8-4.8,5.6-9.8,6.7-15.5.5-2.9.5-5.8.5-8.6v-.8c0-8.7.5-17.9,4.2-26.1.5-1.2,1.1-2.3,1.8-3.6l.3-.5c.9-1.6,1.7-3.2,2.4-4.8,2.6-6.2,3.3-13.2,1.9-19.7-.6-2.9-1.6-5.7-2.6-8.4-1.3-3.8-2.6-7.3-3-11.1-.4-4.3.3-8.9,2.3-13.7.5-1.2,1-2.4,1.5-3.6v-.3c3.7-8.4,7-16.4,7.9-26.4l.2-1.8c.4-4.4.7-8.9,2.3-12.9,1.6-4.1,4.3-7.6,7.2-11.2l1-1.3c15.4-19.8,26.7-53.3,18.7-79.2-.5-1.6-1.1-3.1-1.8-4.8-.9-2.2-1.8-4.5-2.3-6.9-2.1-10.4,4.4-20.4,11.2-26.3,2.8-2.4,5.8-4.9,8.6-7.3,5.9-4.9,12.5-10.4,18.4-16.1,2.8-2.7,4.7-5.9,6.1-8.6.6-1.2,1.2-2.3,1.8-3.5,1.3-2.6,2.5-5,4-7.3,2.6-4,6.3-6.8,9.9-9.6,2.9-2.3,5.9-4.6,8.4-7.5,1.3-1.5,1.9-3.4,2.6-5.3.7-2.1,1.4-4.2,2.9-5.4l.2-.2c.5-.3,1.1-.6,2.3-1.1h.2c2.4-1.1,5.7-2.4,6.4-4.7.3-1.1,0-2.3-.7-3.6-.8-1.2-2.1-1.8-3.1-2.3-3.6-1.7-7.5-3.3-11.4-3.3s-2,.1-2.9.3c-1.6.4-3,1-4.4,1.6-1.5.7-2.9,1.3-4.5,1.6-1.2.2-2.5.3-4.1.3h-6c-1,0-3.5,0-5.8.7-5.9,1.6-11.7,4-17.7,7.5-8.4,4.8-14.9,12.3-18.4,21-.3.7-.6,1.5-.8,2.3l-.2.5c-.9,2.5-1.8,5.1-3.4,7.1-2.3,3-6.2,4.4-8.9,3-1.6-.8-2.7-2.4-3.6-4-5.3-8.9-7.1-19.9-5.1-30.1.3-1.3.5-2.5.8-3.7,1.1-4.5,2.2-9.1.9-13.5-.6-2.2-1.8-4.1-2.8-5.9-.5-.8-.9-1.6-1.4-2.4-6.6-12.4-2.7-30.2,8.8-40.5,4.6-4.2,9.8-7.1,15.4-10.2l.6-.4c1.6-.9,3.1-1.7,4.7-2.7,3.8-2.2,7.3-5.1,10.6-7.8,3-2.5,5.8-4.8,9-6.8l1.9-1.2c2.3-1.4,4.7-2.9,6.7-4.9,1.9-1.9,3.4-4.2,4.9-6.4,1.8-2.8,3.6-5.6,6.2-7.6,1.8-1.4,3.9-2.3,6-3.1,2.3-1,4.1-1.7,5.8-2.9,4-2.7,6.9-7,9-13.4,0-.4.3-.8.4-1.3v-.3c1.5-4.2,3.7-10.5,2.1-14.2-.9-2.1-2.9-3.6-5.4-4.3-1.1-.3-2.3-.4-3.6-.4s-1.9,0-3.2.2c-10.8,1.3-21.8,4.8-30.1,9.6-6.7,3.9-10.6,10.3-14.3,16.5l-.2.3c-1.9,3.1-3.7,6.1-5.9,8.8-3.6,4.5-10.9,12-20.6,12.3h-.5c-1.8,0-3.2-.3-4.3-1-2.2-1.3-3.4-4.2-3.2-7.4.2-2.5,1-4.9,1.9-7.3.2-.6.4-1,.5-1.5,3.5-9.8,4.9-17.7,4.3-25-.5-6.5-3.5-11.7-6.5-16.7-1-1.7-2.1-3.6-3.1-5.6-3.6-7.1-5.1-15.4-4.2-23.4.5-4.1,1.5-8.2,2.6-11.6,1.3-4.4,2.7-8.8,4.3-13l.6-1.6c1-2.6,2-5.2,2.6-7.9,1.8-7,1.6-14.4,1.4-21.5v-.4c0-1.8-.1-3.5-.1-5.3,0-5,.1-11.5,2.1-17.6.6-2,1.5-3.8,2.4-5.7v-.2c1.8-3.5,3.6-7.2,3.7-11.6,0-2.9-.8-5.6-2.4-7.5-1.7-2.1-4.1-3.3-6.6-3.3s-.3,0-.5,0c-2.9.2-5.2,2.1-6.8,3.4-7.2,6.5-9.2,15-11.4,24.1-1.4,5.7-2.6,11-5.2,16-.8,1.7-1.8,3.2-2.8,4.9-2.4,3.9-4.8,7.9-5.5,12.5-.5,3-.3,6,0,8.9.2,2.4.3,4.5.2,6.7-.8,11.4-4.1,22.2-7.6,33.7-3.9,12.5-7.8,25.3-8.2,38.8v8.4c.2,7.8.4,16-1.9,22.7-.3.7-.5,1.5-.8,2.2l-.3.7c-1.4,3.6-2.7,7-2.6,10.8,0,1.2.2,2.3.4,3.7.2,1.4.4,2.9.3,4.4-.5,7.7-8.7,12.4-15.9,15.7-4.7,2.1-9.9,4.6-15.4,4.7-1.6,0-3.4-.1-5.2.5-1.3.4-2.4,1.2-3.4,1.9-.4.3-.8.5-1.1.8-2.3,1.5-4.5,2.1-6.7,1.8-2.3-.3-4.3-1.9-4.9-3.9-.2-.7-.2-1.5-.3-2.3,0-.9,0-1.6-.3-2.4-.3-1.3-.9-2.3-1.5-3.4l-.2-.3c-.3-.5-.5-.9-.7-1.4-2.4-5.2,0-11,2.2-16.6.7-1.6,1.4-3.4,2-5.1,3.8-11.4.4-23.4-3.8-34.6-2.5-6.6-3-14.2-1.4-20.6.8-3.3,2.1-6.4,3.4-9.4,1.5-3.4,2.9-6.9,3.7-10.6,1.7-7.9,0-15.9-1.6-23.7v-.5c-.6-2.5-1.1-5.1-1.5-7.6-1.9-12.3-1-25.2,2.7-37.1.9-2.9,1.9-5.8,3-8.7,2.8-7.7,5.8-15.6,5.4-24,0-1.8-.3-3.5-.5-5.2-.3-2.3-.5-4.2-.5-6.1,0-9.1,4.3-17.3,8.5-25.2.7-1.4,1.5-2.8,2.2-4.1,6.5-12.5,8.4-21.5,5.6-26.6-1.5-2.8-4.5-4.5-8.7-4.9h-1.3c-3.2,0-6.7,1.1-9.9,3.2-7.5,4.9-11.7,12.9-15.8,20.7-2.2,4.2-4.4,8.5-7.1,12.2-.5.7-1,1.4-1.6,2.1-1.3,1.7-2.7,3.5-3.7,5.5-2,3.8-2.7,8-3.4,12.2-.3,2-.7,4.2-1.2,6.3-1,4.1-2.8,8-5.1,11.5-3.1,4.6-7,8.6-10.5,12.1-7.4,7.5-14.5,14.6-15.4,26.7-.3,4.1-.1,8.2,0,12.1.1,3.1.3,6.3.2,9.4-.1,5.8-1.1,11.6-2,17.3v.2c-1.5,9.2-3,18.7-1.3,28.1.8,4.2,2.2,8.4,3.5,12.1,1.7,4.9,3.3,9.6,3.8,14.6.3,2.5.2,5,.1,7.3v.2c0,2.4-.1,4.8,0,7.2.5,5.4,1.7,10.6,3.4,15.6.3,1,.7,2,1.1,2.9l.2.6c1.6,4.3,3.2,8.3,3.2,12.6s-1.4,8.3-2.9,12.6c-1,3-2.1,5.9-2.6,9-1,5.7-.1,11.1.7,16.3l.3,1.7c.9,5.2,0,11-2.4,17.4l-.2.5c-.6,1.6-1.3,3.4-1.2,5.3,0,.7.2,1.4.4,2.1.2.9.5,1.8.4,2.6v.6c-.5,1.8-1.9,4.2-13.3,11.2h-.2c-1.3.9-2.4,1.6-3.1,2.1-3.2,2.3-6.2,4.2-9.5,4.4h-2.5c-.7,0-1.2,0-1.7.1-2.8.6-4.8,3-6.6,5.1-1.8,2.1-3.6,4.3-6,4.5h-.3c-3.7,0-6.3-4-6.4-7.6-.1-2.6.6-5.2,1.3-7.8v-.3c.4-1.3.8-2.7,1-4.1.8-4.8.6-9.5.4-14-.3-5.8-.5-11.7,1.5-17.7,2.6-7.9,5.4-19.5-1.3-30-2.1-3.3-4.6-6.4-7.1-9.4v-.2c-2.5-2.8-4.6-5.5-6.5-8.4-4.9-7.5-7.6-16.1-8-25-.2-5.2.4-10.2,1.1-15.5.4-3.5.9-7.1,1-10.7.4-8.9-.8-17.8-3.5-26.4-1.2-3.6-2.6-6.9-3.8-9.9-3-7-5.7-13.6-5.4-22.1.2-5.8,1.2-11.6,2.1-17.2v-.7c.5-2.5,1-5.1,1.3-7.7.5-3.9-.1-8.4-3.7-9.4-1.9-.5-4.3.4-6.5,2.8-6.8,7.3-8.4,17.3-10,27-.9,5.6-1.9,11.3-3.7,16.5-1.3,3.5-3.1,6.9-4.7,10.2-1.1,2.1-2.4,4.7-3.5,7.2-2.1,4.7-3.6,9.7-4.9,14.1-3.3,10.8-6.9,22.9-2.8,34.9,1.2,3.6,2.9,7.1,4.6,10.4,2.4,5,4.6,9.5,5.7,14.6,1.2,5.5,1,11.2.8,16.7-.2,6.4-.5,12.9,1.3,19,.8,2.6,1.9,5.2,3,7.6,1,2.4,2.2,5,3,7.8,2,7.2.7,14-.7,21.3-.5,2.6-1,5.3-1.3,7.9-1.4,10.7-1.4,21.5-.1,32.1.2,2,.5,4,.8,6,.9,6.1,1.7,11.7,1.3,17.5-.5,8.8-4,16.2-9.5,20.1-4.6,3.3-10.2,4.2-16.1,5.2l-2.4.4c-6.4,1.1-14.6,3-21.2,7.7-6.9,4.9-11,12.4-10.7,19.6v.7c.1,1,.1,1.7,0,2.4-.5,1.8-2.2,2.8-4,3.9-1.5.9-3,1.8-4,3.1-.7.9-1.1,1.9-1.6,2.9-.2.6-.5,1.3-.9,1.9-1.2,2.2-3.4,3.7-5.4,5.2l-.4.3c-.5.3-.9.7-1.4,1-9.7,7.5-14.6,20.6-12.4,32.6.6,3.1,2,7,5.4,8.5,2.4,1,5.5.6,8.9-1.3,2.8-1.6,5.4-3.6,7.8-5.6,2.8-2.3,5.6-4.6,8.9-6.2,2.3-1.1,4.8-1.8,7-2.4,3.3-.9,6.7-1.9,9.6-3.8,4.4-2.9,7.1-7.6,9.8-12.1l.2-.4c1-1.7,1.9-3.3,3-4.8,4.7-6.9,11.5-12.3,19.2-15.3,3.3-1.3,5.6-1.5,7.6-.8,4.6,1.8,5.3,8.2,4.3,13.7-.6,3.4-1.4,6.7-2.3,10.2v.5c-1,3.7-2.1,7.8-2.8,12-1.7,10.8,1,21.8,7.7,31.9l1.4,2.1c4.8,7.1,9.8,14.4,10.5,22.8.2,2.5,0,6-2,8.4-1,1.2-2.3,2-3.6,2.8-1.4.9-2.9,1.7-4.3,2.5l-.3.2c-3.5,2-7,4-10.2,6.4-3.8,3-8.6,7.8-9.9,14.4-.3,1.7-.4,3.4-.5,5-.1,2.3-.2,4.6-.9,6.7-1.5,4.4-5.4,7.5-9.2,10.4l-.5.4c-1,.8-1.9,1.5-2.9,2.3-5.6,4.8-9.2,9.4-11,14-.4,1-.8,2-1.1,3.1l-.3.8c-1.5,4.1-3,8.2-5.2,11.8-.9,1.5-2,2.7-3.1,4.1l-8.5,10c-1.1,1.3-2.3,2.7-3.1,4.4-2.3,5-.1,10.9,1.3,14.9.2.6.5,1.4,1.2,2,.6.5,1.3.8,2.1.8,1.5,0,3-.9,3.5-1.3,4.9-3.5,7.2-9,9.6-14.8,2.2-5.2,4.5-10.6,8.8-13.9,1.2-.9,2.4-1.7,3.9-2.5,1.3-.8,2.8-1.6,4.2-2.7,1.5-1.2,2.7-2.5,3.8-3.9,1.1-1.3,2.2-2.5,3.4-3.5,4.3-3.6,9.3-4.8,14.5-6,.9-.2,1.9-.4,2.8-.7,6.6-1.7,12.4-5.9,15.8-11.7,1.5-2.5,2.6-5.3,3.6-8v-.2c1.4-3.5,2.7-6.8,4.7-9.6,1.1-1.5,2.9-3.3,5.1-3.5h.5ZM416,452.2h0ZM454.3,429h0ZM441.5,623.5c-.9,0-1.9-.2-3-.6-4-1.3-7.5-4.1-9.6-7.6-4.1-6.7-3.5-15-2.8-23.1,0-1,.1-1.9.2-2.8.2-3.2.4-7-.9-10.4-1.2-3.3-3.5-5.8-6-8.4-2.4-2.6-4.8-5.1-5.8-8.3-1.4-4-.5-8.5.2-12.4.2-1.3.5-2.5.7-3.8l.3-1.6c2.5-14.4,5.1-29.2,19.2-37.1,2.7-1.5,5.5-2.7,8.5-3.9,1.9-.8,3.6-1.5,5.4-2.3,5.9-2.7,9.7-5.7,12.1-9.6,1.1-1.7,2.7-3.9,4.5-4.2h.6c0-.1.6,0,.6,0,5.8,1.2,9.9,19.4,9.2,25.4-.3,2.8-.8,5.6-1.3,8.5l-2.9-.3,2.9.5c-1.1,6.3-2.3,12.7-1.3,19.1.4,2.9,1.3,5.8,2.2,8.6.7,2.3,1.4,4.7,1.9,7.1,1.2,6.2.2,12.1-.7,18.3l-.2,1.2c-.1.9-.3,1.7-.4,2.6-.2,1.7-.3,3.3-.4,4.8-.2,3.6-.3,6.8-2.3,10.2-2.4,4.1-6.2,6.9-10.2,9.8-3.9,2.9-7.8,5.8-10.4,9.8-.7,1-1.2,2-1.8,3.1v.2c-.7,1.1-1.2,2.1-1.9,3-1.5,2.2-3.3,3.6-5.2,3.9h-1l-.4.3ZM464.9,494.7s0,.1-.1.2c-3,4.8-7.7,8.6-14.6,11.8-1.8.8-3.7,1.6-5.4,2.3-3,1.2-5.6,2.3-8,3.6-11.8,6.6-13.9,18.8-16.4,33l-.3,1.6c-.2,1.3-.5,2.6-.7,3.8-.6,3.2-1.3,6.9-.4,9.4.7,2,2.5,4,4.5,6.1,2.7,2.9,5.6,6,7.2,10.4,1.6,4.3,1.6,8.7,1.3,12.8,0,.9-.1,1.9-.2,2.8-.5,7.2-1.1,14.6,2,19.7,1.5,2.4,3.8,4.3,6.5,5.2.8.3,1.1.3,1.2.3h0c.1,0,.7-.4,1.4-1.5.5-.7,1-1.6,1.5-2.5v-.2c.7-1.1,1.3-2.3,2.1-3.5,3.2-4.9,7.5-8.1,11.7-11.2,3.6-2.7,6.9-5.2,8.8-8.2,1.3-2.1,1.4-4.3,1.5-7.3,0-1.8.2-3.5.5-5.5.1-.9.3-1.8.4-2.7l.2-1.1c.9-5.8,1.8-11.1.8-16.4-.4-2.1-1-4.3-1.7-6.4-.9-3-1.9-6.1-2.4-9.5-1.1-7.3.2-14.3,1.4-21v-.3c.6-2.8,1-5.5,1.3-8.2.5-4.5-2.1-13.7-4.1-17.6h0v.1ZM534.8,560c-3.1,0-6.2-2.2-7.9-5.3-1.8-3.6-1.9-7.8-1.8-11.4v-1c.2-2.4.3-4.8-.3-7.2-.6-2.6-2-4.8-3.3-6.9l-.2-.3c-.5-.8-1-1.6-1.4-2.4-3.2-6-4.2-13.2-2.8-19.8,1.7-7.6,1-15,.4-22.1-.5-5.8-1-11.2-.4-17.1.3-2.8.8-5.9,2.6-8.3,1.6-2.1,4-3.4,6.3-4.7l.6-.3c4-2.2,8-4.7,11.7-7.4l1.4-1c2.7-2,5.2-3.7,8-4.9,3.6-1.6,7.4-1.8,10.4-.4,6.8,3.1,5.2,12.2,4.1,18.9-.1.7-.2,1.4-.3,2-1.2,7.2-1.3,14.4-.4,21.6.4,2.8.9,5.6,1.4,8.5.5,2.6.9,5.2,1.6,7.7.8,3.2,1.8,6.4,3,9.6.4.9.8,1.9,1.2,2.8l.4,1c2.5,5.9,4.9,11.5,4.1,17.2,0,.6-.2,1.1-.3,1.7-1.3,5.2-5.4,9.8-12.1,13.9-1.8,1.1-3.7,2.1-5.5,3.1-3.8,2-7.8,4.2-11.2,7.1-.4.3-.8.7-1.2,1l-.4.3c-2,1.8-4.2,3.8-6.7,4.2h-1.1l.1-.1ZM554,444.4c-1.2,0-2.5.3-3.8.9-2.3,1-4.5,2.6-6.8,4.2l-1.5,1.1c-4,2.8-8.1,5.4-12.3,7.7l-.5.3c-2,1.1-3.8,2.1-4.6,3.2-1.1,1.4-1.3,4.3-1.5,5.4-.5,5.3,0,10.5.4,15.9.7,7.6,1.4,15.4-.5,23.9-1.2,5.3-.4,11.1,2.2,15.8.4.7.8,1.4,1.2,2.1l.2.3c1.5,2.4,3.1,5.1,4,8.5.8,3.2.6,6.4.5,8.9v1c-.2,2.9-.1,6.1,1.1,8.5.7,1.4,2.1,2.2,2.7,2.2,1-.2,2.7-1.6,4-2.8l.3-.3c.4-.4.9-.8,1.3-1.2,3.9-3.3,8.1-5.6,12.2-7.8,1.8-.9,3.6-1.9,5.3-2.9,5.4-3.2,8.6-6.7,9.5-10.3,0-.3.2-.7.2-1.1.5-4.2-1.5-9-3.7-14.2l-.4-1c-.4-1-.8-1.9-1.2-2.9-1.3-3.4-2.4-6.9-3.3-10.3-.6-2.6-1.1-5.3-1.6-7.8-.6-3.1-1.1-6-1.5-8.9-1-7.8-.8-15.6.4-23.3,0-.7.2-1.4.4-2.1,1.2-7,1.5-11.6-.8-12.6-.5-.3-1.2-.4-1.9-.4h0Z" fill="#090908"/>
  <path d="M434.5,890.5c-2.3,0-4.6-.9-6.8-2.6-11.5-9-15-23.5-17-36.5l-.5-3.5c-1.5-10.1-3-20.6-8.5-28-.6-.8-1.3-1.6-2-2.5-1.9-2.3-4.1-4.9-5.5-8.3-2.9-6.8-1.8-13.6-.8-19.6.5-3.1,1-6,.9-8.6-.1-4-1.9-6.7-4.3-10.5-.9-1.4-2-3.1-3.1-5-3.8-6.8-4.5-15.2-2.4-25.7,1.5-7.1,3.6-13.9,5.6-20.5.5-1.6,1-3.3,1.5-4.9,1.3-4.3,2.4-8.1,2.6-11.9.1-2.6,0-6.2-2-9.2-.4-.6-.8-1-1.1-1.2-.2.2-.5.5-.9,1-1.6,2.2-2.7,5.1-3.9,8.2v.3c-1.2,2.9-2.4,6-4.1,8.9-4.2,7.1-11.3,12.3-19.4,14.4-1,.3-2,.5-2.9.7-4.9,1.1-8.8,2-12.1,4.8-.9.8-1.8,1.7-2.8,2.9-1.3,1.5-2.7,3.1-4.6,4.6-1.7,1.4-3.5,2.4-4.9,3.2-1.3.7-2.3,1.3-3.2,2-3.1,2.4-5,6.9-7,11.6-2.5,6-5.4,12.8-11.6,17.2-1.3.9-3.8,2.4-6.9,2.4s-4.5-.8-6.1-2.4c-1.7-1.6-2.3-3.5-2.6-4.3-1.5-4.2-4.4-12.1-1.1-19.3,1.1-2.4,2.7-4.3,3.9-5.8l8.4-9.9c1.1-1.3,2.1-2.4,2.7-3.5,1.9-3.1,3.3-6.9,4.7-10.7l.3-.9c.4-1.1.8-2.1,1.2-3.2,2.2-5.6,6.3-10.9,12.6-16.3,1-.8,2-1.7,3-2.5l.5-.4c3.3-2.6,6.4-5,7.3-7.7.4-1.3.5-3.1.6-5,0-2,.2-3.9.6-5.9,1.6-8.4,7.4-14.4,12-17.9,3.5-2.7,7.2-4.8,10.7-6.8l.4-.2c1.4-.8,2.8-1.6,4.2-2.4.6-.4,1.7-1,2.2-1.6.6-.7.8-2.3.7-4.2-.6-6.8-5.1-13.5-9.5-20l-1.5-2.1c-7.6-11.3-10.6-23.7-8.6-36,.7-4.5,1.8-8.9,2.8-12.5v-.5c1-3.4,1.8-6.5,2.3-9.7.8-4.3-.1-7.1-.7-7.3h-.4c-.7,0-1.7.3-3.1.8-6.6,2.6-12.5,7.3-16.5,13.2-.9,1.4-1.8,2.9-2.8,4.5l-.2.4c-2.8,4.8-6,10.3-11.6,14-3.7,2.5-7.7,3.6-11.2,4.6-2,.6-4.2,1.2-6.1,2.1-2.7,1.3-5.1,3.3-7.7,5.4-2.5,2-5.3,4.3-8.6,6.2-5,2.8-9.9,3.3-14,1.6-3.2-1.4-7.3-4.7-8.8-12.8-2.6-14.1,3.2-29.5,14.5-38.3.5-.4,1-.8,1.5-1.1l.4-.3c1.6-1.1,3.2-2.3,3.8-3.4.2-.3.4-.8.5-1.2.5-1.3,1.2-2.8,2.3-4.3,1.7-2.2,3.8-3.5,5.5-4.5.4-.3,1-.6,1.4-.9v-.9c-.4-9.2,4.6-18.6,13.1-24.6,7.6-5.4,16.6-7.5,23.6-8.7l2.3-.4c5.3-.9,10.3-1.7,13.7-4.2,4.1-2.9,6.7-8.7,7.1-15.7.3-5.2-.5-10.5-1.3-16.1-.3-2.2-.6-4.2-.8-6.2-1.3-11.1-1.3-22.3.1-33.5.4-2.9.9-5.7,1.4-8.2,1.2-6.6,2.4-12.8.8-18.7-.6-2.3-1.7-4.7-2.7-7-1.2-2.6-2.4-5.3-3.2-8.3-2-7-1.8-13.9-1.5-20.6.2-5.6.4-10.7-.6-15.4-1-4.4-3-8.7-5.2-13.2-1.8-3.6-3.6-7.3-4.9-11.2-4.7-13.7-.7-26.8,2.8-38.4,1.4-4.6,3-9.8,5.2-14.8,1.2-2.7,2.6-5.4,3.7-7.5,1.7-3.2,3.3-6.3,4.4-9.5,1.7-4.7,2.6-10.1,3.5-15.4,1.8-10.6,3.6-21.5,11.5-30.1,2.9-3.1,6.2-4.8,9.6-4.8s1.8.1,2.6.3c5.9,1.6,9,7.7,7.9,15.7-.4,2.7-.8,5.3-1.2,7.9v.7c-1.1,5.7-2,11-2.2,16.5-.3,7.3,2.1,12.7,5,19.6,1.3,3.1,2.8,6.5,4,10.4,3,9.3,4.3,18.8,3.8,28.4-.2,3.8-.7,7.7-1.1,11.1-.6,5.1-1.2,9.9-1,14.6.3,7.9,2.7,15.5,7,22.1,1.8,2.7,3.8,5.2,6,7.9h.1c2.6,3.3,5.2,6.5,7.5,10.1,7.9,12.6,4.8,25.9,1.8,34.9-1.7,5-1.4,10.2-1.2,15.6.2,4.6.5,9.8-.5,15.2-.3,1.6-.7,3.2-1,4.6v.3c-.7,2.3-1.2,4.4-1.2,6.1,0,.7.3,1.4.6,1.8.6-.5,1.3-1.4,1.9-2.1,2.2-2.6,5.1-6.1,9.9-7.1,1.2-.3,2.6-.3,4.1-.2h1.2c1.6,0,3.8-1.5,6.3-3.3.9-.6,2.1-1.4,3.5-2.2h.2c7.5-4.7,9.8-6.8,10.5-7.6,0-.1,0-.2-.1-.4v-.2c-.3-.8-.5-1.9-.6-3.1-.2-3.1.8-5.8,1.6-7.7l.2-.5c2.1-5.4,2.7-10.3,2.1-14.4l-.3-1.6c-1-5.8-1.9-11.6-.7-18.3.6-3.5,1.8-6.7,2.8-9.7,1.4-3.9,2.6-7.4,2.6-10.7s-1.4-6.9-2.8-10.6l-.3-.7c-.4-1-.8-2.1-1.1-3.1-1.9-5.4-3.1-11.1-3.7-16.9-.3-2.8-.2-5.4-.1-8v-.3c0-2.2.1-4.5,0-6.6-.5-4.3-2-8.7-3.6-13.3-1.3-3.9-2.9-8.3-3.7-12.9-1.9-10.3-.3-20.3,1.2-30v-.2c.9-5.5,1.8-11.2,1.9-16.5,0-2.9,0-5.9-.2-8.9-.2-4.3-.4-8.5,0-12.9,1.1-14.2,9.6-22.8,17.1-30.3,3.5-3.5,7.1-7.1,9.8-11.3,2-3,3.4-6.2,4.3-9.7.5-1.9.8-4,1.1-5.9.8-4.6,1.5-9.3,4-13.9,1.3-2.4,2.8-4.4,4.2-6.3.5-.7,1-1.3,1.5-2,2.5-3.5,4.5-7.4,6.7-11.5,4.5-8.5,9-17.3,17.8-22.9,4.8-3.1,10-4.6,14.9-4.1,7.8.7,11.5,4.7,13.2,7.9,3.8,7,2,17.5-5.5,32.1-.7,1.4-1.5,2.8-2.2,4.2-3.9,7.3-7.9,14.8-7.8,22.4,0,1.6.2,3.3.5,5.3.2,2,.5,3.8.5,5.8.4,9.5-2.8,18-5.8,26.2-1.1,2.9-2.1,5.7-2.9,8.4-3.4,11.1-4.3,23.1-2.5,34.5.4,2.4.9,4.9,1.4,7.3v.4c1.8,8.4,3.6,17.1,1.7,26.1-.9,4.2-2.5,8-4,11.6-1.3,3-2.5,5.8-3.2,8.6-1.3,5.4-.9,11.7,1.2,17.2,4.6,12.2,8.2,25.3,3.9,38.4-.6,1.9-1.4,3.7-2.1,5.5-1.9,4.7-3.7,9.1-2.3,12,.1.3.3.6.5.9l.2.3c.7,1.2,1.7,2.8,2.1,4.9.3,1.3.4,2.4.4,3.4v.7h.3c.7,0,1.7-.3,2.7-1,.3-.2.6-.4.9-.6,1.3-.9,2.9-2,5-2.7,2.3-.7,4.4-.7,5.9-.7s.6,0,.9,0c4.3-.1,8.8-2.2,13.2-4.2,5.2-2.4,12.2-6.1,12.5-10.8,0-.9-.1-2.1-.3-3.2-.2-1.5-.4-2.8-.4-4.4,0-4.9,1.5-9.1,3-12.9l.3-.7c.3-.7.5-1.4.7-2,2-5.7,1.8-13.3,1.6-20.6,0-3.1-.1-5.9,0-8.7.3-14.3,4.4-27.4,8.4-40.2,3.5-11.3,6.7-21.8,7.5-32.5.1-1.7,0-3.6-.2-5.8-.3-3.1-.5-6.6,0-10.3,1-5.7,3.8-10.4,6.3-14.5,1-1.6,1.8-3.1,2.6-4.6,2.2-4.3,3.4-9.3,4.7-14.6,2.2-9.1,4.6-19.4,13.2-27.1,2.1-1.9,5.5-4.5,10.1-4.9h1c4.2,0,8.4,2.1,11.1,5.5,2.4,3,3.7,7,3.7,11.2,0,5.7-2.3,10.3-4.1,14v.2c-1,1.7-1.7,3.4-2.3,5-1.7,5.3-1.9,11.2-1.8,15.7,0,1.7,0,3.5.1,5.2v.4c.2,7.6.5,15.4-1.5,23.2-.8,3-1.8,5.7-2.8,8.4l-.6,1.6c-1.5,4.1-2.9,8.3-4.2,12.6-.9,3.2-1.9,6.9-2.4,10.6-.8,6.9.5,14,3.7,20.2.9,1.8,2,3.7,3,5.3,3.1,5.4,6.7,11.4,7.3,19.2.6,8.1-.9,16.7-4.6,27.3-.2.5-.3.9-.5,1.4-.8,2.2-1.5,4.1-1.6,5.8,0,1.1.3,2,.5,2.2h0s.4.1,1.3.1h.4c7.2-.2,13.2-6.4,16.1-10.1,2-2.5,3.7-5.3,5.5-8.3l.2-.3c3.9-6.5,8.4-13.8,16.3-18.5,9-5.3,20.7-9.1,32.3-10.4,1.5-.2,2.7-.3,3.8-.3,1.8,0,3.5.2,5.1.6,4.3,1.2,7.6,3.9,9.2,7.6,2.5,5.8,0,13.1-1.8,18.4v.3c-.3.4-.4.8-.5,1.1-2.5,7.7-6.2,13.1-11.3,16.5-2.3,1.6-4.7,2.6-6.7,3.4-1.9.8-3.6,1.5-4.9,2.5-1.8,1.3-3.3,3.6-4.8,6-1.7,2.6-3.4,5.1-5.8,7.5-2.5,2.5-5.3,4.2-7.7,5.7l-1.9,1.2c-2.9,1.8-5.6,4.1-8.4,6.4-3.5,2.9-7.1,5.8-11.3,8.3-1.6.9-3.2,1.8-4.8,2.7l-.5.3c-5.4,3-10.3,5.7-14.4,9.4-9.6,8.7-12.9,23.4-7.5,33.5.4.7.8,1.4,1.2,2.1,1.2,2.1,2.6,4.4,3.5,7.3,1.7,5.9.3,11.7-.8,16.4-.3,1.2-.6,2.4-.8,3.6-1.7,8.8-.1,18.3,4.5,26,.6,1,.9,1.4,1.1,1.6.4-.1,1.2-.5,1.8-1.3,1-1.4,1.8-3.4,2.6-5.6l.2-.5c.3-.8.6-1.6.9-2.4,4-10,11.4-18.5,20.9-23.9,6.4-3.7,12.7-6.3,19.1-8,2.9-.8,5.5-.9,7.3-.9h3.3c2.2,0,4.3.1,5.8-.2.8-.1,1.9-.7,3.1-1.2,1.5-.7,3.4-1.5,5.5-2,1.4-.3,2.8-.5,4.2-.5,5.1,0,9.8,2,13.8,3.8,1.5.7,3.9,1.8,5.6,4.4,1.8,2.7,2.3,5.7,1.4,8.5-1.6,4.9-6.5,6.9-9.7,8.2h-.2c-.4.3-.8.4-1.2.6-.3.5-.7,1.8-1,2.6-.8,2.2-1.7,4.9-3.6,7.2-2.9,3.4-6.1,5.8-9.2,8.3-3.4,2.6-6.6,5.1-8.6,8.2-1.3,2-2.5,4.3-3.7,6.7-.6,1.2-1.2,2.4-1.8,3.6-1.7,3.2-3.9,6.8-7.2,10.1-6.1,5.9-12.8,11.5-18.7,16.4-2.8,2.4-5.8,4.8-8.6,7.2-5.6,4.8-11,12.8-9.3,20.7.4,1.9,1.2,3.8,2,5.9.7,1.8,1.4,3.4,1.9,5.2,8.6,27.8-3.4,63.5-19.7,84.5l-1.1,1.3c-2.6,3.3-5,6.4-6.3,9.7s-1.6,7.2-2,11.3l-.2,1.8c-1,10.9-4.5,19.3-8.2,28.1v.3c-.6,1.2-1.1,2.3-1.6,3.5-1.6,3.9-2.2,7.5-1.9,10.9.3,3.1,1.5,6.3,2.7,9.7,1,2.9,2.1,5.9,2.8,9.2,1.6,7.7.8,16-2.3,23.2-.8,1.8-1.7,3.5-2.6,5.2l-.2.5c-.6,1.1-1.1,2.2-1.6,3.2-3.3,7.3-3.7,15.7-3.7,23.8v.8c0,3.1,0,6.3-.6,9.7-1.2,6.7-4.4,12.1-7.4,17.3-2.2,3.8-4.3,7.5-5.4,11.2-1,3.3-1.3,6.9-1.6,10.7v.2c-.2,1.5-.3,3.1-.5,4.6-.6,5.7-2,13-6.8,19-3.2,3.9-7.2,6.1-11.4,6.1h-.3c-4.3-.2-8.1-2.3-11.4-6.5-6.9-8.7-9.8-20.6-8.7-36.6.2-3.1.5-6.3.8-9.3.8-8,1.6-15.6.4-22.9-.4-2.6-1.1-5.2-1.8-8-1.1-4.4-2.2-8.7-2.5-13.4-.7-10,2.3-19.4,5.4-27.3,2.5-6.5,4-11.8,3.8-18.4,0-3.1-.2-6.2-.3-9.3v-.9c-.2-4-.4-8.2-.4-12.3-.3-19.9,2.7-35,9.7-49,1.6-3.2,3.7-6.4,5.9-9.8,4.7-7.1,9.9-15.1,8.8-21.5-.2-1.4-1-3-1.7-4.8-.9-2-1.8-4-2.4-6.3-1.7-6.9,0-13.3,1.4-19,.9-3.6,1.8-6.9,1.8-10,0-4.9-3.1-10.7-4.8-11.1-1,.8-3.1,3.8-3.9,4.9-2.6,3.7-5.3,7.5-9.2,9.5-1.4.7-2.8,1.3-4.1,1.8-2.3,1-4.4,1.8-5.9,3.1-.8.7-1.6,1.8-2.4,3.1v.2c-1,1.3-1.9,2.7-3.2,4.1-1.5,1.6-3,2.9-4.4,3.9-1.1.8-2.2,1.7-2.9,2.6-2.2,2.5-2.9,6.9-2.2,12.9.2,1.5.4,3,.7,4.6.8,5.2,1.6,10.3.8,15.9-.8,5.3-2.9,9.9-4.9,14.3-1.6,3.5-3.1,6.7-3.8,9.9-1.9,9,1.4,18.1,4.9,27.8,3.7,10.3,7.5,20.9,5.9,32.7-.3,2.2-.7,4.6-1.4,7.3-1.7,6.9-4.3,13.7-7.6,20.1-.9,1.8-2,3.6-2.9,5.3l-.4.7c-1.7,3-3.3,5.8-4.6,8.8-3.6,8.3-4.6,17.5-5.7,27.3-.3,3.1-.7,6.3-1.1,9.5-.3,2.4-.8,5.3-2.5,7.9-2.2,3.5-5.9,5.7-9.7,5.7s-1.1,0-1.7-.1c-4.7-.8-7.4-4.6-8.3-5.9-6.7-9.7-8.4-20.8-9.9-33.4-.5-4.5-1.1-9.6-.8-14.8,0-.9.1-1.8.2-2.7v-.9c.2-1.2.3-2.3.3-3.3.2-7.7-2.7-14.6-5.7-22v-.3c-2-4.5-3.9-9.1-5.2-14.1-4.1-15.7,1-31.9,5.2-42.8v-.4c1-2.2,1.8-4.2,1.8-5.9,0-.7-.2-1.6-.3-2.5v-.3c-.4-1.5-.6-3-.7-4.6-.1-3.4.7-6.3,1.3-9,.3-1.3.6-2.4.8-3.4.2-1.4,0-2.7-.2-3.1-1.4,0-4.4,2.1-6.3,3.2-2.4,1.5-4.8,3.1-7.5,4-2,.6-4,1.1-5.9,1.6-3.9,1-7.7,1.8-10.3,3.9-3.6,2.8-5.5,8.3-5.9,16.8-.1,2.2-.1,4.5.3,6.5.4,1.9,1.4,4,2.5,6.2.6,1.2,1.1,2.4,1.6,3.6,6.3,14.8,2.9,27.4-.8,40.8l-.9,3.4c-.7,2.5-1.3,4.8-1.4,7-.3,4.9,1.6,10,3.6,15.5,1.5,3.9,3.1,8.3,4,12.9,2,10.6-.4,20.7-2.7,30.5-1.3,5.5-2.6,11-3,16.3-.4,5.5,0,11.3.6,17.2l.2,2.3c.9,9.2,1.8,18.6,1.2,28.2,0,1.2-.3,4.9-3.5,7.4-1.5,1.2-3.3,1.8-5.2,1.8h0l-.3.1ZM391,686.4h.1c2.7,0,4.9,2,6.2,4,2.8,4.2,3.1,9.2,2.9,12.7-.3,4.4-1.5,8.8-2.8,13.2-.5,1.6-1,3.3-1.5,4.9-2,6.5-4.1,13.1-5.5,19.9-1.9,9.1-1.3,16.2,1.8,21.7,1,1.7,2,3.3,2.9,4.7,2.6,4,5.1,7.8,5.2,13.5,0,3.1-.5,6.3-1,9.6-1,5.8-1.9,11.2.4,16.4,1.1,2.6,2.8,4.7,4.6,6.9.8.9,1.5,1.8,2.2,2.7,6.4,8.7,8,19.9,9.6,30.7l.5,3.5c1.8,11.9,4.9,25,14.8,32.7,1.2.9,3.4,1.9,4.8.8,1-.8,1.2-2,1.2-3.2.6-9.1-.3-18.4-1.2-27.3l-.2-2.3c-.6-6.2-1.1-12.2-.6-18.2.4-5.7,1.8-11.4,3.1-17,2.2-9.3,4.5-18.8,2.7-28.2-.8-4.1-2.3-8.1-3.7-11.9-2.2-5.8-4.4-11.8-4-17.9.2-2.7.9-5.3,1.6-8.1l.9-3.4c3.6-12.9,6.6-24,1.1-37-.5-1.1-1-2.2-1.5-3.3-1.2-2.4-2.3-4.9-2.9-7.5-.6-2.7-.6-5.4-.4-8,.5-10.2,3.2-17.1,8.1-21,3.6-2.9,8.1-4,12.5-5,1.9-.4,3.7-.9,5.5-1.5,2-.6,4.1-2,6.2-3.3,3-1.9,6.5-4.1,9.5-4.1s2,.3,2.9.8c3,1.7,3.5,6,2.9,9.2-.2,1.2-.5,2.4-.9,3.7v.2c-.7,2.4-1.3,4.7-1.2,7.2,0,1.2.3,2.4.5,3.8v.3c.3,1.2.5,2.4.5,3.5,0,2.7-1,5.4-2,8v.4c-4,10.1-8.8,25.2-5.1,39.2,1.2,4.6,3.1,9.1,4.8,13.4v.3c3.4,8,6.5,15.5,6.3,24.3,0,1.2-.1,2.4-.3,3.7v.9c-.1.8-.2,1.6-.3,2.4-.3,4.8.3,9.6.8,13.9,1.4,11.8,3,22.2,8.9,30.7,1,1.4,2.4,3.2,4.5,3.5h.7c1.8,0,3.6-1.1,4.7-2.9,1-1.7,1.4-3.7,1.7-5.7.4-3.1.8-6.3,1.1-9.3,1.1-10.2,2.2-19.9,6.1-29,1.4-3.2,3.1-6.2,4.9-9.3l.4-.7c1-1.7,1.9-3.4,2.8-5.1,3.1-6,5.5-12.4,7.2-18.9.6-2.5,1-4.7,1.3-6.6,1.4-10.4-2.2-20.3-5.6-29.9-3.8-10.5-7.3-20.4-5.1-31,.8-3.8,2.5-7.5,4.1-11,1.9-4.1,3.8-8.3,4.5-12.8.7-4.7,0-9.5-.8-14-.3-1.8-.5-3.4-.7-5-.9-7.8.3-13.6,3.6-17.4,1.1-1.3,2.5-2.4,3.7-3.3,1.3-1,2.6-2,3.7-3.3,1-1,1.7-2.2,2.5-3.4l2.5,1.4-2.4-1.6c1-1.5,2.1-3.1,3.5-4.3,2.1-1.8,4.8-2.9,7.3-4,1.5-.6,2.6-1.1,3.8-1.7,2.6-1.3,4.9-4.5,7-7.6,3-4.2,5.1-7.1,7.6-7.4h.8c7,0,10.7,11,10.7,16.9,0,3.8-.9,7.5-2,11.5-1.4,5.3-2.8,10.7-1.4,16.1.5,1.8,1.2,3.5,2.1,5.4.9,2,1.8,4,2.2,6.2,1.5,8.6-4.5,17.7-9.7,25.6-2.1,3.2-4.1,6.3-5.6,9.2-6.6,13.1-9.4,27.4-9.1,46.3,0,4.1.2,8.2.4,12.2v.9c.2,3.1.3,6.2.4,9.4.2,7.5-1.5,13.5-4.2,20.6-2.8,7.3-5.6,16-5,24.9.3,4.2,1.3,8.3,2.3,12.2.8,3.1,1.5,5.8,1.9,8.6,1.3,8,.5,16-.3,24.4-.3,3-.6,6.1-.8,9.1-1,14.5,1.5,25.1,7.5,32.6,2.2,2.8,4.6,4.3,7,4.4h.2c2.4,0,4.8-1.4,6.9-3.9,3.9-4.8,5-11.1,5.5-16,.2-1.5.3-3,.4-4.4.4-4.3.7-8.2,1.8-12,1.3-4.4,3.5-8.4,5.9-12.5,2.8-4.8,5.6-9.8,6.7-15.5.5-2.9.5-5.8.5-8.6v-.8c0-8.7.5-17.9,4.2-26.1.5-1.2,1.1-2.3,1.8-3.6l.3-.5c.9-1.6,1.7-3.2,2.4-4.8,2.6-6.2,3.3-13.2,1.9-19.7-.6-2.9-1.6-5.7-2.6-8.4-1.3-3.8-2.6-7.3-3-11.1-.4-4.3.3-8.9,2.3-13.7.5-1.2,1-2.4,1.5-3.6v-.3c3.7-8.4,7-16.4,7.9-26.4l.2-1.8c.4-4.4.7-8.9,2.3-12.9,1.6-4.1,4.3-7.6,7.2-11.2l1-1.3c15.4-19.8,26.7-53.3,18.7-79.2-.5-1.6-1.1-3.1-1.8-4.8-.9-2.2-1.8-4.5-2.3-6.9-2.1-10.4,4.4-20.4,11.2-26.3,2.8-2.4,5.8-4.9,8.6-7.3,5.9-4.9,12.5-10.4,18.4-16.1,2.8-2.7,4.7-5.9,6.1-8.6.6-1.2,1.2-2.3,1.8-3.5,1.3-2.6,2.5-5,4-7.3,2.6-4,6.3-6.8,9.9-9.6,2.9-2.3,5.9-4.6,8.4-7.5,1.3-1.5,1.9-3.4,2.6-5.3.7-2.1,1.4-4.2,2.9-5.4l.2-.2c.5-.3,1.1-.6,2.3-1.1h.2c2.4-1.1,5.7-2.4,6.4-4.7.3-1.1,0-2.3-.7-3.6-.8-1.2-2.1-1.8-3.1-2.3-3.6-1.7-7.5-3.3-11.4-3.3s-2,.1-2.9.3c-1.6.4-3,1-4.4,1.6-1.5.7-2.9,1.3-4.5,1.6-1.2.2-2.5.3-4.1.3h-6c-1,0-3.5,0-5.8.7-5.9,1.6-11.7,4-17.7,7.5-8.4,4.8-14.9,12.3-18.4,21-.3.7-.6,1.5-.8,2.3l-.2.5c-.9,2.5-1.8,5.1-3.4,7.1-2.3,3-6.2,4.4-8.9,3-1.6-.8-2.7-2.4-3.6-4-5.3-8.9-7.1-19.9-5.1-30.1.3-1.3.5-2.5.8-3.7,1.1-4.5,2.2-9.1.9-13.5-.6-2.2-1.8-4.1-2.8-5.9-.5-.8-.9-1.6-1.4-2.4-6.6-12.4-2.7-30.2,8.8-40.5,4.6-4.2,9.8-7.1,15.4-10.2l.6-.4c1.6-.9,3.1-1.7,4.7-2.7,3.8-2.2,7.3-5.1,10.6-7.8,3-2.5,5.8-4.8,9-6.8l1.9-1.2c2.3-1.4,4.7-2.9,6.7-4.9,1.9-1.9,3.4-4.2,4.9-6.4,1.8-2.8,3.6-5.6,6.2-7.6,1.8-1.4,3.9-2.3,6-3.1,2.3-1,4.1-1.7,5.8-2.9,4-2.7,6.9-7,9-13.4,0-.4.3-.8.4-1.3v-.3c1.5-4.2,3.7-10.5,2.1-14.2-.9-2.1-2.9-3.6-5.4-4.3-1.1-.3-2.3-.4-3.6-.4s-1.9,0-3.2.2c-10.8,1.3-21.8,4.8-30.1,9.6-6.7,3.9-10.6,10.3-14.3,16.5l-.2.3c-1.9,3.1-3.7,6.1-5.9,8.8-3.6,4.5-10.9,12-20.6,12.3h-.5c-1.8,0-3.2-.3-4.3-1-2.2-1.3-3.4-4.2-3.2-7.4.2-2.5,1-4.9,1.9-7.3.2-.6.4-1,.5-1.5,3.5-9.8,4.9-17.7,4.3-25-.5-6.5-3.5-11.7-6.5-16.7-1-1.7-2.1-3.6-3.1-5.6-3.6-7.1-5.1-15.4-4.2-23.4.5-4.1,1.5-8.2,2.6-11.6,1.3-4.4,2.7-8.8,4.3-13l.6-1.6c1-2.6,2-5.2,2.6-7.9,1.8-7,1.6-14.4,1.4-21.5v-.4c0-1.8-.1-3.5-.1-5.3,0-5,.1-11.5,2.1-17.6.6-2,1.5-3.8,2.4-5.7v-.2c1.8-3.5,3.6-7.2,3.7-11.6,0-2.9-.8-5.6-2.4-7.5-1.7-2.1-4.1-3.3-6.6-3.3s-.3,0-.5,0c-2.9.2-5.2,2.1-6.8,3.4-7.2,6.5-9.2,15-11.4,24.1-1.4,5.7-2.6,11-5.2,16-.8,1.7-1.8,3.2-2.8,4.9-2.4,3.9-4.8,7.9-5.5,12.5-.5,3-.3,6,0,8.9.2,2.4.3,4.5.2,6.7-.8,11.4-4.1,22.2-7.6,33.7-3.9,12.5-7.8,25.3-8.2,38.8v8.4c.2,7.8.4,16-1.9,22.7-.3.7-.5,1.5-.8,2.2l-.3.7c-1.4,3.6-2.7,7-2.6,10.8,0,1.2.2,2.3.4,3.7.2,1.4.4,2.9.3,4.4-.5,7.7-8.7,12.4-15.9,15.7-4.7,2.1-9.9,4.6-15.4,4.7-1.6,0-3.4-.1-5.2.5-1.3.4-2.4,1.2-3.4,1.9-.4.3-.8.5-1.1.8-2.3,1.5-4.5,2.1-6.7,1.8-2.3-.3-4.3-1.9-4.9-3.9-.2-.7-.2-1.5-.3-2.3,0-.9,0-1.6-.3-2.4-.3-1.3-.9-2.3-1.5-3.4l-.2-.3c-.3-.5-.5-.9-.7-1.4-2.4-5.2,0-11,2.2-16.6.7-1.6,1.4-3.4,2-5.1,3.8-11.4.4-23.4-3.8-34.6-2.5-6.6-3-14.2-1.4-20.6.8-3.3,2.1-6.4,3.4-9.4,1.5-3.4,2.9-6.9,3.7-10.6,1.7-7.9,0-15.9-1.6-23.7v-.5c-.6-2.5-1.1-5.1-1.5-7.6-1.9-12.3-1-25.2,2.7-37.1.9-2.9,1.9-5.8,3-8.7,2.8-7.7,5.8-15.6,5.4-24,0-1.8-.3-3.5-.5-5.2-.3-2.3-.5-4.2-.5-6.1,0-9.1,4.3-17.3,8.5-25.2.7-1.4,1.5-2.8,2.2-4.1,6.5-12.5,8.4-21.5,5.6-26.6-1.5-2.8-4.5-4.5-8.7-4.9h-1.3c-3.2,0-6.7,1.1-9.9,3.2-7.5,4.9-11.7,12.9-15.8,20.7-2.2,4.2-4.4,8.5-7.1,12.2-.5.7-1,1.4-1.6,2.1-1.3,1.7-2.7,3.5-3.7,5.5-2,3.8-2.7,8-3.4,12.2-.3,2-.7,4.2-1.2,6.3-1,4.1-2.8,8-5.1,11.5-3.1,4.6-7,8.6-10.5,12.1-7.4,7.5-14.5,14.6-15.4,26.7-.3,4.1-.1,8.2,0,12.1.1,3.1.3,6.3.2,9.4-.1,5.8-1.1,11.6-2,17.3v.2c-1.5,9.2-3,18.7-1.3,28.1.8,4.2,2.2,8.4,3.5,12.1,1.7,4.9,3.3,9.6,3.8,14.6.3,2.5.2,5,.1,7.3v.2c0,2.4-.1,4.8,0,7.2.5,5.4,1.7,10.6,3.4,15.6.3,1,.7,2,1.1,2.9l.2.6c1.6,4.3,3.2,8.3,3.2,12.6s-1.4,8.3-2.9,12.6c-1,3-2.1,5.9-2.6,9-1,5.7-.1,11.1.7,16.3l.3,1.7c.9,5.2,0,11-2.4,17.4l-.2.5c-.6,1.6-1.3,3.4-1.2,5.3,0,.7.2,1.4.4,2.1.2.9.5,1.8.4,2.6v.6c-.5,1.8-1.9,4.2-13.3,11.2h-.2c-1.3.9-2.4,1.6-3.1,2.1-3.2,2.3-6.2,4.2-9.5,4.4h-2.5c-.7,0-1.2,0-1.7.1-2.8.6-4.8,3-6.6,5.1-1.8,2.1-3.6,4.3-6,4.5h-.3c-3.7,0-6.3-4-6.4-7.6-.1-2.6.6-5.2,1.3-7.8v-.3c.4-1.3.8-2.7,1-4.1.8-4.8.6-9.5.4-14-.3-5.8-.5-11.7,1.5-17.7,2.6-7.9,5.4-19.5-1.3-30-2.1-3.3-4.6-6.4-7.1-9.4v-.2c-2.5-2.8-4.6-5.5-6.5-8.4-4.9-7.5-7.6-16.1-8-25-.2-5.2.4-10.2,1.1-15.5.4-3.5.9-7.1,1-10.7.4-8.9-.8-17.8-3.5-26.4-1.2-3.6-2.6-6.9-3.8-9.9-3-7-5.7-13.6-5.4-22.1.2-5.8,1.2-11.6,2.1-17.2v-.7c.5-2.5,1-5.1,1.3-7.7.5-3.9-.1-8.4-3.7-9.4-1.9-.5-4.3.4-6.5,2.8-6.8,7.3-8.4,17.3-10,27-.9,5.6-1.9,11.3-3.7,16.5-1.3,3.5-3.1,6.9-4.7,10.2-1.1,2.1-2.4,4.7-3.5,7.2-2.1,4.7-3.6,9.7-4.9,14.1-3.3,10.8-6.9,22.9-2.8,34.9,1.2,3.6,2.9,7.1,4.6,10.4,2.4,5,4.6,9.5,5.7,14.6,1.2,5.5,1,11.2.8,16.7-.2,6.4-.5,12.9,1.3,19,.8,2.6,1.9,5.2,3,7.6,1,2.4,2.2,5,3,7.8,2,7.2.7,14-.7,21.3-.5,2.6-1,5.3-1.3,7.9-1.4,10.7-1.4,21.5-.1,32.1.2,2,.5,4,.8,6,.9,6.1,1.7,11.7,1.3,17.5-.5,8.8-4,16.2-9.5,20.1-4.6,3.3-10.2,4.2-16.1,5.2l-2.4.4c-6.4,1.1-14.6,3-21.2,7.7-6.9,4.9-11,12.4-10.7,19.6v.7c.1,1,.1,1.7,0,2.4-.5,1.8-2.2,2.8-4,3.9-1.5.9-3,1.8-4,3.1-.7.9-1.1,1.9-1.6,2.9-.2.6-.5,1.3-.9,1.9-1.2,2.2-3.4,3.7-5.4,5.2l-.4.3c-.5.3-.9.7-1.4,1-9.7,7.5-14.6,20.6-12.4,32.6.6,3.1,2,7,5.4,8.5,2.4,1,5.5.6,8.9-1.3,2.8-1.6,5.4-3.6,7.8-5.6,2.8-2.3,5.6-4.6,8.9-6.2,2.3-1.1,4.8-1.8,7-2.4,3.3-.9,6.7-1.9,9.6-3.8,4.4-2.9,7.1-7.6,9.8-12.1l.2-.4c1-1.7,1.9-3.3,3-4.8,4.7-6.9,11.5-12.3,19.2-15.3,3.3-1.3,5.6-1.5,7.6-.8,4.6,1.8,5.3,8.2,4.3,13.7-.6,3.4-1.4,6.7-2.3,10.2v.5c-1,3.7-2.1,7.8-2.8,12-1.7,10.8,1,21.8,7.7,31.9l1.4,2.1c4.8,7.1,9.8,14.4,10.5,22.8.2,2.5,0,6-2,8.4-1,1.2-2.3,2-3.6,2.8-1.4.9-2.9,1.7-4.3,2.5l-.3.2c-3.5,2-7,4-10.2,6.4-3.8,3-8.6,7.8-9.9,14.4-.3,1.7-.4,3.4-.5,5-.1,2.3-.2,4.6-.9,6.7-1.5,4.4-5.4,7.5-9.2,10.4l-.5.4c-1,.8-1.9,1.5-2.9,2.3-5.6,4.8-9.2,9.4-11,14-.4,1-.8,2-1.1,3.1l-.3.8c-1.5,4.1-3,8.2-5.2,11.8-.9,1.5-2,2.7-3.1,4.1l-8.5,10c-1.1,1.3-2.3,2.7-3.1,4.4-2.3,5-.1,10.9,1.3,14.9.2.6.5,1.4,1.2,2,.6.5,1.3.8,2.1.8,1.5,0,3-.9,3.5-1.3,4.9-3.5,7.2-9,9.6-14.8,2.2-5.2,4.5-10.6,8.8-13.9,1.2-.9,2.4-1.7,3.9-2.5,1.3-.8,2.8-1.6,4.2-2.7,1.5-1.2,2.7-2.5,3.8-3.9,1.1-1.3,2.2-2.5,3.4-3.5,4.3-3.6,9.3-4.8,14.5-6,.9-.2,1.9-.4,2.8-.7,6.6-1.7,12.4-5.9,15.8-11.7,1.5-2.5,2.6-5.3,3.6-8v-.2c1.4-3.5,2.7-6.8,4.7-9.6,1.1-1.5,2.9-3.3,5.1-3.5h.5ZM416,452.2h0ZM454.3,429h0ZM441.5,623.5c-.9,0-1.9-.2-3-.6-4-1.3-7.5-4.1-9.6-7.6-4.1-6.7-3.5-15-2.8-23.1,0-1,.1-1.9.2-2.8.2-3.2.4-7-.9-10.4-1.2-3.3-3.5-5.8-6-8.4-2.4-2.6-4.8-5.1-5.8-8.3-1.4-4-.5-8.5.2-12.4.2-1.3.5-2.5.7-3.8l.3-1.6c2.5-14.4,5.1-29.2,19.2-37.1,2.7-1.5,5.5-2.7,8.5-3.9,1.9-.8,3.6-1.5,5.4-2.3,5.9-2.7,9.7-5.7,12.1-9.6,1.1-1.7,2.7-3.9,4.5-4.2h.6c0-.1.6,0,.6,0,5.8,1.2,9.9,19.4,9.2,25.4-.3,2.8-.8,5.6-1.3,8.5l-2.9-.3,2.9.5c-1.1,6.3-2.3,12.7-1.3,19.1.4,2.9,1.3,5.8,2.2,8.6.7,2.3,1.4,4.7,1.9,7.1,1.2,6.2.2,12.1-.7,18.3l-.2,1.2c-.1.9-.3,1.7-.4,2.6-.2,1.7-.3,3.3-.4,4.8-.2,3.6-.3,6.8-2.3,10.2-2.4,4.1-6.2,6.9-10.2,9.8-3.9,2.9-7.8,5.8-10.4,9.8-.7,1-1.2,2-1.8,3.1v.2c-.7,1.1-1.2,2.1-1.9,3-1.5,2.2-3.3,3.6-5.2,3.9h-1l-.4.3ZM464.9,494.7s0,.1-.1.2c-3,4.8-7.7,8.6-14.6,11.8-1.8.8-3.7,1.6-5.4,2.3-3,1.2-5.6,2.3-8,3.6-11.8,6.6-13.9,18.8-16.4,33l-.3,1.6c-.2,1.3-.5,2.6-.7,3.8-.6,3.2-1.3,6.9-.4,9.4.7,2,2.5,4,4.5,6.1,2.7,2.9,5.6,6,7.2,10.4,1.6,4.3,1.6,8.7,1.3,12.8,0,.9-.1,1.9-.2,2.8-.5,7.2-1.1,14.6,2,19.7,1.5,2.4,3.8,4.3,6.5,5.2.8.3,1.1.3,1.2.3h0c.1,0,.7-.4,1.4-1.5.5-.7,1-1.6,1.5-2.5v-.2c.7-1.1,1.3-2.3,2.1-3.5,3.2-4.9,7.5-8.1,11.7-11.2,3.6-2.7,6.9-5.2,8.8-8.2,1.3-2.1,1.4-4.3,1.5-7.3,0-1.8.2-3.5.5-5.5.1-.9.3-1.8.4-2.7l.2-1.1c.9-5.8,1.8-11.1.8-16.4-.4-2.1-1-4.3-1.7-6.4-.9-3-1.9-6.1-2.4-9.5-1.1-7.3.2-14.3,1.4-21v-.3c.6-2.8,1-5.5,1.3-8.2.5-4.5-2.1-13.7-4.1-17.6h0v.1ZM534.8,560c-3.1,0-6.2-2.2-7.9-5.3-1.8-3.6-1.9-7.8-1.8-11.4v-1c.2-2.4.3-4.8-.3-7.2-.6-2.6-2-4.8-3.3-6.9l-.2-.3c-.5-.8-1-1.6-1.4-2.4-3.2-6-4.2-13.2-2.8-19.8,1.7-7.6,1-15,.4-22.1-.5-5.8-1-11.2-.4-17.1.3-2.8.8-5.9,2.6-8.3,1.6-2.1,4-3.4,6.3-4.7l.6-.3c4-2.2,8-4.7,11.7-7.4l1.4-1c2.7-2,5.2-3.7,8-4.9,3.6-1.6,7.4-1.8,10.4-.4,6.8,3.1,5.2,12.2,4.1,18.9-.1.7-.2,1.4-.3,2-1.2,7.2-1.3,14.4-.4,21.6.4,2.8.9,5.6,1.4,8.5.5,2.6.9,5.2,1.6,7.7.8,3.2,1.8,6.4,3,9.6.4.9.8,1.9,1.2,2.8l.4,1c2.5,5.9,4.9,11.5,4.1,17.2,0,.6-.2,1.1-.3,1.7-1.3,5.2-5.4,9.8-12.1,13.9-1.8,1.1-3.7,2.1-5.5,3.1-3.8,2-7.8,4.2-11.2,7.1-.4.3-.8.7-1.2,1l-.4.3c-2,1.8-4.2,3.8-6.7,4.2h-1.1l.1-.1ZM554,444.4c-1.2,0-2.5.3-3.8.9-2.3,1-4.5,2.6-6.8,4.2l-1.5,1.1c-4,2.8-8.1,5.4-12.3,7.7l-.5.3c-2,1.1-3.8,2.1-4.6,3.2-1.1,1.4-1.3,4.3-1.5,5.4-.5,5.3,0,10.5.4,15.9.7,7.6,1.4,15.4-.5,23.9-1.2,5.3-.4,11.1,2.2,15.8.4.7.8,1.4,1.2,2.1l.2.3c1.5,2.4,3.1,5.1,4,8.5.8,3.2.6,6.4.5,8.9v1c-.2,2.9-.1,6.1,1.1,8.5.7,1.4,2.1,2.2,2.7,2.2,1-.2,2.7-1.6,4-2.8l.3-.3c.4-.4.9-.8,1.3-1.2,3.9-3.3,8.1-5.6,12.2-7.8,1.8-.9,3.6-1.9,5.3-2.9,5.4-3.2,8.6-6.7,9.5-10.3,0-.3.2-.7.2-1.1.5-4.2-1.5-9-3.7-14.2l-.4-1c-.4-1-.8-1.9-1.2-2.9-1.3-3.4-2.4-6.9-3.3-10.3-.6-2.6-1.1-5.3-1.6-7.8-.6-3.1-1.1-6-1.5-8.9-1-7.8-.8-15.6.4-23.3,0-.7.2-1.4.4-2.1,1.2-7,1.5-11.6-.8-12.6-.5-.3-1.2-.4-1.9-.4h0Z" fill="#090908"/>
</svg>